STARTFONT 2.3
FONT -FontForge-Pacifico-Book-R-Normal--10-100-72-72-P-59-ISO10646-1
SIZE 10 72 72  4
FONTBOUNDINGBOX 23 21 -6 -5
COMMENT "Generated by fontforge, http://fontforge.sourceforge.net"
COMMENT "Copyright 2018 The Pacifico Project Authors (https://github.com/googlefonts/Pacifico)"
STARTPROPERTIES 41
FOUNDRY "FontForge"
FAMILY_NAME "Pacifico"
WEIGHT_NAME "Book"
SLANT "R"
SETWIDTH_NAME "Normal"
ADD_STYLE_NAME ""
PIXEL_SIZE 10
POINT_SIZE 100
RESOLUTION_X 72
RESOLUTION_Y 72
SPACING "P"
AVERAGE_WIDTH 59
CHARSET_REGISTRY "ISO10646"
CHARSET_ENCODING "1"
FONTNAME_REGISTRY ""
CHARSET_COLLECTIONS "ISO8859-2 ISO8859-5 ISO8859-9 ISO8859-4 ISO10646-1"
BITS_PER_PIXEL 4
FONT_NAME "Pacifico-Regular"
FACE_NAME "Pacifico Regular"
COPYRIGHT "Copyright 2018 The Pacifico Project Authors (https://github.com/googlefonts/Pacifico)"
FONT_VERSION "3.001"
FONT_ASCENT 8
FONT_DESCENT 2
UNDERLINE_POSITION -1
UNDERLINE_THICKNESS 1
X_HEIGHT 4
CAP_HEIGHT 8
DEFAULT_CHAR 1
RAW_ASCENT 800
RAW_DESCENT 200
NORM_SPACE 3
RELATIVE_WEIGHT 40
RELATIVE_SETWIDTH 50
SUPERSCRIPT_X 0
SUPERSCRIPT_Y 3
SUPERSCRIPT_SIZE 6
SUBSCRIPT_X 0
SUBSCRIPT_Y 0
SUBSCRIPT_SIZE 6
AVG_LOWERCASE_WIDTH 48
AVG_UPPERCASE_WIDTH 81
ENDPROPERTIES
CHARS 1514
STARTCHAR NULL.dup1
ENCODING 0
SWIDTH 0 0
DWIDTH 0 0
BBX 1 1 0 0
BITMAP
00
ENDCHAR
STARTCHAR nonmarkingreturn
ENCODING 13
SWIDTH 265 0
DWIDTH 3 0
BBX 1 1 0 0
BITMAP
00
ENDCHAR
STARTCHAR space
ENCODING 32
SWIDTH 265 0
DWIDTH 3 0
BBX 1 1 0 0
BITMAP
00
ENDCHAR
STARTCHAR exclam
ENCODING 33
SWIDTH 340 0
DWIDTH 3 0
BBX 4 9 0 0
BITMAP
00A8
01F6
03F2
06D0
0990
0C50
0500
6D10
7D10
ENDCHAR
STARTCHAR quotedbl
ENCODING 34
SWIDTH 510 0
DWIDTH 5 0
BBX 4 4 1 5
BITMAP
7B4E
AB7E
C99C
B487
ENDCHAR
STARTCHAR numbersign
ENCODING 35
SWIDTH 700 0
DWIDTH 7 0
BBX 7 7 0 0
BITMAP
00330600
00B84E00
3FFFFFB0
06E2E610
8FFFFF40
1E69C200
0C176000
ENDCHAR
STARTCHAR dollar
ENCODING 36
SWIDTH 524 0
DWIDTH 5 0
BBX 5 9 0 -1
BITMAP
002800
08EE60
2F8AC0
2FC310
05ED30
55BA90
7DDD70
06D500
028000
ENDCHAR
STARTCHAR percent
ENCODING 37
SWIDTH 896 0
DWIDTH 9 0
BBX 9 8 0 0
BITMAP
0AE401C000
5BAB2BA000
7B6FEF2000
1CC4A80000
0003E2BD40
000C7796B0
006D0896A0
00A503DD20
ENDCHAR
STARTCHAR ampersand
ENCODING 38
SWIDTH 851 0
DWIDTH 9 0
BBX 9 10 0 -1
BITMAP
005DE60000
01E77E0000
02F24E0000
00E8D60000
01CF700000
1DBDB02E20
7E03E9D900
7F53AFC000
19DEB9F500
0000005300
ENDCHAR
STARTCHAR quotesingle
ENCODING 39
SWIDTH 290 0
DWIDTH 3 0
BBX 2 4 1 5
BITMAP
7B
AB
C9
B4
ENDCHAR
STARTCHAR parenleft
ENCODING 40
SWIDTH 613 0
DWIDTH 6 0
BBX 8 12 0 -2
BITMAP
0004CEC2
003F8382
00CA0000
04F20000
08C00000
0C800000
0E600000
1F500000
1F400000
0D818800
05EFC200
00020000
ENDCHAR
STARTCHAR parenright
ENCODING 41
SWIDTH 613 0
DWIDTH 6 0
BBX 7 12 -1 -2
BITMAP
003CE900
00E64E60
00100B90
00000B90
00000C80
00000E60
00003F20
00008D00
0001E700
431BD100
8FFB2000
01100000
ENDCHAR
STARTCHAR asterisk
ENCODING 42
SWIDTH 520 0
DWIDTH 5 0
BBX 5 5 1 5
BITMAP
66C000
3CDD20
ACE700
087A00
021000
ENDCHAR
STARTCHAR plus
ENCODING 43
SWIDTH 700 0
DWIDTH 7 0
BBX 7 7 0 0
BITMAP
00042000
000B6000
000D4000
1EFFFF30
034F3300
003E0000
003B0000
ENDCHAR
STARTCHAR comma
ENCODING 44
SWIDTH 257 0
DWIDTH 3 0
BBX 2 4 0 -2
BITMAP
25
8E
AA
B3
ENDCHAR
STARTCHAR hyphen
ENCODING 45
SWIDTH 403 0
DWIDTH 4 0
BBX 4 2 0 2
BITMAP
39B7
2862
ENDCHAR
STARTCHAR period
ENCODING 46
SWIDTH 257 0
DWIDTH 3 0
BBX 3 2 0 0
BITMAP
7D10
8D10
ENDCHAR
STARTCHAR slash
ENCODING 47
SWIDTH 509 0
DWIDTH 5 0
BBX 6 10 0 0
BITMAP
000087
0002F4
0009B0
002F40
009B00
02F400
09B000
2F4000
9B0000
C40000
ENDCHAR
STARTCHAR zero
ENCODING 48
SWIDTH 543 0
DWIDTH 5 0
BBX 6 6 0 0
BITMAP
05DD50
1F68D0
6D03F1
7C04E0
5E3BA0
0AEB10
ENDCHAR
STARTCHAR one
ENCODING 49
SWIDTH 376 0
DWIDTH 4 0
BBX 4 7 0 0
BITMAP
0261
4FF4
27F2
05F0
07D0
09B0
0880
ENDCHAR
STARTCHAR two
ENCODING 50
SWIDTH 560 0
DWIDTH 6 0
BBX 6 6 0 0
BITMAP
06EE70
2F58F0
1707D0
004E40
19E520
7FFFE1
ENDCHAR
STARTCHAR three
ENCODING 51
SWIDTH 520 0
DWIDTH 5 0
BBX 5 6 0 0
BITMAP
09EE60
5D3AC0
126D50
119D50
A93CB0
4DFC30
ENDCHAR
STARTCHAR four
ENCODING 52
SWIDTH 577 0
DWIDTH 6 0
BBX 6 7 0 0
BITMAP
006200
05E100
0C83D0
4F18B0
7FFFF6
033C80
000A40
ENDCHAR
STARTCHAR five
ENCODING 53
SWIDTH 518 0
DWIDTH 5 0
BBX 5 6 0 0
BITMAP
2DFFD0
0E6210
1FEB20
134CA0
7C3CA0
2CFC20
ENDCHAR
STARTCHAR six
ENCODING 54
SWIDTH 541 0
DWIDTH 5 0
BBX 6 6 0 0
BITMAP
04CE90
1E64B1
6ECD40
7F5AB0
5F4BB0
0AEC20
ENDCHAR
STARTCHAR seven
ENCODING 55
SWIDTH 497 0
DWIDTH 5 0
BBX 6 6 0 0
BITMAP
6FFFF2
124E70
00D800
06E000
0AA000
0A6000
ENDCHAR
STARTCHAR eight
ENCODING 56
SWIDTH 512 0
DWIDTH 5 0
BBX 5 6 0 0
BITMAP
08EE60
3F58C0
1DAD50
2D9E60
8C3AB0
3DEC30
ENDCHAR
STARTCHAR nine
ENCODING 57
SWIDTH 541 0
DWIDTH 5 0
BBX 5 6 0 0
BITMAP
08DD40
3F5AD0
1DFDF0
2326E0
8C3D90
2CEA10
ENDCHAR
STARTCHAR colon
ENCODING 58
SWIDTH 257 0
DWIDTH 3 0
BBX 3 5 0 0
BITMAP
2D40
3E40
0000
7D10
8D10
ENDCHAR
STARTCHAR semicolon
ENCODING 59
SWIDTH 257 0
DWIDTH 3 0
BBX 3 7 0 -2
BITMAP
2D40
3E40
0000
2500
8E00
AA00
B300
ENDCHAR
STARTCHAR less
ENCODING 60
SWIDTH 700 0
DWIDTH 7 0
BBX 7 5 0 1
BITMAP
00017D60
04AFC600
2FE40000
05CFA300
00039D00
ENDCHAR
STARTCHAR equal
ENCODING 61
SWIDTH 700 0
DWIDTH 7 0
BBX 7 4 0 1
BITMAP
0DFFFF50
02222200
3EFFFE10
02222200
ENDCHAR
STARTCHAR greater
ENCODING 62
SWIDTH 700 0
DWIDTH 7 0
BBX 7 5 0 1
BITMAP
0CA40000
039ED600
0003DF40
05BFB500
3D820000
ENDCHAR
STARTCHAR question
ENCODING 63
SWIDTH 476 0
DWIDTH 5 0
BBX 6 9 0 0
BITMAP
05EE90
0E67F2
0A07F1
003E70
01D700
05A000
032000
2D4000
3E5000
ENDCHAR
STARTCHAR at
ENCODING 64
SWIDTH 1015 0
DWIDTH 10 0
BBX 10 12 0 -4
BITMAP
0005BEEB30
009E7349E3
07E20000A9
1E508E906C
5E06E6F06C
8C0C86D099
9B0D7BC4E3
8D07E7CE50
3F30000000
0AE51139C0
007EFFEA30
0000110000
ENDCHAR
STARTCHAR A
ENCODING 65
SWIDTH 786 0
DWIDTH 8 0
BBX 10 9 0 0
BITMAP
0005BEFD40
009E846610
07F302F400
0E8005F100
4F3009D000
6F100DB000
6F204F9030
2FA5DDC5D1
06EE54ED40
ENDCHAR
STARTCHAR B
ENCODING 66
SWIDTH 827 0
DWIDTH 8 0
BBX 9 10 0 -1
BITMAP
049DEED700
9E85338F70
31A6000D90
01F5028F40
04F2CFC300
07E026F500
09C000E800
0BB34BF300
0DFFEA3000
0520000000
ENDCHAR
STARTCHAR C
ENCODING 67
SWIDTH 686 0
DWIDTH 7 0
BBX 9 9 0 0
BITMAP
003BED4000
03E93AD000
0CB005E000
2F50036000
4F20000000
5F20000000
2F60000000
0AE6347C10
008DFEB500
ENDCHAR
STARTCHAR D
ENCODING 68
SWIDTH 836 0
DWIDTH 8 0
BBX 9 9 0 0
BITMAP
05BEEC6000
7D7348F700
10A5009E00
02F4005F20
05F1006F10
08D0009E00
0BB002E800
0DA36DC100
0AEEC70000
ENDCHAR
STARTCHAR E
ENCODING 69
SWIDTH 686 0
DWIDTH 7 0
BBX 9 9 0 0
BITMAP
006CFD5000
05F738E000
0AC004F100
08E3028000
02DFB00000
3E93100000
9D00000000
7F73347B10
07DFFDB500
ENDCHAR
STARTCHAR F
ENCODING 70
SWIDTH 712 0
DWIDTH 7 0
BBX 10 9 0 0
BITMAP
018CEFFED3
0D82F72220
1F22F50000
0923F30000
004FFFF600
0008F22000
1009C00000
E64E800000
5DE9100000
ENDCHAR
STARTCHAR G
ENCODING 71
SWIDTH 811 0
DWIDTH 8 0
BBX 10 14 0 -5
BITMAP
002AEE7000
03EA36F300
0BB001F300
2F50007000
4F20000000
5F204FF700
2F6002D610
0AE634E9D2
018DFDFC20
00000AE100
0000ABB000
0005997000
000A8E2000
0006E70000
ENDCHAR
STARTCHAR H
ENCODING 72
SWIDTH 873 0
DWIDTH 9 0
BBX 10 10 0 0
BITMAP
00000008E3
2BE8004E87
D59D00A866
307D00E5C2
009B03FD80
0DFFFEF500
02F716E000
03F305F004
06F002F75C
06A0007EC2
ENDCHAR
STARTCHAR I
ENCODING 73
SWIDTH 495 0
DWIDTH 5 0
BBX 7 9 -1 0
BITMAP
00CFFF60
001AD200
000BB000
000D8000
000F6000
002F4000
004F2000
018F2000
1EFFF400
ENDCHAR
STARTCHAR J
ENCODING 74
SWIDTH 743 0
DWIDTH 7 0
BBX 8 11 0 -2
BITMAP
03AEFEC6
1E8327F4
4F0006F0
1C1008D0
00005DB0
002CDE80
01DA1F40
06E05E00
08D2D700
03EFA000
00110000
ENDCHAR
STARTCHAR K
ENCODING 75
SWIDTH 937 0
DWIDTH 9 0
BBX 11 9 0 0
BITMAP
05CFE900A800
2F63F803F400
5E02F40BC000
1904F4AD2000
001EFFA10000
0009D9F20000
410AA1EA0040
AA4F608F6A70
2CE9001BE900
ENDCHAR
STARTCHAR L
ENCODING 76
SWIDTH 673 0
DWIDTH 7 0
BBX 9 9 -1 0
BITMAP
00018DE800
000AD45F30
002F500F40
005F200700
006F000000
007D000000
019C000030
3EFFB636C0
3EC58DFC20
ENDCHAR
STARTCHAR M
ENCODING 77
SWIDTH 1232 0
DWIDTH 12 0
BBX 14 9 0 0
BITMAP
1AE62CE42CE500
B7AAC5BAC4CB00
50AD708E60BA00
00BE10AE10E800
00DA00DB02F500
01F700F705F200
03F403F507F002
05F205F206F497
04D004D001CE90
ENDCHAR
STARTCHAR N
ENCODING 78
SWIDTH 884 0
DWIDTH 9 0
BBX 11 9 0 0
BITMAP
1AE71AEB0000
B7AAA66F4000
50AC803F3000
00BF106F1000
00DB009D0000
01F700CA0000
03F400E80200
05F200DA4D10
04D0006ED400
ENDCHAR
STARTCHAR O
ENCODING 79
SWIDTH 816 0
DWIDTH 8 0
BBX 8 9 0 0
BITMAP
003BED70
03E936F6
0BB000AC
2F50008E
4F20008E
5F2000BB
3F5002F5
0CD44CB0
02BED800
ENDCHAR
STARTCHAR P
ENCODING 80
SWIDTH 805 0
DWIDTH 8 0
BBX 9 11 0 -2
BITMAP
0018DFC300
01CA33CE10
09A4E05F30
1F27E06F10
5C1AC5E900
7A9FFD7000
890F700000
7A2F400000
4E6F200000
0BFC000000
0031000000
ENDCHAR
STARTCHAR Q
ENCODING 81
SWIDTH 816 0
DWIDTH 8 0
BBX 9 13 0 -4
BITMAP
003BED7000
03E936F700
0CB000AD00
2F50008E00
4F20008E00
5F2000CB00
3F6004F500
0BE78EA000
018EF70000
0001E90010
00008F33A0
00001CFD30
0000002000
ENDCHAR
STARTCHAR R
ENCODING 82
SWIDTH 880 0
DWIDTH 9 0
BBX 10 9 0 0
BITMAP
002AEFC400
02E843CE00
0B76D07F10
2E0AB3D900
5B6FFE6000
6A0F8E9000
6B2F47F104
2E7F21E94D
06EB005EC3
ENDCHAR
STARTCHAR S
ENCODING 83
SWIDTH 693 0
DWIDTH 7 0
BBX 7 9 0 0
BITMAP
019EEB20
0AC43AC0
0E8006D0
0BE50130
01BFD500
1203AF40
9A000E80
8D426F40
19EEC600
ENDCHAR
STARTCHAR T
ENCODING 84
SWIDTH 697 0
DWIDTH 7 0
BBX 9 9 0 0
BITMAP
05BDEFFFC0
6D53F82220
9902F40000
4705F20000
0007E00000
000AC00000
000CA00000
000E800000
000D500000
ENDCHAR
STARTCHAR U
ENCODING 85
SWIDTH 890 0
DWIDTH 9 0
BBX 11 9 0 0
BITMAP
1AE9000D3000
AAAE003F4000
808D005F2000
00BB008F0000
00E700CD0000
02F403FB0000
04F20AC90210
05F8A8CD7D10
01CE905ED400
ENDCHAR
STARTCHAR V
ENCODING 86
SWIDTH 763 0
DWIDTH 8 0
BBX 8 9 1 0
BITMAP
5C009E80
9D02D7E0
AB04B6C0
BA01ED90
BA005FFE
AA008C11
9D02E400
5F9D8000
0BE80000
ENDCHAR
STARTCHAR W
ENCODING 87
SWIDTH 1217 0
DWIDTH 12 0
BBX 13 9 1 0
BITMAP
5C000A803DD200
9D000F80A7D700
BB003F60B4D500
BA007F507CF200
CA00BF500BFF80
BA01ED501E5200
9C089B708C0000
5F9E28D8E20000
0BD402DD400000
ENDCHAR
STARTCHAR X
ENCODING 88
SWIDTH 712 0
DWIDTH 7 0
BBX 10 9 -1 0
BITMAP
02CE700B90
0C58F29E20
0101FBF300
0000CF6000
0001DE0000
000CEF3000
009E2E7011
07F40AC3B4
1E6002DE70
ENDCHAR
STARTCHAR Y
ENCODING 89
SWIDTH 851 0
DWIDTH 9 0
BBX 10 13 0 -4
BITMAP
1AE8000D40
A89E002F50
708D004F30
00BB008F10
00E800CE00
01F604FC00
01F72CBA00
009FE7DDC7
0004B9F820
002D23F100
008B1BB000
005FFC2000
0001100000
ENDCHAR
STARTCHAR Z
ENCODING 90
SWIDTH 721 0
DWIDTH 7 0
BBX 9 9 0 0
BITMAP
04BEFEB600
3E6339F600
5D001E9000
19008E1000
0003F60000
000CC00000
019F300020
9FFE943A50
9E96BEE700
ENDCHAR
STARTCHAR bracketleft
ENCODING 91
SWIDTH 405 0
DWIDTH 4 0
BBX 5 12 0 -2
BITMAP
01EFD0
04F310
06E000
08D000
0AB000
0B9000
0D7000
0F5000
2F4000
4F2000
4FFB00
022100
ENDCHAR
STARTCHAR backslash
ENCODING 92
SWIDTH 509 0
DWIDTH 5 0
BBX 4 10 1 0
BITMAP
B400
C800
8C00
4F10
0E50
0B90
07D0
03F2
00E6
0097
ENDCHAR
STARTCHAR bracketright
ENCODING 93
SWIDTH 405 0
DWIDTH 4 0
BBX 5 12 -1 -2
BITMAP
04FFA0
002AB0
000BA0
000D80
000F60
001F40
003F20
005F00
007E00
009C00
5FF900
022000
ENDCHAR
STARTCHAR asciicircum
ENCODING 94
SWIDTH 700 0
DWIDTH 7 0
BBX 6 6 0 1
BITMAP
000420
001E90
009BE0
02E2D3
0A8088
1D104A
ENDCHAR
STARTCHAR underscore
ENCODING 95
SWIDTH 354 0
DWIDTH 4 0
BBX 5 2 -1 -2
BITMAP
2FFF30
022200
ENDCHAR
STARTCHAR grave
ENCODING 96
SWIDTH 600 0
DWIDTH 6 0
BBX 3 4 1 6
BITMAP
4200
A900
3E10
0740
ENDCHAR
STARTCHAR a
ENCODING 97
SWIDTH 470 0
DWIDTH 5 0
BBX 6 5 0 0
BITMAP
05DA20
3F6E40
8B2F12
9B8F5C
4E9AD2
ENDCHAR
STARTCHAR b
ENCODING 98
SWIDTH 473 0
DWIDTH 5 0
BBX 6 10 0 0
BITMAP
00AD10
05BC40
0C6C30
1F4D00
4F8500
6EEA00
7F7F62
6C1DFE
3E4D60
09E900
ENDCHAR
STARTCHAR c
ENCODING 99
SWIDTH 368 0
DWIDTH 4 0
BBX 5 5 0 0
BITMAP
09E600
6E7900
AA1230
9C37C0
2CEB20
ENDCHAR
STARTCHAR d
ENCODING 100
SWIDTH 515 0
DWIDTH 5 0
BBX 7 10 0 0
BITMAP
0000BB00
0005BD10
00097C00
000C5C00
000F8700
05EFC200
3F7FA000
8B1F3120
9B6F5B40
4EB7E700
ENDCHAR
STARTCHAR e
ENCODING 101
SWIDTH 393 0
DWIDTH 4 0
BBX 6 5 0 0
BITMAP
09E800
6D6C00
ACC621
8E56E1
1BEC40
ENDCHAR
STARTCHAR f
ENCODING 102
SWIDTH 371 0
DWIDTH 4 0
BBX 5 14 0 -4
BITMAP
005E60
01E8A0
06B680
0B7A40
0F7B00
3FC200
5F4000
6CDFA0
7CC200
7CB000
6CA200
5EA100
1EB000
010000
ENDCHAR
STARTCHAR g
ENCODING 103
SWIDTH 479 0
DWIDTH 5 0
BBX 6 10 0 -5
BITMAP
05DA20
3F6E40
8B2F13
9B8FAB
4EDF90
03E900
2CC600
A5E200
E7B000
BD3000
ENDCHAR
STARTCHAR h
ENCODING 104
SWIDTH 502 0
DWIDTH 5 0
BBX 7 10 0 0
BITMAP
00AD1000
05CC4000
0B6C2000
0E5C0000
3FB30000
5F9C8000
6DBE9000
7E8C6210
7F2E7C30
6B0BE500
ENDCHAR
STARTCHAR i
ENCODING 105
SWIDTH 246 0
DWIDTH 2 0
BBX 4 7 0 0
BITMAP
0D80
0100
1E10
5E00
7C03
7C79
3EB1
ENDCHAR
STARTCHAR j
ENCODING 106
SWIDTH 254 0
DWIDTH 3 0
BBX 7 12 -3 -5
BITMAP
0002E500
00001000
0002E100
0004F000
0006D020
0007CB70
0009E600
004E6000
04CF3000
0C4D0000
3CA80000
1DC10000
ENDCHAR
STARTCHAR k
ENCODING 107
SWIDTH 525 0
DWIDTH 5 0
BBX 7 10 0 0
BITMAP
00AD1000
05CC4000
0B6C2000
0E5B0000
3FB30000
5F8CC000
6CB6F100
7E9BA130
7F7F4B50
4C1BE800
ENDCHAR
STARTCHAR l
ENCODING 108
SWIDTH 326 0
DWIDTH 3 0
BBX 5 10 0 0
BITMAP
00AD10
05BC40
0B6B30
0F2D10
3F4B00
5DA400
6EC000
6F3020
4E4A60
0AE800
ENDCHAR
STARTCHAR m
ENCODING 109
SWIDTH 744 0
DWIDTH 7 0
BBX 9 5 0 0
BITMAP
1E3D68E100
5DCEBDF000
7E7DD6C030
7F1F98C890
5B0C45EA00
ENDCHAR
STARTCHAR n
ENCODING 110
SWIDTH 496 0
DWIDTH 5 0
BBX 7 5 0 0
BITMAP
1E3C7000
5DCE8000
7E8D5210
7F2F6D20
5B0CD400
ENDCHAR
STARTCHAR o
ENCODING 111
SWIDTH 451 0
DWIDTH 5 0
BBX 6 5 0 0
BITMAP
0AE900
6D8F32
A93FFB
8C4F30
1CE600
ENDCHAR
STARTCHAR p
ENCODING 112
SWIDTH 481 0
DWIDTH 5 0
BBX 8 10 -2 -5
BITMAP
004CBD20
005F5E60
005D0E53
00BD8E5D
03EFDDD3
09BB0000
0D8A0000
1B970000
2CC30000
0DA00000
ENDCHAR
STARTCHAR q
ENCODING 113
SWIDTH 500 0
DWIDTH 5 0
BBX 7 11 0 -5
BITMAP
00025000
05DEA000
3F7E5000
8B2F2000
9B9DAF30
4EDBC200
0099B000
00A8C000
00AAB000
006F7000
00030000
ENDCHAR
STARTCHAR r
ENCODING 114
SWIDTH 455 0
DWIDTH 5 0
BBX 6 5 0 0
BITMAP
1E4D70
5DCD85
7F6AF9
7F1020
5B0000
ENDCHAR
STARTCHAR s
ENCODING 115
SWIDTH 427 0
DWIDTH 4 0
BBX 6 5 0 0
BITMAP
02E100
09E000
3CD814
C7BEC6
38FF90
ENDCHAR
STARTCHAR t
ENCODING 116
SWIDTH 393 0
DWIDTH 4 0
BBX 6 9 0 0
BITMAP
007E20
03DB50
098C20
0DB800
EFFF60
3F4200
1F2021
0E84D1
05ED40
ENDCHAR
STARTCHAR u
ENCODING 117
SWIDTH 462 0
DWIDTH 5 0
BBX 6 5 0 0
BITMAP
1D1A50
5E1F30
7B6F03
7DDE6B
3E6EC1
ENDCHAR
STARTCHAR v
ENCODING 118
SWIDTH 449 0
DWIDTH 4 0
BBX 6 5 0 0
BITMAP
6A2D40
7B5F42
7C6FFB
6DE410
2E7000
ENDCHAR
STARTCHAR w
ENCODING 119
SWIDTH 700 0
DWIDTH 7 0
BBX 9 5 0 0
BITMAP
6A0C27B000
7B4F3DC210
7CAF4DFF30
6DDCCB1100
2E68D20000
ENDCHAR
STARTCHAR x
ENCODING 120
SWIDTH 529 0
DWIDTH 5 0
BBX 7 5 0 0
BITMAP
1DC7E400
1ABE8300
32AB0030
B8ED2A60
8E8CE800
ENDCHAR
STARTCHAR y
ENCODING 121
SWIDTH 479 0
DWIDTH 5 0
BBX 6 10 0 -5
BITMAP
1D1A50
5E1F30
7B6F13
7DDE9B
3EAF80
03D900
2CC600
B4E200
E7B000
BD3000
ENDCHAR
STARTCHAR z
ENCODING 122
SWIDTH 445 0
DWIDTH 4 0
BBX 6 5 0 0
BITMAP
5FFFA0
05DB30
2E7004
5F53A8
1AEE80
ENDCHAR
STARTCHAR braceleft
ENCODING 123
SWIDTH 490 0
DWIDTH 5 0
BBX 6 12 0 -2
BITMAP
0009EA
005F41
008C00
009B00
01D800
5FD100
05F300
02F300
04F200
04F200
01CF90
000210
ENDCHAR
STARTCHAR bar
ENCODING 124
SWIDTH 326 0
DWIDTH 3 0
BBX 4 13 0 -3
BITMAP
01E1
03F1
05E0
07C0
09A0
0B70
0D50
1F30
3F10
5E00
7C00
9A00
9700
ENDCHAR
STARTCHAR braceright
ENCODING 125
SWIDTH 490 0
DWIDTH 5 0
BBX 6 12 -1 -2
BITMAP
04FC20
003D90
000BA0
000C80
000D90
0008FB
001F71
005F00
007E00
00AB00
4FE400
020000
ENDCHAR
STARTCHAR asciitilde
ENCODING 126
SWIDTH 700 0
DWIDTH 7 0
BBX 7 3 0 2
BITMAP
02610420
0CED5E30
2C16E900
ENDCHAR
STARTCHAR uni00A0
ENCODING 160
SWIDTH 265 0
DWIDTH 3 0
BBX 1 1 0 0
BITMAP
00
ENDCHAR
STARTCHAR exclamdown
ENCODING 161
SWIDTH 340 0
DWIDTH 3 0
BBX 4 9 -1 -4
BITMAP
009D
009C
0041
00E3
03F0
08C0
0C90
1F60
3E20
ENDCHAR
STARTCHAR cent
ENCODING 162
SWIDTH 466 0
DWIDTH 5 0
BBX 5 8 0 -1
BITMAP
003100
008300
0AFE20
5CAB20
8AA220
5ECD30
07C400
036000
ENDCHAR
STARTCHAR sterling
ENCODING 163
SWIDTH 525 0
DWIDTH 5 0
BBX 6 6 0 0
BITMAP
02BE90
0AB4E2
0E4020
9FFE00
3F6420
AFFFE0
ENDCHAR
STARTCHAR currency
ENCODING 164
SWIDTH 700 0
DWIDTH 7 0
BBX 5 5 1 1
BITMAP
9AEBB0
4C3B70
770590
5B1970
8CECA0
ENDCHAR
STARTCHAR yen
ENCODING 165
SWIDTH 497 0
DWIDTH 5 0
BBX 6 7 0 0
BITMAP
430052
8D04E2
1E5D70
08EC00
6FFF70
8FFF60
16D210
ENDCHAR
STARTCHAR brokenbar
ENCODING 166
SWIDTH 326 0
DWIDTH 3 0
BBX 4 13 0 -3
BITMAP
01E2
03F1
05D0
07B0
0990
0640
0000
0910
2F10
4E00
6C00
8A00
9700
ENDCHAR
STARTCHAR section
ENCODING 167
SWIDTH 607 0
DWIDTH 6 0
BBX 6 9 0 0
BITMAP
009ED3
05D3A8
05E343
07DFA0
0C62E5
07FAD2
172AD0
4E37E0
0AED50
ENDCHAR
STARTCHAR dieresis
ENCODING 168
SWIDTH 600 0
DWIDTH 6 0
BBX 4 2 1 5
BITMAP
7A6B
1101
ENDCHAR
STARTCHAR copyright
ENCODING 169
SWIDTH 647 0
DWIDTH 6 0
BBX 7 7 0 3
BITMAP
01AED500
0B8ECC30
1B95A390
2BB23390
0CBFBC50
03DFF800
00021000
ENDCHAR
STARTCHAR ordfeminine
ENCODING 170
SWIDTH 393 0
DWIDTH 4 0
BBX 5 4 0 4
BITMAP
03DB20
1E4E20
3E4F00
0B9C00
ENDCHAR
STARTCHAR guillemotleft
ENCODING 171
SWIDTH 615 0
DWIDTH 6 0
BBX 6 4 0 0
BITMAP
06D1A9
8E4DB1
7E4CB1
06C1A7
ENDCHAR
STARTCHAR logicalnot
ENCODING 172
SWIDTH 700 0
DWIDTH 7 0
BBX 7 4 0 0
BITMAP
1EFFFE30
02223F30
00002F10
00000100
ENDCHAR
STARTCHAR uni00AD
ENCODING 173
SWIDTH 403 0
DWIDTH 4 0
BBX 4 2 0 2
BITMAP
39B7
2862
ENDCHAR
STARTCHAR registered
ENCODING 174
SWIDTH 647 0
DWIDTH 6 0
BBX 7 7 0 3
BITMAP
01AED500
0BBCBD30
1B27B390
2A5D6390
0CA38C50
03DFF800
00021000
ENDCHAR
STARTCHAR macron
ENCODING 175
SWIDTH 600 0
DWIDTH 6 0
BBX 4 2 1 5
BITMAP
7FF8
1221
ENDCHAR
STARTCHAR degree
ENCODING 176
SWIDTH 385 0
DWIDTH 4 0
BBX 3 4 1 5
BITMAP
7E80
E4E0
BF90
0100
ENDCHAR
STARTCHAR plusminus
ENCODING 177
SWIDTH 700 0
DWIDTH 7 0
BBX 5 6 1 0
BITMAP
00A500
8FFFE0
13F520
01F100
235310
EFFF70
ENDCHAR
STARTCHAR uni00B2
ENCODING 178
SWIDTH 450 0
DWIDTH 5 0
BBX 5 4 0 4
BITMAP
09DD30
190D40
029600
4FFE60
ENDCHAR
STARTCHAR uni00B3
ENCODING 179
SWIDTH 450 0
DWIDTH 5 0
BBX 5 4 0 4
BITMAP
09DE40
064C40
145D40
2CDD20
ENDCHAR
STARTCHAR acute
ENCODING 180
SWIDTH 600 0
DWIDTH 6 0
BBX 3 4 2 6
BITMAP
0140
08B0
0E30
3800
ENDCHAR
STARTCHAR uni00B5
ENCODING 181
SWIDTH 462 0
DWIDTH 5 0
BBX 6 8 0 -3
BITMAP
1D1A50
4E1F30
7B6F03
8DDE6B
9F6EC1
A80000
B70000
A60000
ENDCHAR
STARTCHAR paragraph
ENCODING 182
SWIDTH 739 0
DWIDTH 7 0
BBX 6 9 1 0
BITMAP
2AEFE8
CFFB9F
EFF88D
6EF6AA
02F4D8
04F2F5
06E2F3
08D5F1
0894D0
ENDCHAR
STARTCHAR periodcentered
ENCODING 183
SWIDTH 257 0
DWIDTH 3 0
BBX 3 2 0 2
BITMAP
4D20
5E20
ENDCHAR
STARTCHAR cedilla
ENCODING 184
SWIDTH 600 0
DWIDTH 6 0
BBX 4 4 0 -4
BITMAP
0BD2
02B6
5FD2
0200
ENDCHAR
STARTCHAR uni00B9
ENCODING 185
SWIDTH 450 0
DWIDTH 5 0
BBX 3 4 1 4
BITMAP
8DB0
1990
0B70
0C30
ENDCHAR
STARTCHAR ordmasculine
ENCODING 186
SWIDTH 408 0
DWIDTH 4 0
BBX 5 4 0 4
BITMAP
06EA00
1F1E30
2F2E20
09E700
ENDCHAR
STARTCHAR guillemotright
ENCODING 187
SWIDTH 615 0
DWIDTH 6 0
BBX 6 4 0 0
BITMAP
5C1A80
0AD3D9
09E4CB
6B2B80
ENDCHAR
STARTCHAR onequarter
ENCODING 188
SWIDTH 955 0
DWIDTH 10 0
BBX 9 8 1 0
BITMAP
8DB0050000
19906D0000
0B71E40000
0C39B00000
003E269400
00B82D6B00
01D16FFE20
0000009500
ENDCHAR
STARTCHAR onehalf
ENCODING 189
SWIDTH 1024 0
DWIDTH 10 0
BBX 9 8 1 0
BITMAP
8DB0050000
19906D0000
0B71E40000
0C39B00000
003E26DE60
00B8082980
01D1007910
00001DFEA0
ENDCHAR
STARTCHAR threequarters
ENCODING 190
SWIDTH 1035 0
DWIDTH 10 0
BBX 10 8 0 0
BITMAP
09DE401400
064C409A00
145D43E200
2CDD3C8000
00006D1973
0001E54B88
0004B09FFE
00000000C3
ENDCHAR
STARTCHAR questiondown
ENCODING 191
SWIDTH 476 0
DWIDTH 5 0
BBX 5 10 -1 -5
BITMAP
0007D0
0008D0
000310
000D20
00AB00
09D100
4F4260
6F27B0
2DFE50
002100
ENDCHAR
STARTCHAR Agrave
ENCODING 192
SWIDTH 786 0
DWIDTH 8 0
BBX 10 13 0 0
BITMAP
0004300000
0008E40000
00005C2000
0000000000
0005BEFD40
009E846610
07F302F400
0E8005F100
4F3009D000
6F100DB000
6F204F9030
2FA5DDC5D1
06EE54ED40
ENDCHAR
STARTCHAR Aacute
ENCODING 193
SWIDTH 786 0
DWIDTH 8 0
BBX 10 13 0 0
BITMAP
0000000430
0000006F60
000003C400
0000000000
0005BEFD40
009E846610
07F302F400
0E8005F100
4F3009D000
6F100DB000
6F204F9030
2FA5DDC5D1
06EE54ED40
ENDCHAR
STARTCHAR Acircumflex
ENCODING 194
SWIDTH 786 0
DWIDTH 8 0
BBX 10 13 0 0
BITMAP
000008D100
00003EB700
0000975900
0000000000
0005BEFD40
009E846610
07F302F400
0E8005F100
4F3009D000
6F100DB000
6F204F9030
2FA5DDC5D1
06EE54ED40
ENDCHAR
STARTCHAR Atilde
ENCODING 195
SWIDTH 786 0
DWIDTH 8 0
BBX 10 12 0 0
BITMAP
00007D4A40
0000D5CB00
0000000000
0005BEFD40
009E846610
07F302F400
0E8005F100
4F3009D000
6F100DB000
6F204F9030
2FA5DDC5D1
06EE54ED40
ENDCHAR
STARTCHAR Adieresis
ENCODING 196
SWIDTH 786 0
DWIDTH 8 0
BBX 10 11 0 0
BITMAP
00008A7B00
0000111100
0005BEFD40
009E846610
07F302F400
0E8005F100
4F3009D000
6F100DB000
6F204F9030
2FA5DDC5D1
06EE54ED40
ENDCHAR
STARTCHAR Aring
ENCODING 197
SWIDTH 786 0
DWIDTH 8 0
BBX 10 13 0 0
BITMAP
00000AD300
00002D9700
00000DF300
0000011000
0005BEFD40
009E846610
07F302F400
0E8005F100
4F3009D000
6F100DB000
6F204F9030
2FA5DDC5D1
06EE54ED40
ENDCHAR
STARTCHAR AE
ENCODING 198
SWIDTH 1015 0
DWIDTH 10 0
BBX 12 9 0 0
BITMAP
0006CD5EFFA0
00AF83BA2210
07F301F60000
0E8004F30000
4F3008FFFE00
6F100CD22100
6F103FC00000
2F94DAF734A5
06DE707DFD80
ENDCHAR
STARTCHAR Ccedilla
ENCODING 199
SWIDTH 686 0
DWIDTH 7 0
BBX 9 13 0 -4
BITMAP
003BED4000
03E93AD000
0BB005E000
2F50036000
4F20000000
5F20000000
3F60000000
0BE6347C10
01AFFEB500
0029D00000
0004D00000
00DF600000
0011000000
ENDCHAR
STARTCHAR Egrave
ENCODING 200
SWIDTH 686 0
DWIDTH 7 0
BBX 9 13 0 0
BITMAP
0051000000
00CD200000
0007B00000
0000000000
006CFD5000
05F738E000
0AC004F100
08E3028000
02DFB00000
3E93100000
9D00000000
7F73347B10
07DFFDB500
ENDCHAR
STARTCHAR Eacute
ENCODING 201
SWIDTH 686 0
DWIDTH 7 0
BBX 9 13 0 0
BITMAP
0000005100
000009F300
00007A2000
0000000000
006CFD5000
05F738E000
0AC004F100
08E3028000
02DFB00000
3E93100000
9D00000000
7F73347B10
07DFFDB500
ENDCHAR
STARTCHAR Ecircumflex
ENCODING 202
SWIDTH 686 0
DWIDTH 7 0
BBX 9 13 0 0
BITMAP
0000BB0000
0007CE3000
000D395000
0000000000
006CFD5000
05F738E000
0AC004F100
08E3028000
02DFB00000
3E93100000
9D00000000
7F73347B10
07DFFDB500
ENDCHAR
STARTCHAR Edieresis
ENCODING 203
SWIDTH 686 0
DWIDTH 7 0
BBX 9 11 0 0
BITMAP
000C6A7000
0001010000
006CFD5000
05F738E000
0AC004F100
08E3028000
02DFB00000
3E93100000
9D00000000
7F73347B10
07DFFDB500
ENDCHAR
STARTCHAR Igrave
ENCODING 204
SWIDTH 495 0
DWIDTH 5 0
BBX 7 13 -1 0
BITMAP
01600000
02EA0000
00298000
00000000
00CFFF60
001AD200
000BB000
000D8000
000F6000
002F4000
004F2000
018F2000
1EFFF400
ENDCHAR
STARTCHAR Iacute
ENCODING 205
SWIDTH 495 0
DWIDTH 5 0
BBX 7 13 -1 0
BITMAP
00000160
00001CD0
0000B710
00000000
00CFFF60
001AD200
000BB000
000D8000
000F6000
002F4000
004F2000
018F2000
1EFFF400
ENDCHAR
STARTCHAR Icircumflex
ENCODING 206
SWIDTH 495 0
DWIDTH 5 0
BBX 7 13 -1 0
BITMAP
0002D700
000BBE00
002D1D20
00000000
00CFFF60
001AD200
000BB000
000D8000
000F6000
002F4000
004F2000
018F2000
1EFFF400
ENDCHAR
STARTCHAR Idieresis
ENCODING 207
SWIDTH 495 0
DWIDTH 5 0
BBX 7 11 -1 0
BITMAP
002E3E30
00010100
00CFFF60
001AD200
000BB000
000D8000
000F6000
002F4000
004F2000
018F2000
1EFFF400
ENDCHAR
STARTCHAR Eth
ENCODING 208
SWIDTH 821 0
DWIDTH 8 0
BBX 8 9 0 0
BITMAP
006EFC50
00B939F5
01F500BC
04F2007F
AFFFD07E
1CB210BC
0D8003F6
0F737EA0
1DFEC600
ENDCHAR
STARTCHAR Ntilde
ENCODING 209
SWIDTH 884 0
DWIDTH 9 0
BBX 11 12 0 0
BITMAP
0001CA3C0000
000697E60000
000000000000
1AE71AEB0000
B7AAA66F4000
50AC803F3000
00BF106F1000
00DB009D0000
01F700CA0000
03F400E80200
05F200DA4D10
04D0006ED400
ENDCHAR
STARTCHAR Ograve
ENCODING 210
SWIDTH 816 0
DWIDTH 8 0
BBX 8 13 0 0
BITMAP
00420000
00AE3000
0006C100
00000000
003BED70
03E936F6
0BB000AC
2F50008E
4F20008E
5F2000BB
3F5002F5
0CD44CB0
02BED800
ENDCHAR
STARTCHAR Oacute
ENCODING 211
SWIDTH 816 0
DWIDTH 8 0
BBX 8 13 0 0
BITMAP
00000042
000007F5
00005B30
00000000
003BED70
03E936F6
0BB000AC
2F50008E
4F20008E
5F2000BB
3F5002F5
0CD44CB0
02BED800
ENDCHAR
STARTCHAR Ocircumflex
ENCODING 212
SWIDTH 816 0
DWIDTH 8 0
BBX 8 13 0 0
BITMAP
00009D10
0005EC50
000B5780
00000000
003BED70
03E936F6
0BB000AC
2F50008E
4F20008E
5F2000BB
3F5002F5
0CD44CB0
02BED800
ENDCHAR
STARTCHAR Otilde
ENCODING 213
SWIDTH 816 0
DWIDTH 8 0
BBX 8 12 0 0
BITMAP
0009D3B2
001D5DA0
00000000
003BED70
03E936F6
0BB000AC
2F50008E
4F20008E
5F2000BB
3F5002F5
0CD44CB0
02BED800
ENDCHAR
STARTCHAR Odieresis
ENCODING 214
SWIDTH 816 0
DWIDTH 8 0
BBX 8 11 0 0
BITMAP
000988A0
00010110
003BED70
03E936F6
0BB000AC
2F50008E
4F20008E
5F2000BB
3F5002F5
0CD44CB0
02BED800
ENDCHAR
STARTCHAR multiply
ENCODING 215
SWIDTH 700 0
DWIDTH 7 0
BBX 5 5 1 1
BITMAP
5B03D0
2EAE60
07F900
4EAE30
B50A70
ENDCHAR
STARTCHAR Oslash
ENCODING 216
SWIDTH 816 0
DWIDTH 8 0
BBX 8 11 0 -1
BITMAP
00000D10
003BEF70
03E99CF6
0BB0B5BC
2F50E18E
4F23D08E
5F2790BB
3F4B52F5
0CCE5CB0
02CFD800
00680000
ENDCHAR
STARTCHAR Ugrave
ENCODING 217
SWIDTH 890 0
DWIDTH 9 0
BBX 11 13 0 0
BITMAP
001500000000
003E90000000
0002A7000000
000000000000
1AE9000D3000
AAAE003F4000
808D005F2000
00BB008F0000
00E700CD0000
02F403FB0000
04F20AC90210
05F8A8CD7D10
01CE905ED400
ENDCHAR
STARTCHAR Uacute
ENCODING 218
SWIDTH 890 0
DWIDTH 9 0
BBX 11 13 0 0
BITMAP
000000150000
000002DC0000
00000B700000
000000000000
1AE9000D3000
AAAE003F4000
808D005F2000
00BB008F0000
00E700CD0000
02F403FB0000
04F20AC90210
05F8A8CD7D10
01CE905ED400
ENDCHAR
STARTCHAR Ucircumflex
ENCODING 219
SWIDTH 890 0
DWIDTH 9 0
BBX 11 13 0 0
BITMAP
00003E600000
0000CBD00000
0003C1D10000
000000000000
1AE9000D3000
AAAE003F4000
808D005F2000
00BB008F0000
00E700CD0000
02F403FB0000
04F20AC90210
05F8A8CD7D10
01CE905ED400
ENDCHAR
STARTCHAR Udieresis
ENCODING 220
SWIDTH 890 0
DWIDTH 9 0
BBX 11 11 0 0
BITMAP
0002E3E30000
000010100000
1AE9000D3000
AAAE003F4000
808D005F2000
00BB008F0000
00E700CD0000
02F403FB0000
04F20AC90210
05F8A8CD7D10
01CE905ED400
ENDCHAR
STARTCHAR Yacute
ENCODING 221
SWIDTH 851 0
DWIDTH 9 0
BBX 10 17 0 -4
BITMAP
0000001600
000001CE10
00000A8100
0000000000
1AE8000D40
A89E002F50
708D004F30
00BB008F10
00E800CE00
01F604FC00
01F72CBA00
009FE7DDC7
0004B9F820
002D23F100
008B1BB000
005FFC2000
0001100000
ENDCHAR
STARTCHAR Thorn
ENCODING 222
SWIDTH 776 0
DWIDTH 8 0
BBX 8 12 0 -2
BITMAP
0003E100
0006F000
002BFE91
03DDB5F9
0D4D80BC
4D0F60D9
7A6F9BE2
88AFC920
797E0000
5CAC0000
0CF70000
00300000
ENDCHAR
STARTCHAR germandbls
ENCODING 223
SWIDTH 596 0
DWIDTH 6 0
BBX 8 11 0 -2
BITMAP
008EC300
07D4BA00
0E40B900
3F1AC100
5D4F2000
7C2FA520
7B8CEDD2
8BE6AB00
8B7ED300
8B000000
79000000
ENDCHAR
STARTCHAR agrave
ENCODING 224
SWIDTH 470 0
DWIDTH 5 0
BBX 6 10 0 0
BITMAP
042000
09A000
02E100
006500
000000
05DA20
3F6E40
8B2F12
9B8F5C
4E9AD2
ENDCHAR
STARTCHAR aacute
ENCODING 225
SWIDTH 470 0
DWIDTH 5 0
BBX 6 10 0 0
BITMAP
000150
0007C0
000D40
002900
000000
05DA20
3F6E40
8B2F12
9B8F5C
4E9AD2
ENDCHAR
STARTCHAR acircumflex
ENCODING 226
SWIDTH 470 0
DWIDTH 5 0
BBX 6 10 0 0
BITMAP
001600
008E50
02E890
0874A0
000000
05DA20
3F6E40
8B2F12
9B8F5C
4E9AD2
ENDCHAR
STARTCHAR atilde
ENCODING 227
SWIDTH 470 0
DWIDTH 5 0
BBX 6 8 0 0
BITMAP
06E594
0C4CB0
000000
05DA20
3F6E40
8B2F12
9B8F5C
4E9AD2
ENDCHAR
STARTCHAR adieresis
ENCODING 228
SWIDTH 470 0
DWIDTH 5 0
BBX 6 7 0 0
BITMAP
06B5C0
011010
05DA20
3F6E40
8B2F12
9B8F5C
4E9AD2
ENDCHAR
STARTCHAR aring
ENCODING 229
SWIDTH 470 0
DWIDTH 5 0
BBX 6 9 0 0
BITMAP
009E40
01E880
00CF40
000100
05DA20
3F6E40
8B2F12
9B8F5C
4E9AD2
ENDCHAR
STARTCHAR ae
ENCODING 230
SWIDTH 653 0
DWIDTH 7 0
BBX 8 5 0 0
BITMAP
05DCCE30
3F6C8B60
8A1F9C13
9B8FB4AA
3EB5DE91
ENDCHAR
STARTCHAR ccedilla
ENCODING 231
SWIDTH 368 0
DWIDTH 4 0
BBX 5 9 0 -4
BITMAP
09E600
6E7A00
AA2220
8C15C0
1EFA10
02B500
00A500
5FC100
020000
ENDCHAR
STARTCHAR egrave
ENCODING 232
SWIDTH 393 0
DWIDTH 4 0
BBX 6 10 0 0
BITMAP
060000
1F4000
08A000
00B000
000000
09E800
6D6C00
ACC621
8E56E1
1BEC40
ENDCHAR
STARTCHAR eacute
ENCODING 233
SWIDTH 393 0
DWIDTH 4 0
BBX 6 10 0 0
BITMAP
000420
000D60
004D00
008300
000000
09E800
6D6C00
ACC621
8E56E1
1BEC40
ENDCHAR
STARTCHAR ecircumflex
ENCODING 234
SWIDTH 393 0
DWIDTH 4 0
BBX 6 10 0 0
BITMAP
003400
01DD00
088D20
0D2A40
000000
09E800
6D6C00
ACC621
8E56E1
1BEC40
ENDCHAR
STARTCHAR edieresis
ENCODING 235
SWIDTH 393 0
DWIDTH 4 0
BBX 6 7 0 0
BITMAP
0C5B60
010100
09E800
6D6C00
ACC621
8E56E1
1BEC40
ENDCHAR
STARTCHAR igrave
ENCODING 236
SWIDTH 246 0
DWIDTH 2 0
BBX 5 10 -1 0
BITMAP
060000
1F4000
08A000
00B000
000000
01E100
05E000
07C030
07C790
03EB10
ENDCHAR
STARTCHAR iacute
ENCODING 237
SWIDTH 246 0
DWIDTH 2 0
BBX 4 10 0 0
BITMAP
0042
00D6
04D0
0830
0000
1E10
5E00
7C03
7C79
3EB1
ENDCHAR
STARTCHAR icircumflex
ENCODING 238
SWIDTH 246 0
DWIDTH 2 0
BBX 4 10 0 0
BITMAP
0340
1DE0
89D2
D2A4
0000
1E10
5E00
7C03
7C79
3EB1
ENDCHAR
STARTCHAR idieresis
ENCODING 239
SWIDTH 246 0
DWIDTH 2 0
BBX 4 7 0 0
BITMAP
C5B6
1010
1E10
5E00
7C03
7C79
3EB1
ENDCHAR
STARTCHAR eth
ENCODING 240
SWIDTH 451 0
DWIDTH 5 0
BBX 6 10 0 0
BITMAP
06B030
01EAE1
02CF40
09AF30
000C60
0AEE80
6D3D80
A90D60
8C5F10
1CE600
ENDCHAR
STARTCHAR ntilde
ENCODING 241
SWIDTH 496 0
DWIDTH 5 0
BBX 7 8 0 0
BITMAP
05E68500
0B5BC100
00000000
1E3C7000
5DCE8000
7E8D5210
7F2F6D20
5B0CD400
ENDCHAR
STARTCHAR ograve
ENCODING 242
SWIDTH 451 0
DWIDTH 5 0
BBX 6 10 0 0
BITMAP
050000
1F3000
089000
00B000
000000
0AE900
6D8F32
A93FFB
8C4F30
1CE600
ENDCHAR
STARTCHAR oacute
ENCODING 243
SWIDTH 451 0
DWIDTH 5 0
BBX 6 10 0 0
BITMAP
000420
000E50
005C00
009300
000000
0AE900
6D8F32
A93FFB
8C4F30
1CE600
ENDCHAR
STARTCHAR ocircumflex
ENCODING 244
SWIDTH 451 0
DWIDTH 5 0
BBX 6 10 0 0
BITMAP
003400
01DD00
098E10
0D1B30
000000
0AE900
6D8F32
A93FFB
8C4F30
1CE600
ENDCHAR
STARTCHAR otilde
ENCODING 245
SWIDTH 451 0
DWIDTH 5 0
BBX 6 8 0 0
BITMAP
1CB3C0
597E60
000000
0AE900
6D8F32
A93FFB
8C4F30
1CE600
ENDCHAR
STARTCHAR odieresis
ENCODING 246
SWIDTH 451 0
DWIDTH 5 0
BBX 6 7 0 0
BITMAP
0D4C60
010100
0AE900
6D8F32
A93FFB
8C4F30
1CE600
ENDCHAR
STARTCHAR divide
ENCODING 247
SWIDTH 700 0
DWIDTH 7 0
BBX 7 6 0 0
BITMAP
000D6000
00010000
1EFFFF30
02222200
00010000
006D0000
ENDCHAR
STARTCHAR oslash
ENCODING 248
SWIDTH 459 0
DWIDTH 5 0
BBX 6 9 0 -2
BITMAP
002200
007400
0AFA00
6DCE63
A9ABFB
8CBE30
2DE700
074000
041000
ENDCHAR
STARTCHAR ugrave
ENCODING 249
SWIDTH 462 0
DWIDTH 5 0
BBX 6 10 0 0
BITMAP
041000
0B8000
03E000
008300
000000
1D1A50
5E1F30
7B6F03
7DDE6B
3E6EC1
ENDCHAR
STARTCHAR uacute
ENCODING 250
SWIDTH 462 0
DWIDTH 5 0
BBX 6 10 0 0
BITMAP
000240
0009A0
001E30
004700
000000
1D1A50
5E1F30
7B6F03
7DDE6B
3E6EC1
ENDCHAR
STARTCHAR ucircumflex
ENCODING 251
SWIDTH 462 0
DWIDTH 5 0
BBX 6 10 0 0
BITMAP
001600
00BE30
04D960
0A5680
000000
1D1A50
5E1F30
7B6F03
7DDE6B
3E6EC1
ENDCHAR
STARTCHAR udieresis
ENCODING 252
SWIDTH 462 0
DWIDTH 5 0
BBX 6 7 0 0
BITMAP
0897A0
011110
1D1A50
5E1F30
7B6F03
7DDE6B
3E6EC1
ENDCHAR
STARTCHAR yacute
ENCODING 253
SWIDTH 479 0
DWIDTH 5 0
BBX 6 15 0 -5
BITMAP
000240
0009A0
001E30
004700
000000
1D1A50
5E1F30
7B6F13
7DDE9B
3EAF80
03D900
2CC600
B4E200
E7B000
BD3000
ENDCHAR
STARTCHAR thorn
ENCODING 254
SWIDTH 508 0
DWIDTH 5 0
BBX 7 13 0 -4
BITMAP
03300000
0C800000
0E500000
2F200000
4E6E6000
6EAAA000
8F2A8220
9C5F6C30
AFDCE500
B8000000
B7000000
B7000000
42000000
ENDCHAR
STARTCHAR ydieresis
ENCODING 255
SWIDTH 479 0
DWIDTH 5 0
BBX 6 12 0 -5
BITMAP
0897A0
011110
1D1A50
5E1F30
7B6F13
7DDE9B
3EAF80
03D900
2CC600
B4E200
E7B000
BD3000
ENDCHAR
STARTCHAR Amacron
ENCODING 256
SWIDTH 786 0
DWIDTH 8 0
BBX 10 11 0 0
BITMAP
00007FF800
0000122100
0005BEFD40
009E846610
07F302F400
0E8005F100
4F3009D000
6F100DB000
6F204F9030
2FA5DDC5D1
06EE54ED40
ENDCHAR
STARTCHAR amacron
ENCODING 257
SWIDTH 470 0
DWIDTH 5 0
BBX 6 7 0 0
BITMAP
06FF90
012210
05DA20
3F6E40
8B2F12
9B8F5C
4E9AD2
ENDCHAR
STARTCHAR Abreve
ENCODING 258
SWIDTH 786 0
DWIDTH 8 0
BBX 10 12 0 0
BITMAP
0000A41A20
00007FFA00
0000011000
0005BEFD40
009E846610
07F302F400
0E8005F100
4F3009D000
6F100DB000
6F204F9030
2FA5DDC5D1
06EE54ED40
ENDCHAR
STARTCHAR abreve
ENCODING 259
SWIDTH 470 0
DWIDTH 5 0
BBX 6 9 0 0
BITMAP
030021
0B82E2
05FF90
001100
05DA20
3F6E40
8B2F12
9B8F5C
4E9AD2
ENDCHAR
STARTCHAR Aogonek
ENCODING 260
SWIDTH 786 0
DWIDTH 8 0
BBX 10 13 0 -4
BITMAP
0005BEFD40
009E736510
07E302F400
0E8005F100
4F3009D000
6F100DB000
6F104F9020
2F93CDC4D1
06EE64FF50
000002E400
000005C000
000001DE30
0000000100
ENDCHAR
STARTCHAR aogonek
ENCODING 261
SWIDTH 470 0
DWIDTH 5 0
BBX 6 8 0 -3
BITMAP
05DA20
3F6E40
8B2F12
9B8F5D
4E9DE4
004D20
007A00
002DD1
ENDCHAR
STARTCHAR Cacute
ENCODING 262
SWIDTH 686 0
DWIDTH 7 0
BBX 9 13 0 0
BITMAP
0000005200
000007F500
00005B3000
0000000000
003BED4000
03E93AD000
0CB005E000
2F50036000
4F20000000
5F20000000
2F60000000
0AE6347C10
008DFEB500
ENDCHAR
STARTCHAR cacute
ENCODING 263
SWIDTH 368 0
DWIDTH 4 0
BBX 5 10 0 0
BITMAP
000410
000E50
005C00
009200
000000
09E600
6E7900
AA1230
9C37C0
2CEB20
ENDCHAR
STARTCHAR Ccircumflex
ENCODING 264
SWIDTH 686 0
DWIDTH 7 0
BBX 9 13 0 0
BITMAP
00009D0000
0005EC5000
000B577000
0000000000
003BED4000
03E93AD000
0CB005E000
2F50036000
4F20000000
5F20000000
2F60000000
0AE6347C10
008DFEB500
ENDCHAR
STARTCHAR ccircumflex
ENCODING 265
SWIDTH 368 0
DWIDTH 4 0
BBX 5 10 0 0
BITMAP
003400
01DD00
098E10
0D1B30
000000
09E600
6E7900
AA1230
9C37C0
2CEB20
ENDCHAR
STARTCHAR Cdotaccent
ENCODING 266
SWIDTH 686 0
DWIDTH 7 0
BBX 9 11 0 0
BITMAP
0000BA0000
0000110000
003BED4000
03E93AD000
0CB005E000
2F50036000
4F20000000
5F20000000
2F60000000
0AE6347C10
008DFEB500
ENDCHAR
STARTCHAR cdotaccent
ENCODING 267
SWIDTH 368 0
DWIDTH 4 0
BBX 5 7 0 0
BITMAP
01E600
001000
09E600
6E7900
AA1230
9C37C0
2CEB20
ENDCHAR
STARTCHAR Ccaron
ENCODING 268
SWIDTH 686 0
DWIDTH 7 0
BBX 9 13 0 0
BITMAP
0003315000
0005BA7000
0000BB0000
0000000000
003BED4000
03E93AD000
0CB005E000
2F50036000
4F20000000
5F20000000
2F60000000
0AE6347C10
008DFEB500
ENDCHAR
STARTCHAR ccaron
ENCODING 269
SWIDTH 368 0
DWIDTH 4 0
BBX 5 10 0 0
BITMAP
042150
088970
05BD10
01E500
000000
09E600
6E7900
AA1230
9C37C0
2CEB20
ENDCHAR
STARTCHAR Dcaron
ENCODING 270
SWIDTH 836 0
DWIDTH 8 0
BBX 9 13 0 0
BITMAP
0006033000
000B6D2000
0003E60000
0000000000
05BEEC6000
7D7348F700
10A5009E00
02F4005F20
05F1006F10
08D0009E00
0BB002E800
0DA36DC100
0AEEC70000
ENDCHAR
STARTCHAR dcaron
ENCODING 271
SWIDTH 470 0
DWIDTH 5 0
BBX 7 10 0 0
BITMAP
00000120
0002E990
0005E940
0007C000
00099000
05DF6000
3F6E4000
8B2F1200
9B8F5C00
4E9AD200
ENDCHAR
STARTCHAR Dcroat
ENCODING 272
SWIDTH 821 0
DWIDTH 8 0
BBX 8 9 0 0
BITMAP
006EFC50
00B939F5
01F500BC
04F2007F
AFFFD07E
1CB210BC
0D8003F6
0F737EA0
1DFEC600
ENDCHAR
STARTCHAR dcroat
ENCODING 273
SWIDTH 470 0
DWIDTH 5 0
BBX 6 9 0 0
BITMAP
0002E1
0005F0
05FFF5
002AA0
05DE70
3F6E40
8B2F22
9B8F5C
4E9AD2
ENDCHAR
STARTCHAR Emacron
ENCODING 274
SWIDTH 686 0
DWIDTH 7 0
BBX 9 11 0 0
BITMAP
000BFF4000
0001220000
006CFD5000
05F738E000
0AC004F100
08E3028000
02DFB00000
3E93100000
9D00000000
7F73347B10
07DFFDB500
ENDCHAR
STARTCHAR emacron
ENCODING 275
SWIDTH 393 0
DWIDTH 4 0
BBX 6 7 0 0
BITMAP
0CFF30
022200
09E800
6D6C00
ACC621
8E56E1
1BEC40
ENDCHAR
STARTCHAR Ebreve
ENCODING 276
SWIDTH 686 0
DWIDTH 7 0
BBX 9 12 0 0
BITMAP
001B13A000
000BFF6000
0000100000
006CFD5000
05F738E000
0AC004F100
08E3028000
02DFB00000
3E93100000
9D00000000
7F73347B10
07DFFDB500
ENDCHAR
STARTCHAR ebreve
ENCODING 277
SWIDTH 393 0
DWIDTH 4 0
BBX 6 9 0 0
BITMAP
030030
3E27B0
0AFE40
002100
09E800
6D6C00
ACC621
8E56E1
1BEC40
ENDCHAR
STARTCHAR Edotaccent
ENCODING 278
SWIDTH 686 0
DWIDTH 7 0
BBX 9 11 0 0
BITMAP
0000D80000
0000100000
006CFD5000
05F738E000
0AC004F100
08E3028000
02DFB00000
3E93100000
9D00000000
7F73347B10
07DFFDB500
ENDCHAR
STARTCHAR edotaccent
ENCODING 279
SWIDTH 393 0
DWIDTH 4 0
BBX 6 7 0 0
BITMAP
01D700
001000
09E800
6D6C00
ACC621
8E56E1
1BEC40
ENDCHAR
STARTCHAR Eogonek
ENCODING 280
SWIDTH 686 0
DWIDTH 7 0
BBX 9 13 0 -4
BITMAP
006CFD5000
05F738E000
0AC004F100
08E3028000
02DFB00000
3E93100000
9D00000000
8F73347B10
08DFFFE800
0007B20000
000A700000
0005FD0000
0000110000
ENDCHAR
STARTCHAR eogonek
ENCODING 281
SWIDTH 393 0
DWIDTH 4 0
BBX 6 8 0 -3
BITMAP
09E800
6D6D00
9BB810
9E62D2
3FDE70
04D200
06A000
02DD10
ENDCHAR
STARTCHAR Ecaron
ENCODING 282
SWIDTH 686 0
DWIDTH 7 0
BBX 9 13 0 0
BITMAP
0004224000
00079C5000
0001D90000
0000000000
006CFD5000
05F738E000
0AC004F100
08E3028000
02DFB00000
3E93100000
9D00000000
7F73347B10
07DFFDB500
ENDCHAR
STARTCHAR ecaron
ENCODING 283
SWIDTH 393 0
DWIDTH 4 0
BBX 6 10 0 0
BITMAP
033150
079880
04CD10
01D600
000000
09E800
6D6C00
ACC621
8E56E1
1BEC40
ENDCHAR
STARTCHAR Gcircumflex
ENCODING 284
SWIDTH 811 0
DWIDTH 8 0
BBX 10 18 0 -5
BITMAP
00007E2000
0003EB7000
000975A000
0000000000
002AEE7000
03EA36F300
0BB001F300
2F50007000
4F20000000
5F204FF700
2F6002D610
0AE634E9D2
018DFDFC20
00000AE100
0000ABB000
0005997000
000A8E2000
0006E70000
ENDCHAR
STARTCHAR gcircumflex
ENCODING 285
SWIDTH 479 0
DWIDTH 5 0
BBX 6 15 0 -5
BITMAP
001600
008E50
02E890
0874A0
000000
05DA20
3F6E40
8B2F13
9B8FAB
4EDF90
03E900
2CC600
A5E200
E7B000
BD3000
ENDCHAR
STARTCHAR Gbreve
ENCODING 286
SWIDTH 811 0
DWIDTH 8 0
BBX 10 17 0 -5
BITMAP
000A41A200
0007FFA000
0000110000
002AEE7000
03EA36F300
0BB001F300
2F50007000
4F20000000
5F204FF700
2F6002D610
0AE634E9D2
018DFDFC20
00000AE100
0000ABB000
0005997000
000A8E2000
0006E70000
ENDCHAR
STARTCHAR gbreve
ENCODING 287
SWIDTH 479 0
DWIDTH 5 0
BBX 6 14 0 -5
BITMAP
030021
0B82E2
05FF90
001100
05DA20
3F6E40
8B2F13
9B8FAB
4EDF90
03E900
2CC600
A5E200
E7B000
BD3000
ENDCHAR
STARTCHAR Gdotaccent
ENCODING 288
SWIDTH 811 0
DWIDTH 8 0
BBX 10 16 0 -5
BITMAP
00009D0000
0000110000
002AEE7000
03EA36F300
0BB001F300
2F50007000
4F20000000
5F204FF700
2F6002D610
0AE634E9D2
018DFDFC20
00000AE100
0000ABB000
0005997000
000A8E2000
0006E70000
ENDCHAR
STARTCHAR gdotaccent
ENCODING 289
SWIDTH 479 0
DWIDTH 5 0
BBX 6 12 0 -5
BITMAP
008D00
001100
05DA20
3F6E40
8B2F13
9B8FAB
4EDF90
03E900
2CC600
A5E200
E7B000
BD3000
ENDCHAR
STARTCHAR uni0122
ENCODING 290
SWIDTH 811 0
DWIDTH 8 0
BBX 10 14 0 -5
BITMAP
002AEE7000
03EA36F300
0BB001F300
2F50007000
4F20000000
5F204FF700
2F6002D610
0AE634E9D2
018DFDFC20
00100AE100
00D3ABB000
00D6997000
000A8E2000
0006E70000
ENDCHAR
STARTCHAR uni0123
ENCODING 291
SWIDTH 479 0
DWIDTH 5 0
BBX 6 14 0 -5
BITMAP
001B00
004D00
003800
000000
05DA20
3F6E40
8B2F13
9B8FAB
4EDF90
03E900
2CC600
A5E200
E7B000
BD3000
ENDCHAR
STARTCHAR Hcircumflex
ENCODING 292
SWIDTH 873 0
DWIDTH 9 0
BBX 10 13 0 0
BITMAP
00003E6000
0000CBC000
0004C1D000
00000008E3
2BE8004E87
D59D00A866
307D00E5C2
009B03FD80
0DFFFEF500
02F716E000
03F305F004
06F002F75C
06A0007EC2
ENDCHAR
STARTCHAR hcircumflex
ENCODING 293
SWIDTH 502 0
DWIDTH 5 0
BBX 7 14 0 0
BITMAP
003E6000
00CBC000
04C1D000
00000000
00AD1000
05CC4000
0B6C2000
0E5C0000
3FB30000
5F9C8000
6DBE9000
7E8C6210
7F2E7C30
6B0BE500
ENDCHAR
STARTCHAR Hbar
ENCODING 294
SWIDTH 856 0
DWIDTH 9 0
BBX 9 9 0 0
BITMAP
00D5005E00
1EFFFFFFA0
05F422BB10
05F100C900
5FFFFFFF50
0BC223F600
0C9003F300
0E7006F100
0D4005C000
ENDCHAR
STARTCHAR hbar
ENCODING 295
SWIDTH 502 0
DWIDTH 5 0
BBX 7 9 0 0
BITMAP
04D00000
08C00000
5FFF5000
0E720000
2F4C8000
4EBE9000
6F8C6210
6F2E7C30
4C0BE500
ENDCHAR
STARTCHAR Itilde
ENCODING 296
SWIDTH 495 0
DWIDTH 5 0
BBX 7 12 -1 0
BITMAP
002D94A0
00878E40
00000000
00CFFF60
001AD200
000BB000
000D8000
000F6000
002F4000
004F2000
018F2000
1EFFF400
ENDCHAR
STARTCHAR itilde
ENCODING 297
SWIDTH 246 0
DWIDTH 2 0
BBX 5 8 -1 0
BITMAP
0BB3C0
4A6E60
000000
01E100
05E000
07C030
07C790
03EB10
ENDCHAR
STARTCHAR Imacron
ENCODING 298
SWIDTH 495 0
DWIDTH 5 0
BBX 7 11 -1 0
BITMAP
001EFE00
00022200
00CFFF60
001AD200
000BB000
000D8000
000F6000
002F4000
004F2000
018F2000
1EFFF400
ENDCHAR
STARTCHAR imacron
ENCODING 299
SWIDTH 246 0
DWIDTH 2 0
BBX 4 7 0 0
BITMAP
CFF3
2220
1E10
5E00
7C03
7C79
3EB1
ENDCHAR
STARTCHAR Ibreve
ENCODING 300
SWIDTH 495 0
DWIDTH 5 0
BBX 7 12 -1 0
BITMAP
00591670
002DFE30
00002000
00CFFF60
001AD200
000BB000
000D8000
000F6000
002F4000
004F2000
018F2000
1EFFF400
ENDCHAR
STARTCHAR ibreve
ENCODING 301
SWIDTH 246 0
DWIDTH 2 0
BBX 5 9 -1 0
BITMAP
030030
3E27B0
0AFE40
002100
01E100
05E000
07C030
07C790
03EB10
ENDCHAR
STARTCHAR Iogonek
ENCODING 302
SWIDTH 495 0
DWIDTH 5 0
BBX 7 13 -1 -4
BITMAP
00CFFF60
001AD200
000BB000
000D8000
000F6000
002F4000
004F2000
018F2000
1EFFF400
00C40000
00E30000
00AF9000
00020000
ENDCHAR
STARTCHAR iogonek
ENCODING 303
SWIDTH 246 0
DWIDTH 2 0
BBX 4 10 0 -3
BITMAP
1D70
0100
1E10
5E00
7C01
8B4A
5FD2
5B10
A600
5EB0
ENDCHAR
STARTCHAR Idotaccent
ENCODING 304
SWIDTH 495 0
DWIDTH 5 0
BBX 7 11 -1 0
BITMAP
0003E400
00001000
00CFFF60
001AD200
000BB000
000D8000
000F6000
002F4000
004F2000
018F2000
1EFFF400
ENDCHAR
STARTCHAR dotlessi
ENCODING 305
SWIDTH 246 0
DWIDTH 2 0
BBX 4 5 0 0
BITMAP
1E10
5E00
7C03
7C79
3EB1
ENDCHAR
STARTCHAR Jcircumflex
ENCODING 308
SWIDTH 743 0
DWIDTH 7 0
BBX 8 15 0 -2
BITMAP
0002D700
000BBE00
002D1D20
00000000
03AEFEC6
1E8327F4
4F0006F0
1C1008D0
00005DB0
002CDE80
01DA1F40
06E05E00
08D2D700
03EFA000
00110000
ENDCHAR
STARTCHAR jcircumflex
ENCODING 309
SWIDTH 254 0
DWIDTH 3 0
BBX 7 15 -3 -5
BITMAP
00003400
0001DD00
00088D20
000D2A40
00000000
0002E100
0004F000
0006D020
0007CB70
0009E600
004E6000
04CF3000
0C4D0000
3CA80000
1DC10000
ENDCHAR
STARTCHAR uni0136
ENCODING 310
SWIDTH 937 0
DWIDTH 9 0
BBX 11 12 0 -3
BITMAP
05CFE900A800
2F63F803F400
5E02F40BC000
1904F4AD2000
001EFFA10000
0009D9F20000
410AA1EA0040
AA4F608F6A70
2CE9001BE900
000000000000
000088000000
000094000000
ENDCHAR
STARTCHAR uni0137
ENCODING 311
SWIDTH 525 0
DWIDTH 5 0
BBX 7 13 0 -3
BITMAP
00AD1000
05CC4000
0B6C2000
0E5B0000
3FB30000
5F8CC000
6CB6F100
7E9BA130
7F7F4B50
4C1BE800
02900000
05B00000
05700000
ENDCHAR
STARTCHAR kgreenlandic
ENCODING 312
SWIDTH 465 0
DWIDTH 5 0
BBX 6 5 0 0
BITMAP
1E4DB0
5DD6E0
7EF033
7FE56C
5B5EC2
ENDCHAR
STARTCHAR Lacute
ENCODING 313
SWIDTH 673 0
DWIDTH 7 0
BBX 9 13 -1 0
BITMAP
0000000340
0000005E80
000002C500
0000000000
00018DE800
000AD45F30
002F500F40
005F200700
006F000000
007D000000
019C000030
3EFFB636C0
3EC58DFC20
ENDCHAR
STARTCHAR lacute
ENCODING 314
SWIDTH 326 0
DWIDTH 3 0
BBX 6 14 0 0
BITMAP
000025
0002DB
000C60
000000
00AD10
05BC40
0B6B30
0F2D10
3F4B00
5DA400
6EC000
6F3020
4E4A60
0AE800
ENDCHAR
STARTCHAR uni013B
ENCODING 315
SWIDTH 673 0
DWIDTH 7 0
BBX 9 12 -1 -3
BITMAP
00018DE800
000AD45F30
002F500F40
005F200700
006F000000
007D000000
019C000030
3EFFB636C0
3EC58DFC20
0000100000
0006A00000
0006700000
ENDCHAR
STARTCHAR uni013C
ENCODING 316
SWIDTH 326 0
DWIDTH 3 0
BBX 5 13 0 -3
BITMAP
00AD10
05BC40
0B6B30
0F2D10
3F4B00
5DA400
6EC000
6F3020
4E4A60
0AE800
093000
0D3000
0B0000
ENDCHAR
STARTCHAR Lcaron
ENCODING 317
SWIDTH 673 0
DWIDTH 7 0
BBX 10 9 -1 0
BITMAP
00018DE803
000AD45F7D
002F500F88
005F200700
006F000000
007D000000
019C000030
3EFFB636C0
3EC58DFC20
ENDCHAR
STARTCHAR lcaron
ENCODING 318
SWIDTH 237 0
DWIDTH 2 0
BBX 5 10 0 0
BITMAP
000210
06BD40
0AAC00
0D7000
1F4000
4F1000
6D0000
8B0300
8B8700
4EA000
ENDCHAR
STARTCHAR Ldot
ENCODING 319
SWIDTH 673 0
DWIDTH 7 0
BBX 9 9 -1 0
BITMAP
00018DE800
000AD45F30
002F500F40
005F200700
006F0D8000
007D010000
019C000030
3EFFB636C0
3EC58DFC20
ENDCHAR
STARTCHAR ldot
ENCODING 320
SWIDTH 363 0
DWIDTH 4 0
BBX 5 10 0 0
BITMAP
02E100
06E000
0AA000
0D7000
1F7800
3F7C00
6D0000
7C0030
6E37B0
1BEB10
ENDCHAR
STARTCHAR Lslash
ENCODING 321
SWIDTH 673 0
DWIDTH 7 0
BBX 9 11 -1 0
BITMAP
00028DEE60
0006953210
00018DE800
0009D45F30
002F500F40
005F100810
006F000000
007D000000
019C000030
3EFFB636C0
3EC58DFC20
ENDCHAR
STARTCHAR lslash
ENCODING 322
SWIDTH 326 0
DWIDTH 3 0
BBX 6 11 0 0
BITMAP
018DEA
09B532
01AD10
07BC40
0D4B30
3F1D00
5D7700
6DC100
6F4020
3E4A60
0AE800
ENDCHAR
STARTCHAR Nacute
ENCODING 323
SWIDTH 884 0
DWIDTH 9 0
BBX 11 13 0 0
BITMAP
000000060000
000001BE1000
000009810000
000000000000
1AE71AEB0000
B7AAA66F4000
50AC803F3000
00BF106F1000
00DB009D0000
01F700CA0000
03F400E80200
05F200DA4D10
04D0006ED400
ENDCHAR
STARTCHAR nacute
ENCODING 324
SWIDTH 496 0
DWIDTH 5 0
BBX 7 10 0 0
BITMAP
00015000
0006D000
000C5000
002A0000
00000000
1E3C7000
5DCE8000
7E8D5210
7F2F6D20
5B0CD400
ENDCHAR
STARTCHAR uni0145
ENCODING 325
SWIDTH 884 0
DWIDTH 9 0
BBX 11 12 0 -3
BITMAP
1AE71AEB0000
B7AAA66F4000
50AC803F3000
00BF106F1000
00DB009D0000
01F700CA0000
03F400E80200
05F200DA4D10
04D0006ED400
000010000000
0005C0000000
000580000000
ENDCHAR
STARTCHAR uni0146
ENCODING 326
SWIDTH 496 0
DWIDTH 5 0
BBX 7 8 0 -3
BITMAP
1E3C7000
5DCE8000
7E8D5210
7F2F6D20
5B0CD400
02900000
05B00000
05700000
ENDCHAR
STARTCHAR Ncaron
ENCODING 327
SWIDTH 884 0
DWIDTH 9 0
BBX 11 13 0 0
BITMAP
000051330000
000097D30000
00002E700000
000000000000
1AE71AEB0000
B7AAA66F4000
50AC803F3000
00BF106F1000
00DB009D0000
01F700CA0000
03F400E80200
05F200DA4D10
04D0006ED400
ENDCHAR
STARTCHAR ncaron
ENCODING 328
SWIDTH 496 0
DWIDTH 5 0
BBX 7 10 0 0
BITMAP
00605100
01F2E100
00CB7000
007C1000
00000000
1E3C7000
5DCE8000
7E8D5210
7F2F6D20
5B0CD400
ENDCHAR
STARTCHAR napostrophe
ENCODING 329
SWIDTH 496 0
DWIDTH 5 0
BBX 7 9 0 0
BITMAP
A2000000
F1000000
B0000000
00000000
1E3C7000
5DCE8000
7E8D5210
7F2F6D20
5B0CD400
ENDCHAR
STARTCHAR Eng
ENCODING 330
SWIDTH 884 0
DWIDTH 9 0
BBX 11 14 0 -5
BITMAP
1AE71AEB0000
B7AAA67F3000
50AC804F3000
00BF106F1000
00DB009D0000
01F700C90000
03F400E60200
05F202F74D10
04D005EED300
000009A00000
00100D500000
04E35D000000
00AFE4000000
000110000000
ENDCHAR
STARTCHAR eng
ENCODING 331
SWIDTH 495 0
DWIDTH 5 0
BBX 7 8 0 -3
BITMAP
1E3C7000
5DCE8000
7E7D5210
7F2F5D20
5B4FD400
00890000
95D30000
5D700000
ENDCHAR
STARTCHAR Omacron
ENCODING 332
SWIDTH 816 0
DWIDTH 8 0
BBX 8 11 0 0
BITMAP
0009FF60
00012200
003BED70
03E936F6
0BB000AC
2F50008E
4F20008E
5F2000BB
3F5002F5
0CD44CB0
02BED800
ENDCHAR
STARTCHAR omacron
ENCODING 333
SWIDTH 451 0
DWIDTH 5 0
BBX 6 7 0 0
BITMAP
0DFF20
022200
0AE900
6D8F32
A93FFB
8C4F30
1CE600
ENDCHAR
STARTCHAR Obreve
ENCODING 334
SWIDTH 816 0
DWIDTH 8 0
BBX 8 12 0 0
BITMAP
000B32B1
0009FF80
00001100
003BED70
03E936F6
0BB000AC
2F50008E
4F20008E
5F2000BB
3F5002F5
0CD44CB0
02BED800
ENDCHAR
STARTCHAR obreve
ENCODING 335
SWIDTH 451 0
DWIDTH 5 0
BBX 6 9 0 0
BITMAP
030030
3E27B0
0BFE30
002100
0AE900
6D8F32
A93FFB
8C4F30
1CE600
ENDCHAR
STARTCHAR Ohungarumlaut
ENCODING 336
SWIDTH 816 0
DWIDTH 8 0
BBX 8 13 0 0
BITMAP
00005150
0001F6D0
00048750
00000000
003BED70
03E936F6
0BB000AC
2F50008E
4F20008E
5F2000BB
3F5002F5
0CD44CB0
02BED800
ENDCHAR
STARTCHAR ohungarumlaut
ENCODING 337
SWIDTH 451 0
DWIDTH 5 0
BBX 6 10 0 0
BITMAP
005160
01F7E0
05B880
083A10
000000
0AE900
6D8F32
A93FFB
8C4F30
1CE600
ENDCHAR
STARTCHAR OE
ENCODING 338
SWIDTH 1124 0
DWIDTH 11 0
BBX 13 9 0 0
BITMAP
003BEE74EFFC00
03E936FEB22100
0BB000AF700000
2F50008F400000
4F20008FFFF100
5F2000BE221000
3F5002FE000000
0CD44CDF834A60
02BEE817DFD810
ENDCHAR
STARTCHAR oe
ENCODING 339
SWIDTH 668 0
DWIDTH 7 0
BBX 8 5 0 0
BITMAP
0AE8AE50
6D4FA990
A90EAD33
8C5FC48C
1CE6CEA2
ENDCHAR
STARTCHAR Racute
ENCODING 340
SWIDTH 880 0
DWIDTH 9 0
BBX 10 13 0 0
BITMAP
0000002400
000004E900
00001D5000
0000000000
002AEFC400
02E843CE00
0B76D07F10
2E0AB3D900
5B6FFE6000
6A0F8E9000
6B2F47F104
2E7F21E94D
06EB005EC3
ENDCHAR
STARTCHAR racute
ENCODING 341
SWIDTH 455 0
DWIDTH 5 0
BBX 6 10 0 0
BITMAP
000240
000AA0
001E20
005600
000000
1E4D70
5DCD85
7F6AF9
7F1020
5B0000
ENDCHAR
STARTCHAR uni0156
ENCODING 342
SWIDTH 880 0
DWIDTH 9 0
BBX 10 12 0 -3
BITMAP
002AEFC400
02E843CE00
0B76D07F10
2E0AB3D900
5B6FFE6000
6A0F8E9000
6B2F47F104
2E7F21E94D
06EB005EC3
0000100000
0000A60000
0000A30000
ENDCHAR
STARTCHAR uni0157
ENCODING 343
SWIDTH 455 0
DWIDTH 5 0
BBX 6 8 0 -3
BITMAP
1E4D70
5DCD85
7F6AF9
7F1020
5B0000
570000
980000
830000
ENDCHAR
STARTCHAR Rcaron
ENCODING 344
SWIDTH 880 0
DWIDTH 9 0
BBX 10 13 0 0
BITMAP
0001506100
0001E6C000
00007D2000
0000000000
002AEFC400
02E843CE00
0B76D07F10
2E0AB3D900
5B6FFE6000
6A0F8E9000
6B2F47F104
2E7F21E94D
06EB005EC3
ENDCHAR
STARTCHAR rcaron
ENCODING 345
SWIDTH 455 0
DWIDTH 5 0
BBX 6 10 0 0
BITMAP
014060
04D5C0
01EC40
00AA00
000000
1E4D70
5DCD85
7F6AF9
7F1020
5B0000
ENDCHAR
STARTCHAR Sacute
ENCODING 346
SWIDTH 693 0
DWIDTH 7 0
BBX 7 13 0 0
BITMAP
00000250
00002DB0
0000C600
00000000
019EEB20
0AC43AC0
0E8006D0
0BE50130
01BFD500
1203AF40
9A000E80
8D426F40
19EEC600
ENDCHAR
STARTCHAR sacute
ENCODING 347
SWIDTH 427 0
DWIDTH 4 0
BBX 6 10 0 0
BITMAP
000420
000E60
005C00
008300
000000
02E100
09E000
3CD814
C7BEC6
38FF90
ENDCHAR
STARTCHAR Scircumflex
ENCODING 348
SWIDTH 693 0
DWIDTH 7 0
BBX 7 13 0 0
BITMAP
0004E500
000DBC00
004C1D00
00000000
019EEB20
0AC43AC0
0E8006D0
0BE50130
01BFD500
1203AF40
9A000E80
8D426F40
19EEC600
ENDCHAR
STARTCHAR scircumflex
ENCODING 349
SWIDTH 427 0
DWIDTH 4 0
BBX 6 10 0 0
BITMAP
003400
01DD00
088E20
0D1B40
000000
02E100
09E000
3CD814
C7BEC6
38FF90
ENDCHAR
STARTCHAR Scedilla
ENCODING 350
SWIDTH 693 0
DWIDTH 7 0
BBX 7 13 0 -4
BITMAP
019EEB20
0AC43BC0
0E8006D0
0BE50240
02CFD500
1104CF50
9A000E80
8C204E40
19FFC500
002C5000
000B5000
06FC0000
00200000
ENDCHAR
STARTCHAR scedilla
ENCODING 351
SWIDTH 427 0
DWIDTH 4 0
BBX 6 9 0 -4
BITMAP
02E100
09D000
2EF501
B69C77
69FEA1
02B500
00A500
5EC100
010000
ENDCHAR
STARTCHAR Scaron
ENCODING 352
SWIDTH 693 0
DWIDTH 7 0
BBX 7 13 0 0
BITMAP
00060520
000D6D10
0005E300
00000000
019EEB20
0AC43AC0
0E8006D0
0BE50130
01BFD500
1203AF40
9A000E80
8D426F40
19EEC600
ENDCHAR
STARTCHAR scaron
ENCODING 353
SWIDTH 427 0
DWIDTH 4 0
BBX 6 10 0 0
BITMAP
032150
088980
05CD10
01D600
000000
02E100
09E000
3CD814
C7BEC6
38FF90
ENDCHAR
STARTCHAR uni0162
ENCODING 354
SWIDTH 697 0
DWIDTH 7 0
BBX 9 12 0 -3
BITMAP
06BDEFFFC0
6D53F82220
9A02F40000
3505F10000
0008E00000
000AB00000
000D900000
000F700000
006F700000
0017B00000
01EF600000
0011000000
ENDCHAR
STARTCHAR uni0163
ENCODING 355
SWIDTH 393 0
DWIDTH 4 0
BBX 6 13 0 -4
BITMAP
007E20
03DB50
098C20
0DB800
EFFF60
3F4200
2F2010
0F51B2
09FE90
08E800
009700
4FE200
020000
ENDCHAR
STARTCHAR Tcaron
ENCODING 356
SWIDTH 697 0
DWIDTH 7 0
BBX 9 13 0 0
BITMAP
0001406000
0002E6B000
00008D1000
0000000000
05BDEFFFC0
6D53F82220
9902F40000
4705F20000
0007E00000
000AC00000
000CA00000
000E800000
000D500000
ENDCHAR
STARTCHAR tcaron
ENCODING 357
SWIDTH 343 0
DWIDTH 3 0
BBX 5 10 0 0
BITMAP
000120
000890
05C840
09B000
0C8000
CFFD00
3F4100
4F0020
4F4890
0BEA10
ENDCHAR
STARTCHAR Tbar
ENCODING 358
SWIDTH 697 0
DWIDTH 7 0
BBX 9 9 0 0
BITMAP
05BDEFFFC0
6D53F82220
9902F40000
4705F20000
01EFFF8000
002AC20000
000CA00000
000E800000
000D500000
ENDCHAR
STARTCHAR tbar
ENCODING 359
SWIDTH 343 0
DWIDTH 3 0
BBX 5 8 0 0
BITMAP
05C000
09B000
0C8000
BFFC00
EFF700
6F2170
3F4A70
0AE900
ENDCHAR
STARTCHAR Utilde
ENCODING 360
SWIDTH 890 0
DWIDTH 9 0
BBX 11 12 0 0
BITMAP
0002E94A0000
000879E30000
000000000000
1AE9000D3000
AAAE003F4000
808D005F2000
00BB008F0000
00E700CD0000
02F403FB0000
04F20AC90210
05F8A8CD7D10
01CE905ED400
ENDCHAR
STARTCHAR utilde
ENCODING 361
SWIDTH 462 0
DWIDTH 5 0
BBX 6 8 0 0
BITMAP
08D4A3
0C4CA0
000000
1D1A50
5E1F30
7B6F03
7DDE6B
3E6EC1
ENDCHAR
STARTCHAR Umacron
ENCODING 362
SWIDTH 890 0
DWIDTH 9 0
BBX 11 11 0 0
BITMAP
0002EFE00000
000022200000
1AE9000D3000
AAAE003F4000
808D005F2000
00BB008F0000
00E700CD0000
02F403FB0000
04F20AC90210
05F8A8CD7D10
01CE905ED400
ENDCHAR
STARTCHAR umacron
ENCODING 363
SWIDTH 462 0
DWIDTH 5 0
BBX 6 7 0 0
BITMAP
08FF70
012200
1D1A50
5E1F30
7B6F03
7DDE6B
3E6EC1
ENDCHAR
STARTCHAR Ubreve
ENCODING 364
SWIDTH 890 0
DWIDTH 9 0
BBX 11 12 0 0
BITMAP
000581770000
0003EFD30000
000002000000
1AE9000D3000
AAAE003F4000
808D005F2000
00BB008F0000
00E700CD0000
02F403FB0000
04F20AC90210
05F8A8CD7D10
01CE905ED400
ENDCHAR
STARTCHAR ubreve
ENCODING 365
SWIDTH 462 0
DWIDTH 5 0
BBX 6 9 0 0
BITMAP
030030
0D63E1
06FF70
001100
1D1A50
5E1F30
7B6F03
7DDE6B
3E6EC1
ENDCHAR
STARTCHAR Uring
ENCODING 366
SWIDTH 890 0
DWIDTH 9 0
BBX 11 13 0 0
BITMAP
00005E800000
0000B7D00000
00008F900000
000001000000
1AE9000D3000
AAAE003F4000
808D005F2000
00BB008F0000
00E700CD0000
02F403FB0000
04F20AC90210
05F8A8CD7D10
01CE905ED400
ENDCHAR
STARTCHAR uring
ENCODING 367
SWIDTH 462 0
DWIDTH 5 0
BBX 6 9 0 0
BITMAP
00AD20
02C970
01EE20
001100
1D1A50
5E1F30
7B6F03
7DDE6B
3E6EC1
ENDCHAR
STARTCHAR Uhungarumlaut
ENCODING 368
SWIDTH 890 0
DWIDTH 9 0
BBX 11 13 0 0
BITMAP
000024420000
000099C60000
0000B2C00000
000000000000
1AE9000D3000
AAAE003F4000
808D005F2000
00BB008F0000
00E700CD0000
02F403FB0000
04F20AC90210
05F8A8CD7D10
01CE905ED400
ENDCHAR
STARTCHAR uhungarumlaut
ENCODING 369
SWIDTH 462 0
DWIDTH 5 0
BBX 6 10 0 0
BITMAP
003251
00C8E5
01E5D0
038650
000000
1D1A50
5E1F30
7B6F03
7DDE6B
3E6EC1
ENDCHAR
STARTCHAR Uogonek
ENCODING 370
SWIDTH 890 0
DWIDTH 9 0
BBX 11 13 0 -4
BITMAP
1AE9000D3000
B89E002F4000
608D005F2000
00BB008F0000
00E800CD0000
02F502FB0000
05F209D90100
05F579CC4D20
01CE916EF700
0000000D6000
0000000F1000
0000000AE700
000000001000
ENDCHAR
STARTCHAR uogonek
ENCODING 371
SWIDTH 462 0
DWIDTH 5 0
BBX 6 8 0 -3
BITMAP
1D1A50
5E1F30
7B6F03
7DDE6C
3E5FE3
005C10
008800
003DD0
ENDCHAR
STARTCHAR Wcircumflex
ENCODING 372
SWIDTH 1217 0
DWIDTH 12 0
BBX 13 13 1 0
BITMAP
000007E2000000
00003EB8000000
0000884A000000
00000000000000
5C000A803DD200
9D000F80A7D700
BB003F60B4D500
BA007F507CF200
CA00BF500BFF80
BA01ED501E5200
9C089B708C0000
5F9E28D8E20000
0BD402DD400000
ENDCHAR
STARTCHAR wcircumflex
ENCODING 373
SWIDTH 700 0
DWIDTH 7 0
BBX 9 10 0 0
BITMAP
0002500000
000DE10000
006AB40000
00C3960000
0000000000
6A0C27B000
7B4F3DC210
7CAF4DFF30
6DDCCB1100
2E68D20000
ENDCHAR
STARTCHAR Ycircumflex
ENCODING 374
SWIDTH 851 0
DWIDTH 9 0
BBX 10 17 0 -4
BITMAP
00002D8000
0000ABE100
0001D1C300
0000000000
1AE8000D40
A89E002F50
708D004F30
00BB008F10
00E800CE00
01F604FC00
01F72CBA00
009FE7DDC7
0004B9F820
002D23F100
008B1BB000
005FFC2000
0001100000
ENDCHAR
STARTCHAR ycircumflex
ENCODING 375
SWIDTH 479 0
DWIDTH 5 0
BBX 6 15 0 -5
BITMAP
001600
00BE30
04D960
0A5680
000000
1D1A50
5E1F30
7B6F13
7DDE9B
3EAF80
03D900
2CC600
B4E200
E7B000
BD3000
ENDCHAR
STARTCHAR Ydieresis
ENCODING 376
SWIDTH 851 0
DWIDTH 9 0
BBX 10 15 0 -4
BITMAP
0001E3D400
0000101000
1AE8000D40
A89E002F50
708D004F30
00BB008F10
00E800CE00
01F604FC00
01F72CBA00
009FE7DDC7
0004B9F820
002D23F100
008B1BB000
005FFC2000
0001100000
ENDCHAR
STARTCHAR Zacute
ENCODING 377
SWIDTH 721 0
DWIDTH 7 0
BBX 9 13 0 0
BITMAP
0000006000
00001BE100
0000981000
0000000000
04BEFEB600
3E6339F600
5D001E9000
19008E1000
0003F60000
000CC00000
019F300020
9FFE943A50
9E96BEE700
ENDCHAR
STARTCHAR zacute
ENCODING 378
SWIDTH 445 0
DWIDTH 4 0
BBX 6 10 0 0
BITMAP
000230
000B90
002E20
006600
000000
5FFFA0
05DB30
2E7004
5F53A8
1AEE80
ENDCHAR
STARTCHAR Zdotaccent
ENCODING 379
SWIDTH 721 0
DWIDTH 7 0
BBX 9 11 0 0
BITMAP
0002E60000
0000100000
04BEFEB600
3E6339F600
5D001E9000
19008E1000
0003F60000
000CC00000
019F300020
9FFE943A50
9E96BEE700
ENDCHAR
STARTCHAR zdotaccent
ENCODING 380
SWIDTH 445 0
DWIDTH 4 0
BBX 6 7 0 0
BITMAP
00BA00
001000
5FFFA0
05DB30
2E7004
5F53A8
1AEE80
ENDCHAR
STARTCHAR Zcaron
ENCODING 381
SWIDTH 721 0
DWIDTH 7 0
BBX 9 13 0 0
BITMAP
0005133000
00097D3000
0002E70000
0000000000
04BEFEB600
3E6339F600
5D001E9000
19008E1000
0003F60000
000CC00000
019F300020
9FFE943A50
9E96BEE700
ENDCHAR
STARTCHAR zcaron
ENCODING 382
SWIDTH 445 0
DWIDTH 4 0
BBX 6 10 0 0
BITMAP
024060
05C6B0
01DC30
00B900
000000
5FFFA0
05DB30
2E7004
5F53A8
1AEE80
ENDCHAR
STARTCHAR uni018F
ENCODING 399
SWIDTH 792 0
DWIDTH 8 0
BBX 8 9 0 0
BITMAP
018DFC40
08B539F3
020000E8
000000BB
3EFFFFFA
6F4223F8
4F4006F3
0DC35E80
02BED700
ENDCHAR
STARTCHAR florin
ENCODING 402
SWIDTH 478 0
DWIDTH 5 0
BBX 7 12 -1 -4
BITMAP
0004CE30
000CA300
000F5000
08FFFC00
015F3000
005F0000
007D0000
008B0000
00A90000
01D70000
8FC10000
12000000
ENDCHAR
STARTCHAR Ohorn
ENCODING 416
SWIDTH 816 0
DWIDTH 8 0
BBX 9 11 0 0
BITMAP
0000000330
0000000C80
003BEFFE20
03E936F700
0BB000AD00
2F50008E00
4F20008D00
5F2000BB00
3F5002F500
0CD44CB000
02BED80000
ENDCHAR
STARTCHAR ohorn
ENCODING 417
SWIDTH 451 0
DWIDTH 5 0
BBX 6 7 0 0
BITMAP
000050
0002E0
0AFF60
6D8F32
A93FFB
8C4F30
1CE600
ENDCHAR
STARTCHAR Uhorn
ENCODING 431
SWIDTH 890 0
DWIDTH 9 0
BBX 11 11 0 0
BITMAP
000000001500
000000007D00
1AE9000DF600
AAAE003F6000
808D005F2000
00BB008F0000
00E700CD0000
02F403FB0000
04F20AC90210
05F8A8CD7D10
01CE905ED400
ENDCHAR
STARTCHAR uhorn
ENCODING 432
SWIDTH 512 0
DWIDTH 5 0
BBX 7 7 0 0
BITMAP
00001400
00007900
1D1AE300
5E1F3000
7B6F0120
7DDE3C40
3E5DD500
ENDCHAR
STARTCHAR uni01C4
ENCODING 452
SWIDTH 1531 0
DWIDTH 15 0
BBX 17 13 0 0
BITMAP
000000000005124000
0000000000088C4000
000000000001D80000
000000000000000000
02BEEC4004BEFEC700
03634AF42E7338F700
02C200DA4E000DB000
06F0009D1A007F2000
09C000AD0002E80000
0C9000DA000BD10000
0F7005F4017F400030
2F737E807FFFA53A70
1DFEB5008EA6BEE800
ENDCHAR
STARTCHAR uni01C5
ENCODING 453
SWIDTH 1191 0
DWIDTH 12 0
BBX 13 10 0 0
BITMAP
00000000042240
02BEEC400A6B60
03634AF407BD00
02C200DA02E400
06F0009D000000
09C000ADAFFF10
0C9000DA17F700
0F7005F44E4000
2F737E80E82200
1DFEB501FFFF10
ENDCHAR
STARTCHAR uni01C6
ENCODING 454
SWIDTH 895 0
DWIDTH 9 0
BBX 11 9 0 0
BITMAP
0002E1B39600
0005E0A8D100
0007C06F5000
000990030000
05DF6CFFF200
3F6E33AE6000
8B2F18C10310
9C9F7FB47E20
4E9AC6DFC300
ENDCHAR
STARTCHAR uni01C7
ENCODING 455
SWIDTH 1276 0
DWIDTH 13 0
BBX 14 11 -1 -2
BITMAP
0001AED406DFEA
000BC3AC5E53F9
003F406D8A01F5
005F10354A03F3
006F00000019F1
007D000006DCD0
019C00006D2B90
3EFFB635E41E40
3EC59DFDF39C00
00000000CFD200
00000000020000
ENDCHAR
STARTCHAR uni01C8
ENCODING 456
SWIDTH 927 0
DWIDTH 9 0
BBX 12 14 -1 -5
BITMAP
00018DE80000
000AD45F3000
002F501FAE20
005F20051100
006F00005B00
007D00008B00
019C0000A911
3EFFB635E9D3
3EC58DFCED30
00000007F200
0000007BE000
000003B79000
0000079D4000
000004E90000
ENDCHAR
STARTCHAR uni01C9
ENCODING 457
SWIDTH 610 0
DWIDTH 6 0
BBX 8 15 0 -5
BITMAP
00AD1000
05BC4000
0B6B3000
0F2D9D00
3F4B1100
5DA48900
6EC0B800
6F30D621
4E4AFAD1
0AE9FC20
001BE000
00ABB000
05997000
0A7E2000
06E70000
ENDCHAR
STARTCHAR uni01CA
ENCODING 458
SWIDTH 1497 0
DWIDTH 15 0
BBX 16 11 0 -2
BITMAP
1AE71AEB029DFEC1
C6ABA66F4CA32CA0
30AD803F3F300D80
00BF106F19300F50
00DB009D00029F30
01F700CA005ECF00
03F400E804E38B00
05F200DA4E70C700
04D0006EDF66E100
0000000009FE4000
0000000000210000
ENDCHAR
STARTCHAR uni01CB
ENCODING 459
SWIDTH 1138 0
DWIDTH 11 0
BBX 13 14 0 -5
BITMAP
1AE71AEB000000
B7AAA66F400000
70AD803F34E300
00BF106F101000
00DB009D04D000
01F700CA07C000
03F400E808A110
05F200DA4EAC50
04D0006EDEE500
000000006F4000
00000006BF1000
0000002C6B0000
0000006AC60000
0000003EA00000
ENDCHAR
STARTCHAR uni01CC
ENCODING 460
SWIDTH 750 0
DWIDTH 8 0
BBX 9 12 0 -5
BITMAP
000003E400
0000001000
1E3C72E000
5DCE85E000
7E8D56C120
7F2F6DCC60
5B0CDDE500
00005F6000
0005BF2000
001D5D0000
004BA70000
002DB10000
ENDCHAR
STARTCHAR Gcaron
ENCODING 486
SWIDTH 811 0
DWIDTH 8 0
BBX 10 18 0 -5
BITMAP
0002406000
0003D7A000
00009C1000
0000000000
002AEE7000
03EA36F300
0BB001F300
2F50007000
4F20000000
5F204FF700
2F6002D610
0AE634E9D2
018DFDFC20
00000AE100
0000ABB000
0005997000
000A8E2000
0006E70000
ENDCHAR
STARTCHAR gcaron
ENCODING 487
SWIDTH 479 0
DWIDTH 5 0
BBX 6 15 0 -5
BITMAP
005051
01F3E1
00DB60
008C00
000000
05DA20
3F6E40
8B2F13
9B8FAB
4EDF90
03E900
2CC600
A5E200
E7B000
BD3000
ENDCHAR
STARTCHAR uni01EA
ENCODING 490
SWIDTH 816 0
DWIDTH 8 0
BBX 8 13 0 -4
BITMAP
002AED70
02E936F6
0AB000BC
1F50008E
4F30008E
5F2000AC
4F4001E7
1EB11BE1
05FFFD30
002B9000
000D4000
0008F900
00001000
ENDCHAR
STARTCHAR uni01EB
ENCODING 491
SWIDTH 451 0
DWIDTH 5 0
BBX 6 8 0 -3
BITMAP
09E900
6D8F32
993FFB
9B1E30
3FF800
07A000
0B6000
05EA00
ENDCHAR
STARTCHAR Aringacute
ENCODING 506
SWIDTH 786 0
DWIDTH 8 0
BBX 10 14 0 0
BITMAP
0000000089
00000AD6A2
00002D9700
00001DE300
0000011000
0005BEFD40
009E846610
07F302F400
0E8005F100
4F3009D000
6F100DB000
6F204F9030
2FA5DDC5D1
06EE54ED40
ENDCHAR
STARTCHAR aringacute
ENCODING 507
SWIDTH 470 0
DWIDTH 5 0
BBX 7 10 0 0
BITMAP
00000330
009E5A30
01E88000
00CF4000
00010000
05DA2000
3F6E4000
8B2F1200
9B8F5C00
4E9AD200
ENDCHAR
STARTCHAR AEacute
ENCODING 508
SWIDTH 1015 0
DWIDTH 10 0
BBX 12 13 0 0
BITMAP
000000003400
00000005E800
0000002C5000
000000000000
0006CD5EFFA0
00AF83BA2210
07F301F60000
0E8004F30000
4F3008FFFE00
6F100CD22100
6F103FC00000
2F94DAF734A5
06DE707DFD80
ENDCHAR
STARTCHAR aeacute
ENCODING 509
SWIDTH 653 0
DWIDTH 7 0
BBX 8 10 0 0
BITMAP
00000600
00003F10
00009800
0000B100
00000000
05DCCE30
3F6C8B60
8A1F9C13
9B8FB4AA
3EB5DE91
ENDCHAR
STARTCHAR Oslashacute
ENCODING 510
SWIDTH 816 0
DWIDTH 8 0
BBX 8 14 0 -1
BITMAP
00000430
00006F60
0004C400
00000D10
003BEF70
03E99CF6
0BB0B5BC
2F50E18E
4F23D08E
5F2790BB
3F4B52F5
0CCE5CB0
02CFD800
00680000
ENDCHAR
STARTCHAR oslashacute
ENCODING 511
SWIDTH 459 0
DWIDTH 5 0
BBX 6 12 0 -2
BITMAP
004200
00D700
04D100
086200
007400
0AFA00
6DCE63
A9ABFB
8CBE30
2DE700
074000
041000
ENDCHAR
STARTCHAR uni0200
ENCODING 512
SWIDTH 786 0
DWIDTH 8 0
BBX 10 13 0 0
BITMAP
0000615000
0000E5F100
0000669400
0000000000
0005BEFD40
009E846610
07F302F400
0E8005F100
4F3009D000
6F100DB000
6F204F9030
2FA5DDC5D1
06EE54ED40
ENDCHAR
STARTCHAR uni0201
ENCODING 513
SWIDTH 470 0
DWIDTH 5 0
BBX 6 10 0 0
BITMAP
152400
3F7D00
0C5E20
047740
000000
05DA20
3F6E40
8B2F12
9B8F5C
4E9AD2
ENDCHAR
STARTCHAR uni0202
ENCODING 514
SWIDTH 786 0
DWIDTH 8 0
BBX 10 12 0 0
BITMAP
00003DE800
0000D74E20
0000100100
0005BEFD40
009E846610
07F302F400
0E8005F100
4F3009D000
6F100DB000
6F204F9030
2FA5DDC5D1
06EE54ED40
ENDCHAR
STARTCHAR uni0203
ENCODING 515
SWIDTH 470 0
DWIDTH 5 0
BBX 6 8 0 0
BITMAP
02CE70
0A94F2
071071
05DA20
3F6E40
8B2F12
9B8F5C
4E9AD2
ENDCHAR
STARTCHAR uni0204
ENCODING 516
SWIDTH 686 0
DWIDTH 7 0
BBX 9 13 0 0
BITMAP
0015240000
003E6C0000
000A3C0000
0000000000
006CFD5000
05F738E000
0AC004F100
08E3028000
02DFB00000
3E93100000
9D00000000
7F73347B10
07DFFDB500
ENDCHAR
STARTCHAR uni0205
ENCODING 517
SWIDTH 393 0
DWIDTH 4 0
BBX 6 10 0 0
BITMAP
425100
A9C600
3D6A00
0A2B00
000000
09E800
6D6C00
ACC621
8E56E1
1BEC40
ENDCHAR
STARTCHAR uni0206
ENCODING 518
SWIDTH 686 0
DWIDTH 7 0
BBX 9 12 0 0
BITMAP
0006ED5000
002E46D000
0001001000
006CFD5000
05F738E000
0AC004F100
08E3028000
02DFB00000
3E93100000
9D00000000
7F73347B10
07DFFDB500
ENDCHAR
STARTCHAR uni0207
ENCODING 519
SWIDTH 393 0
DWIDTH 4 0
BBX 6 8 0 0
BITMAP
06ED30
1F49B0
260170
09E800
6D6C00
ACC621
8E56E1
1BEC40
ENDCHAR
STARTCHAR uni0208
ENCODING 520
SWIDTH 495 0
DWIDTH 5 0
BBX 7 13 -1 0
BITMAP
00334200
007AA700
001C3A00
00000000
00CFFF60
001AD200
000BB000
000D8000
000F6000
002F4000
004F2000
018F2000
1EFFF400
ENDCHAR
STARTCHAR uni0209
ENCODING 521
SWIDTH 246 0
DWIDTH 2 0
BBX 5 10 -1 0
BITMAP
425100
A9C600
3D6A00
0A2B00
000000
01E100
05E000
07C030
07C790
03EB10
ENDCHAR
STARTCHAR uni020A
ENCODING 522
SWIDTH 495 0
DWIDTH 5 0
BBX 7 12 -1 0
BITMAP
0009EC20
006C3A90
00000010
00CFFF60
001AD200
000BB000
000D8000
000F6000
002F4000
004F2000
018F2000
1EFFF400
ENDCHAR
STARTCHAR uni020B
ENCODING 523
SWIDTH 246 0
DWIDTH 2 0
BBX 5 8 -1 0
BITMAP
06ED30
1F49B0
260170
01E100
05E000
07C030
07C790
03EB10
ENDCHAR
STARTCHAR uni020C
ENCODING 524
SWIDTH 816 0
DWIDTH 8 0
BBX 8 13 0 0
BITMAP
00061500
001F5E00
00085A20
00000000
003BED70
03E936F6
0BB000AC
2F50008E
4F20008E
5F2000BB
3F5002F5
0CD44CB0
02BED800
ENDCHAR
STARTCHAR uni020D
ENCODING 525
SWIDTH 451 0
DWIDTH 5 0
BBX 6 10 0 0
BITMAP
425100
A9D600
4D7A00
0A1B00
000000
0AE900
6D8F32
A93FFB
8C4F30
1CE600
ENDCHAR
STARTCHAR uni020E
ENCODING 526
SWIDTH 816 0
DWIDTH 8 0
BBX 8 12 0 0
BITMAP
0004DE70
000E65F1
00010010
003BED70
03E936F6
0BB000AC
2F50008E
4F20008E
5F2000BB
3F5002F5
0CD44CB0
02BED800
ENDCHAR
STARTCHAR uni020F
ENCODING 527
SWIDTH 451 0
DWIDTH 5 0
BBX 6 8 0 0
BITMAP
06ED20
2E4AA0
260260
0AE900
6D8F32
A93FFB
8C4F30
1CE600
ENDCHAR
STARTCHAR uni0210
ENCODING 528
SWIDTH 880 0
DWIDTH 9 0
BBX 10 13 0 0
BITMAP
0005160000
000B7E4000
0003967000
0000000000
002AEFC400
02E843CE00
0B76D07F10
2E0AB3D900
5B6FFE6000
6A0F8E9000
6B2F47F104
2E7F21E94D
06EB005EC3
ENDCHAR
STARTCHAR uni0211
ENCODING 529
SWIDTH 455 0
DWIDTH 5 0
BBX 6 10 0 0
BITMAP
243300
6D9A00
1E5E00
065920
000000
1E4D70
5DCD85
7F6AF9
7F1020
5B0000
ENDCHAR
STARTCHAR uni0212
ENCODING 530
SWIDTH 880 0
DWIDTH 9 0
BBX 10 12 0 0
BITMAP
0002CEA100
000A93D500
0001001000
002AEFC400
02E843CE00
0B76D07F10
2E0AB3D900
5B6FFE6000
6A0F8E9000
6B2F47F104
2E7F21E94D
06EB005EC3
ENDCHAR
STARTCHAR uni0213
ENCODING 531
SWIDTH 455 0
DWIDTH 5 0
BBX 6 8 0 0
BITMAP
03DE50
0D76E0
070080
1E4D70
5DCD85
7F6AF9
7F1020
5B0000
ENDCHAR
STARTCHAR uni0214
ENCODING 532
SWIDTH 890 0
DWIDTH 9 0
BBX 11 13 0 0
BITMAP
000334100000
0008AB700000
0001B3900000
000000000000
1AE9000D3000
AAAE003F4000
808D005F2000
00BB008F0000
00E700CD0000
02F403FB0000
04F20AC90210
05F8A8CD7D10
01CE905ED400
ENDCHAR
STARTCHAR uni0215
ENCODING 533
SWIDTH 462 0
DWIDTH 5 0
BBX 6 10 0 0
BITMAP
243300
5D8B00
0D5E00
065930
000000
1D1A50
5E1F30
7B6F03
7DDE6B
3E6EC1
ENDCHAR
STARTCHAR uni0216
ENCODING 534
SWIDTH 890 0
DWIDTH 9 0
BBX 11 12 0 0
BITMAP
0001AEC20000
0007B3A80000
000100010000
1AE9000D3000
AAAE003F4000
808D005F2000
00BB008F0000
00E700CD0000
02F403FB0000
04F20AC90210
05F8A8CD7D10
01CE905ED400
ENDCHAR
STARTCHAR uni0217
ENCODING 535
SWIDTH 462 0
DWIDTH 5 0
BBX 6 8 0 0
BITMAP
03DE60
0C86F1
070070
1D1A50
5E1F30
7B6F03
7DDE6B
3E6EC1
ENDCHAR
STARTCHAR uni0218
ENCODING 536
SWIDTH 693 0
DWIDTH 7 0
BBX 7 12 0 -3
BITMAP
019EEB20
0AC43AC0
0E8006D0
0BE50130
01BFD500
1203AF40
9A000E80
8D426F40
19EEC600
00010000
006A0000
00670000
ENDCHAR
STARTCHAR uni0219
ENCODING 537
SWIDTH 427 0
DWIDTH 4 0
BBX 6 8 0 -3
BITMAP
02E100
09E000
3CD814
C7BEC6
38FF90
039000
06A000
066000
ENDCHAR
STARTCHAR uni021A
ENCODING 538
SWIDTH 697 0
DWIDTH 7 0
BBX 9 12 0 -3
BITMAP
05BDEFFFC0
6D53F82220
9902F40000
4705F20000
0007E00000
000AC00000
000CA00000
000E800000
000D500000
0001000000
000F100000
001C000000
ENDCHAR
STARTCHAR uni021B
ENCODING 539
SWIDTH 393 0
DWIDTH 4 0
BBX 6 12 0 -3
BITMAP
007E20
03DB50
098C20
0DB800
EFFF60
3F4200
1F2021
0E84D1
05ED40
02A000
05C000
047000
ENDCHAR
STARTCHAR uni022A
ENCODING 554
SWIDTH 816 0
DWIDTH 8 0
BBX 8 13 0 0
BITMAP
0004FFB0
00002210
000988A0
00010110
003BED70
03E936F6
0BB000AC
2F50008E
4F20008E
5F2000BB
3F5002F5
0CD44CB0
02BED800
ENDCHAR
STARTCHAR uni022B
ENCODING 555
SWIDTH 451 0
DWIDTH 5 0
BBX 6 9 0 0
BITMAP
09FF60
012200
0D4C60
010100
0AE900
6D8F32
A93FFB
8C4F30
1CE600
ENDCHAR
STARTCHAR uni022C
ENCODING 556
SWIDTH 816 0
DWIDTH 8 0
BBX 8 13 0 0
BITMAP
0004FFB0
0009F6D2
001D5DA0
00000000
003BED70
03E936F6
0BB000AC
2F50008E
4F20008E
5F2000BB
3F5002F5
0CD44CB0
02BED800
ENDCHAR
STARTCHAR uni022D
ENCODING 557
SWIDTH 451 0
DWIDTH 5 0
BBX 6 10 0 0
BITMAP
08FF70
012210
1CB3C0
597E60
000000
0AE900
6D8F32
A93FFB
8C4F30
1CE600
ENDCHAR
STARTCHAR uni0230
ENCODING 560
SWIDTH 816 0
DWIDTH 8 0
BBX 8 13 0 0
BITMAP
0004FFB0
00002210
0000BB00
00001100
003BED70
03E936F6
0BB000AC
2F50008E
4F20008E
5F2000BB
3F5002F5
0CD44CB0
02BED800
ENDCHAR
STARTCHAR uni0231
ENCODING 561
SWIDTH 451 0
DWIDTH 5 0
BBX 6 9 0 0
BITMAP
09FF60
012200
01E700
001000
0AE900
6D8F32
A93FFB
8C4F30
1CE600
ENDCHAR
STARTCHAR uni0232
ENCODING 562
SWIDTH 851 0
DWIDTH 9 0
BBX 10 15 0 -4
BITMAP
0000EFF100
0000222000
1AE8000D40
A89E002F50
708D004F30
00BB008F10
00E800CE00
01F604FC00
01F72CBA00
009FE7DDC7
0004B9F820
002D23F100
008B1BB000
005FFC2000
0001100000
ENDCHAR
STARTCHAR uni0233
ENCODING 563
SWIDTH 479 0
DWIDTH 5 0
BBX 6 12 0 -5
BITMAP
08FF70
012200
1D1A50
5E1F30
7B6F13
7DDE9B
3EAF80
03D900
2CC600
B4E200
E7B000
BD3000
ENDCHAR
STARTCHAR uni0237
ENCODING 567
SWIDTH 254 0
DWIDTH 3 0
BBX 7 10 -3 -5
BITMAP
0002E100
0004F000
0006D020
0007CB70
0009E600
004E6000
04CF3000
0C4D0000
3CA80000
1DC10000
ENDCHAR
STARTCHAR uni0259
ENCODING 601
SWIDTH 458 0
DWIDTH 5 0
BBX 5 5 0 0
BITMAP
3DE900
134F30
6FFF50
8C7F20
2CE700
ENDCHAR
STARTCHAR uni02BC
ENCODING 700
SWIDTH 600 0
DWIDTH 6 0
BBX 2 3 2 6
BITMAP
2A
5C
47
ENDCHAR
STARTCHAR circumflex
ENCODING 710
SWIDTH 600 0
DWIDTH 6 0
BBX 4 4 1 6
BITMAP
0160
09E4
3D88
8659
ENDCHAR
STARTCHAR caron
ENCODING 711
SWIDTH 600 0
DWIDTH 6 0
BBX 5 4 1 6
BITMAP
150510
2E3D00
0EB500
09B000
ENDCHAR
STARTCHAR uni02C9
ENCODING 713
SWIDTH 600 0
DWIDTH 6 0
BBX 4 2 1 5
BITMAP
7FF8
1221
ENDCHAR
STARTCHAR breve
ENCODING 728
SWIDTH 600 0
DWIDTH 6 0
BBX 5 4 1 5
BITMAP
300300
C72E20
5FF800
011000
ENDCHAR
STARTCHAR dotaccent
ENCODING 729
SWIDTH 600 0
DWIDTH 6 0
BBX 2 2 2 5
BITMAP
9C
11
ENDCHAR
STARTCHAR ring
ENCODING 730
SWIDTH 600 0
DWIDTH 6 0
BBX 4 4 1 5
BITMAP
0AE3
1D87
0DF3
0110
ENDCHAR
STARTCHAR ogonek
ENCODING 731
SWIDTH 600 0
DWIDTH 6 0
BBX 3 5 1 -4
BITMAP
0200
4C00
9700
6FD0
0110
ENDCHAR
STARTCHAR tilde
ENCODING 732
SWIDTH 600 0
DWIDTH 6 0
BBX 5 2 1 6
BITMAP
7D4A30
C4CB00
ENDCHAR
STARTCHAR hungarumlaut
ENCODING 733
SWIDTH 600 0
DWIDTH 6 0
BBX 5 4 1 6
BITMAP
033420
0B8D60
0E5E10
295600
ENDCHAR
STARTCHAR gravecomb
ENCODING 768
SWIDTH 0 0
DWIDTH 0 0
BBX 3 4 -5 6
BITMAP
4200
A900
3E10
0740
ENDCHAR
STARTCHAR acutecomb
ENCODING 769
SWIDTH 0 0
DWIDTH 0 0
BBX 3 4 -4 6
BITMAP
0140
08B0
0E30
3800
ENDCHAR
STARTCHAR uni0302
ENCODING 770
SWIDTH 0 0
DWIDTH 0 0
BBX 4 4 -5 6
BITMAP
0160
09E4
3D88
8659
ENDCHAR
STARTCHAR tildecomb
ENCODING 771
SWIDTH 0 0
DWIDTH 0 0
BBX 5 2 -5 6
BITMAP
7D4A30
C4CB00
ENDCHAR
STARTCHAR uni0304
ENCODING 772
SWIDTH 0 0
DWIDTH 0 0
BBX 4 2 -5 5
BITMAP
7FF8
1221
ENDCHAR
STARTCHAR uni0306
ENCODING 774
SWIDTH 0 0
DWIDTH 0 0
BBX 5 4 -5 5
BITMAP
300300
C72E20
5FF800
011000
ENDCHAR
STARTCHAR uni0307
ENCODING 775
SWIDTH 0 0
DWIDTH 0 0
BBX 2 2 -4 5
BITMAP
9C
11
ENDCHAR
STARTCHAR uni0308
ENCODING 776
SWIDTH 0 0
DWIDTH 0 0
BBX 4 2 -5 5
BITMAP
7A6B
1101
ENDCHAR
STARTCHAR hookabovecomb
ENCODING 777
SWIDTH 0 0
DWIDTH 0 0
BBX 3 4 -4 5
BITMAP
BE30
2970
6E30
1100
ENDCHAR
STARTCHAR uni030A
ENCODING 778
SWIDTH 0 0
DWIDTH 0 0
BBX 4 4 -5 5
BITMAP
0AE3
1D87
0DF3
0110
ENDCHAR
STARTCHAR uni030B
ENCODING 779
SWIDTH 0 0
DWIDTH 0 0
BBX 5 4 -5 6
BITMAP
033420
0B8D60
0E5E10
295600
ENDCHAR
STARTCHAR uni030C
ENCODING 780
SWIDTH 0 0
DWIDTH 0 0
BBX 5 4 -5 6
BITMAP
150510
2E3D00
0EB500
09B000
ENDCHAR
STARTCHAR uni030F
ENCODING 783
SWIDTH 0 0
DWIDTH 0 0
BBX 5 4 -6 6
BITMAP
152300
4E8C00
0D5E10
056840
ENDCHAR
STARTCHAR uni0311
ENCODING 785
SWIDTH 0 0
DWIDTH 0 0
BBX 5 3 -5 5
BITMAP
2CE700
B85F10
700710
ENDCHAR
STARTCHAR uni0312
ENCODING 786
SWIDTH 0 0
DWIDTH 0 0
BBX 2 3 -4 6
BITMAP
2A
5C
47
ENDCHAR
STARTCHAR uni031B
ENCODING 795
SWIDTH 0 0
DWIDTH 0 0
BBX 3 4 -4 3
BITMAP
0120
0880
2E30
0100
ENDCHAR
STARTCHAR dotbelowcomb
ENCODING 803
SWIDTH 0 0
DWIDTH 0 0
BBX 2 2 -5 -3
BITMAP
8D
11
ENDCHAR
STARTCHAR uni0324
ENCODING 804
SWIDTH 0 0
DWIDTH 0 0
BBX 4 2 -6 -3
BITMAP
6B5C
0101
ENDCHAR
STARTCHAR uni0326
ENCODING 806
SWIDTH 0 0
DWIDTH 0 0
BBX 2 3 -5 -3
BITMAP
39
6B
66
ENDCHAR
STARTCHAR uni0327
ENCODING 807
SWIDTH 0 0
DWIDTH 0 0
BBX 4 4 -6 -4
BITMAP
0BD2
02B6
5FD2
0200
ENDCHAR
STARTCHAR uni0328
ENCODING 808
SWIDTH 0 0
DWIDTH 0 0
BBX 3 5 -5 -4
BITMAP
0200
4C00
9700
6FD0
0110
ENDCHAR
STARTCHAR uni032E
ENCODING 814
SWIDTH 0 0
DWIDTH 0 0
BBX 5 4 -6 -4
BITMAP
300300
D63E20
6FF800
011000
ENDCHAR
STARTCHAR uni0331
ENCODING 817
SWIDTH 0 0
DWIDTH 0 0
BBX 4 2 -6 -3
BITMAP
4FFB
0221
ENDCHAR
STARTCHAR uni0394
ENCODING 916
SWIDTH 700 0
DWIDTH 7 0
BBX 7 9 0 0
BITMAP
0005B000
000CF000
004ED300
00A8B500
02F29800
08B06B00
0E504E00
5E324F20
9FFFFF30
ENDCHAR
STARTCHAR uni03A9
ENCODING 937
SWIDTH 816 0
DWIDTH 8 0
BBX 9 9 -1 0
BITMAP
0003BED700
003EA48F60
00BC000BC0
02F50008E0
04F20008E0
05F2000BB0
03F5003F60
02DC11DD20
2FFF47FFD0
ENDCHAR
STARTCHAR uni03BC
ENCODING 956
SWIDTH 462 0
DWIDTH 5 0
BBX 6 8 0 -3
BITMAP
061420
3E1E40
6C5F10
8DCE4B
9F6EC3
A80000
B70000
A60000
ENDCHAR
STARTCHAR pi
ENCODING 960
SWIDTH 496 0
DWIDTH 5 0
BBX 7 5 0 0
BITMAP
AFFFF600
4F2C7000
6D0E4110
8B0F6C20
980AE500
ENDCHAR
STARTCHAR uni0400
ENCODING 1024
SWIDTH 686 0
DWIDTH 7 0
BBX 9 13 0 0
BITMAP
0051000000
00CD200000
0007B00000
0000000000
006CFD5000
05F738E000
0AC004F100
08E3028000
02DFB00000
3E93100000
9D00000000
7F73347B10
07DFFDB500
ENDCHAR
STARTCHAR uni0401
ENCODING 1025
SWIDTH 686 0
DWIDTH 7 0
BBX 9 11 0 0
BITMAP
000C6A7000
0001010000
006CFD5000
05F738E000
0AC004F100
08E3028000
02DFB00000
3E93100000
9D00000000
7F73347B10
07DFFDB500
ENDCHAR
STARTCHAR uni0402
ENCODING 1026
SWIDTH 974 0
DWIDTH 10 0
BBX 11 14 0 -5
BITMAP
05ADEFFFC000
5E52F8222000
9902F4000000
6905F2000000
0007E5DE8000
000AFA38F100
000CC005F260
000E8007FD90
000D500AF700
0000008F9000
000008DF5000
00002E5F1000
00005CA90000
00002EC10000
ENDCHAR
STARTCHAR uni0403
ENCODING 1027
SWIDTH 635 0
DWIDTH 6 0
BBX 9 13 0 0
BITMAP
0000024000
00004E9000
0001D50000
0000000100
06CEFFFF70
6E6E921100
991F600000
473F300000
006F100000
008D000000
00AB000000
00CA000000
00C7000000
ENDCHAR
STARTCHAR uni0404
ENCODING 1028
SWIDTH 687 0
DWIDTH 7 0
BBX 9 9 0 0
BITMAP
003BED5000
03E928E000
0BC005D000
2F60012000
4FFFF50000
5F42200000
2F60000000
0AE6237C10
008DFEB500
ENDCHAR
STARTCHAR uni0405
ENCODING 1029
SWIDTH 693 0
DWIDTH 7 0
BBX 7 9 0 0
BITMAP
019EEB20
0AC43AC0
0E8006D0
0BE50130
01BFD500
1203AF40
9A000E80
8D426F40
19EEC600
ENDCHAR
STARTCHAR uni0406
ENCODING 1030
SWIDTH 495 0
DWIDTH 5 0
BBX 7 9 -1 0
BITMAP
00CFFF60
001AD200
000BB000
000D8000
000F6000
002F4000
004F2000
018F2000
1EFFF400
ENDCHAR
STARTCHAR uni0407
ENCODING 1031
SWIDTH 495 0
DWIDTH 5 0
BBX 7 11 -1 0
BITMAP
002E3E30
00010100
00CFFF60
001AD200
000BB000
000D8000
000F6000
002F4000
004F2000
018F2000
1EFFF400
ENDCHAR
STARTCHAR uni0408
ENCODING 1032
SWIDTH 743 0
DWIDTH 7 0
BBX 8 11 0 -2
BITMAP
03AEFEC6
1E8327F4
4F0006F0
1C1008D0
00005DB0
002CDE80
01DA1F40
06E05E00
08D2D700
03EFA000
00110000
ENDCHAR
STARTCHAR uni0409
ENCODING 1033
SWIDTH 1158 0
DWIDTH 12 0
BBX 12 9 0 0
BITMAP
000006E10000
00000CF20000
00002FF10000
00006DF9DE80
0000CAF638F4
0003E5F001F6
610A93F202F4
C76E20EA3BD0
4DD4004DEB20
ENDCHAR
STARTCHAR uni040A
ENCODING 1034
SWIDTH 1182 0
DWIDTH 12 0
BBX 13 9 -1 0
BITMAP
02BE8005C00000
0C59D00AB00000
1307D00D700000
0009B02FCEEA10
00DFFFFF513E80
002F715F000CA0
003F304F100E80
006F001E73AE20
006A0005DEB300
ENDCHAR
STARTCHAR uni040B
ENCODING 1035
SWIDTH 979 0
DWIDTH 10 0
BBX 11 9 0 0
BITMAP
05ADEFFFC000
5E52F8222000
9902F4000000
6905F2000000
0007E5DE8000
000AFA38F100
000CD005F120
000E8007E4C0
000D5005EC20
ENDCHAR
STARTCHAR uni040C
ENCODING 1036
SWIDTH 937 0
DWIDTH 9 0
BBX 11 13 0 0
BITMAP
000000016000
0000001CD100
000000A81000
000000000000
05CFE900A800
2F63F803F400
5E02F40BC000
1904F4AD2000
001EFFA10000
0009D9F20000
410AA1EA0040
AA4F608F6A70
2CE9001BE900
ENDCHAR
STARTCHAR uni040D
ENCODING 1037
SWIDTH 890 0
DWIDTH 9 0
BBX 11 13 0 0
BITMAP
001500000000
003F90000000
0002A7000000
000000000000
1AE9000D3000
AAAE003F4000
808D005F2000
00BB008F0000
00E700CD0000
02F403FB0000
04F20AC90210
05F8A8CD7D10
01CE905ED400
ENDCHAR
STARTCHAR uni040E
ENCODING 1038
SWIDTH 824 0
DWIDTH 8 0
BBX 10 14 0 -3
BITMAP
0004B1A500
0001CFA100
1AE8001D30
869D004F30
00AC008F10
00D801EE00
00E81BDB00
008FE7A932
000115EFD5
0005DAF500
004D24F100
009A1B9000
005FFA1000
0001100000
ENDCHAR
STARTCHAR uni040F
ENCODING 1039
SWIDTH 890 0
DWIDTH 9 0
BBX 11 11 0 -2
BITMAP
1AE9000D3000
AAAE003F4000
808D005F2000
00BB008F0000
00E700CD0000
02F403FB0000
04F20AD90210
05F8A9CD7D10
01CF905ED400
005E00000000
006B00000000
ENDCHAR
STARTCHAR uni0410
ENCODING 1040
SWIDTH 786 0
DWIDTH 8 0
BBX 10 9 0 0
BITMAP
0005BEFD40
009E846610
07F302F400
0E8005F100
4F3009D000
6F100DB000
6F204F9030
2FA5DDC5D1
06EE54ED40
ENDCHAR
STARTCHAR uni0411
ENCODING 1041
SWIDTH 917 0
DWIDTH 9 0
BBX 9 11 0 -1
BITMAP
0000000100
06CEFFFF70
6D49E22100
990AB00000
6A0D900000
004FEEEB30
00CF733DC0
004F2008E0
006F100CB0
008E17DD20
0036285100
ENDCHAR
STARTCHAR uni0412
ENCODING 1042
SWIDTH 827 0
DWIDTH 8 0
BBX 9 10 0 -1
BITMAP
049DEED700
9E85338F70
31A6000D90
01F5028F40
04F2CFC300
07E026F500
09C000E800
0BB34BF300
0DFFEA3000
0520000000
ENDCHAR
STARTCHAR uni0413
ENCODING 1043
SWIDTH 635 0
DWIDTH 6 0
BBX 9 10 0 0
BITMAP
0000000100
06CEFFFF70
6E6E921100
991F600000
473F300000
006F100000
008D000000
00AB000000
00CA000000
00C7000000
ENDCHAR
STARTCHAR uni0414
ENCODING 1044
SWIDTH 964 0
DWIDTH 10 0
BBX 10 9 0 0
BITMAP
005AEFD810
04D7425EA0
0005B006F3
000C8002F5
002F3001F6
005F0003F4
6EED0008E0
C8DF935E70
7FC29EE700
ENDCHAR
STARTCHAR uni0415
ENCODING 1045
SWIDTH 686 0
DWIDTH 7 0
BBX 9 9 0 0
BITMAP
006CFD5000
05F738E000
0AC004F100
08E3028000
02DFB00000
3E93100000
9D00000000
7F73347B10
07DFFDB500
ENDCHAR
STARTCHAR uni0416
ENCODING 1046
SWIDTH 1234 0
DWIDTH 12 0
BBX 14 9 0 0
BITMAP
02CE503E108EA0
0448E06F04E490
0001F47D0B9000
0000A99C8E2000
00004FFFD20000
0004F7E8D80000
000D81F47E1011
A88E13F21EA3C2
5ED404D004EE50
ENDCHAR
STARTCHAR uni0417
ENCODING 1047
SWIDTH 725 0
DWIDTH 7 0
BBX 7 9 0 0
BITMAP
008EFB10
07E43F70
09900D60
01205D10
004EDD40
03010AD0
6E000AC0
4F628F60
07DFC500
ENDCHAR
STARTCHAR uni0418
ENCODING 1048
SWIDTH 890 0
DWIDTH 9 0
BBX 11 9 0 0
BITMAP
1AE9000D3000
AAAE003F4000
808D005F2000
00BB008F0000
00E700CD0000
02F403FB0000
04F20AC90210
05F8A8CD7D10
01CE905ED400
ENDCHAR
STARTCHAR uni0419
ENCODING 1049
SWIDTH 890 0
DWIDTH 9 0
BBX 11 11 0 0
BITMAP
0003C1860000
0001BFB10000
1AE9000D3000
AAAE003F4000
808D005F2000
00BB008F0000
00E700CD0000
02F403FB0000
04F20AC90210
05F8A8CD7D10
01CE905ED400
ENDCHAR
STARTCHAR uni041A
ENCODING 1050
SWIDTH 937 0
DWIDTH 9 0
BBX 11 9 0 0
BITMAP
05CFE900A800
2F63F803F400
5E02F40BC000
1904F4AD2000
001EFFA10000
0009D9F20000
410AA1EA0040
AA4F608F6A70
2CE9001BE900
ENDCHAR
STARTCHAR uni041B
ENCODING 1051
SWIDTH 861 0
DWIDTH 9 0
BBX 10 9 0 0
BITMAP
000006E100
00000CF200
00002FF100
00006EF000
0000CBF000
0003F6F100
400AB3F203
D77F30E86B
4ED5006EC2
ENDCHAR
STARTCHAR uni041C
ENCODING 1052
SWIDTH 1133 0
DWIDTH 11 0
BBX 13 9 0 0
BITMAP
00007E107E1000
0000CF20EF1000
0001FF15FF0000
0003EF1BCE0000
0007BF3F8D0000
000B7E9C7D0000
401F3DE76E0030
C89C0BF23F6A70
5EC306B009E900
ENDCHAR
STARTCHAR uni041D
ENCODING 1053
SWIDTH 873 0
DWIDTH 9 0
BBX 10 10 0 0
BITMAP
00000008E3
2BE8004E87
D59D00A866
307D00E5C2
009B03FD80
0DFFFEF500
02F716E000
03F305F004
06F002F75C
06A0007EC2
ENDCHAR
STARTCHAR uni041E
ENCODING 1054
SWIDTH 816 0
DWIDTH 8 0
BBX 8 9 0 0
BITMAP
003BED70
03E936F6
0BB000AC
2F50008E
4F20008E
5F2000BB
3F5002F5
0CD44CB0
02BED800
ENDCHAR
STARTCHAR uni041F
ENCODING 1055
SWIDTH 892 0
DWIDTH 9 0
BBX 11 9 0 0
BITMAP
04ADEFFEDB10
5E6CA22F9500
990E702F4000
582F505F2000
004F208E0000
007F00AB0000
009D00C90100
00BB00CB3C10
00A8004ED500
ENDCHAR
STARTCHAR uni0420
ENCODING 1056
SWIDTH 805 0
DWIDTH 8 0
BBX 9 11 0 -2
BITMAP
0018DFC300
01CA33CE10
09A4E05F30
1F27E06F10
5C1AC5E900
7A9FFD7000
890F700000
7A2F400000
4E6F200000
0BFC000000
0031000000
ENDCHAR
STARTCHAR uni0421
ENCODING 1057
SWIDTH 686 0
DWIDTH 7 0
BBX 9 9 0 0
BITMAP
003BED4000
03E93AD000
0CB005E000
2F50036000
4F20000000
5F20000000
2F60000000
0AE6347C10
008DFEB500
ENDCHAR
STARTCHAR uni0422
ENCODING 1058
SWIDTH 697 0
DWIDTH 7 0
BBX 9 9 0 0
BITMAP
05BDEFFFC0
6D53F82220
9902F40000
4705F20000
0007E00000
000AC00000
000CA00000
000E800000
000D500000
ENDCHAR
STARTCHAR uni0423
ENCODING 1059
SWIDTH 824 0
DWIDTH 8 0
BBX 10 12 0 -3
BITMAP
1AE8001D30
869D004F30
00AC008F10
00D801EE00
00E81BDB00
008FE7A932
000115EFD5
0005DAF500
004D24F100
009A1B9000
005FFA1000
0001100000
ENDCHAR
STARTCHAR uni0424
ENCODING 1060
SWIDTH 977 0
DWIDTH 10 0
BBX 10 14 0 -3
BITMAP
0392000000
02DFFEC000
00012E5000
01AEBF5DC2
0AC3BFC4E7
2F506F40D9
5F208B00E8
6F01E902F5
5F1AFB19D0
1DF7EDFE30
0112F21000
0C68B00000
06FE300000
0010000000
ENDCHAR
STARTCHAR uni0425
ENCODING 1061
SWIDTH 712 0
DWIDTH 7 0
BBX 10 9 -1 0
BITMAP
02CE700B90
0C58F29E20
0101FBF300
0000CF6000
0001DE0000
000CEF3000
009E2E7011
07F40AC3B4
1E6002DE70
ENDCHAR
STARTCHAR uni0426
ENCODING 1062
SWIDTH 890 0
DWIDTH 9 0
BBX 11 13 0 -4
BITMAP
1AE9000D3000
B79E002F4000
608D005F2000
00BB008F0000
00E800CD0000
02F502FB0000
05F209D90000
05F5799C5810
01CE914DE700
000007EE6000
00002F5E2000
00001EF80000
000000100000
ENDCHAR
STARTCHAR uni0427
ENCODING 1063
SWIDTH 773 0
DWIDTH 8 0
BBX 7 9 1 0
BITMAP
5D000C40
7F001F50
9D004F30
CA00AF10
DB27EE00
7FFD8D00
02309B00
0000B900
0000B700
ENDCHAR
STARTCHAR uni0428
ENCODING 1064
SWIDTH 1272 0
DWIDTH 13 0
BBX 14 9 0 0
BITMAP
1AE9002D102D10
AAAE006F105F20
808D008D008F00
00BB00BA00BD00
00E701F600EA00
02F406F305F800
04F20CF20BE603
05F8B7F8B6EB7D
01CE80AE807EC3
ENDCHAR
STARTCHAR uni0429
ENCODING 1065
SWIDTH 1272 0
DWIDTH 13 0
BBX 14 13 0 -4
BITMAP
1AE9002D102D10
AAAE006F105F20
808D008D008E00
00BB00BA00BC00
00E701F600EA00
02F406F305F800
04F20BF20BE600
05F8B7F8B7CD8B
01CE80AE806EC3
000000000AEF30
000000004F5E00
000000003FF500
00000000011000
ENDCHAR
STARTCHAR uni042A
ENCODING 1066
SWIDTH 863 0
DWIDTH 9 0
BBX 8 9 1 0
BITMAP
CFFF5000
12AD1000
00E70000
05FDED90
3FE426F5
09D000F7
07D002F5
03F53BC0
007EEA10
ENDCHAR
STARTCHAR uni042B
ENCODING 1067
SWIDTH 1078 0
DWIDTH 11 0
BBX 11 9 0 0
BITMAP
01D300000C50
04F200001F50
07D000003F30
0AEDEC405F10
8FA33BE07E00
2E7006F1AB00
0D7008E0C900
0AC26E70E800
02BED600D400
ENDCHAR
STARTCHAR uni042C
ENCODING 1068
SWIDTH 721 0
DWIDTH 7 0
BBX 8 9 0 0
BITMAP
01D30000
04F20000
07D00000
0AEDEC40
8FA33BE0
2E7006F1
0D7008E0
0AC26E70
02BED600
ENDCHAR
STARTCHAR uni042D
ENCODING 1069
SWIDTH 755 0
DWIDTH 8 0
BBX 8 9 0 0
BITMAP
02AEEA10
0D934DC0
030005F3
000002F5
00CFFFF4
001226F2
6B000AC0
7E338F40
1AEEB300
ENDCHAR
STARTCHAR uni042E
ENCODING 1070
SWIDTH 1246 0
DWIDTH 12 0
BBX 14 9 -1 0
BITMAP
02BE8005C3EB10
1D7AD02EC53DB0
1407D09EE106F2
000AC5EF6004F4
00EFFCF70004F3
003F60F70007F1
003F30D9000DA0
006F007F74BE20
006A0008EEA200
ENDCHAR
STARTCHAR uni042F
ENCODING 1071
SWIDTH 850 0
DWIDTH 9 0
BBX 10 9 0 0
BITMAP
002BFEBC00
00DB23BD00
02F400DB00
01F804F900
006FFFF600
00017DF400
6002E4F305
D74D70F679
4DD6008EA1
ENDCHAR
STARTCHAR uni0430
ENCODING 1072
SWIDTH 470 0
DWIDTH 5 0
BBX 6 5 0 0
BITMAP
05DA20
3F6E40
8B2F12
9B8F5C
4E9AD2
ENDCHAR
STARTCHAR uni0431
ENCODING 1073
SWIDTH 473 0
DWIDTH 5 0
BBX 6 10 0 0
BITMAP
006A90
0AD930
0B7000
04E300
007C00
0AEF40
5E6F72
9A1FFE
8C6F30
2DE600
ENDCHAR
STARTCHAR uni0432
ENCODING 1074
SWIDTH 473 0
DWIDTH 5 0
BBX 6 10 0 0
BITMAP
00AD10
05BC40
0C6C30
1F4D00
4F8500
6EEA00
7F7F62
6C1DFE
3E4D60
09E900
ENDCHAR
STARTCHAR uni0433
ENCODING 1075
SWIDTH 380 0
DWIDTH 4 0
BBX 5 5 0 0
BITMAP
3DE600
24B900
1B9120
8C27D0
5EFB30
ENDCHAR
STARTCHAR uni0434
ENCODING 1076
SWIDTH 479 0
DWIDTH 5 0
BBX 6 10 0 -5
BITMAP
05DA20
3F6E40
8B2F13
9B8FAB
4EDF90
03E900
2CC600
A5E200
E7B000
BD3000
ENDCHAR
STARTCHAR uni0435
ENCODING 1077
SWIDTH 393 0
DWIDTH 4 0
BBX 6 5 0 0
BITMAP
09E800
6D6C00
ACC621
8E56E1
1BEC40
ENDCHAR
STARTCHAR uni0436
ENCODING 1078
SWIDTH 717 0
DWIDTH 7 0
BBX 9 5 0 0
BITMAP
1DC78AE400
18BEBC9700
32AEE81220
B8DBDC3B40
8E695AE700
ENDCHAR
STARTCHAR uni0437
ENCODING 1079
SWIDTH 435 0
DWIDTH 4 0
BBX 7 10 -1 -5
BITMAP
01BE9000
0264E000
00199010
04E72C50
02CCD500
008F3000
08AF2000
2D4E0000
6AB80000
3EB10000
ENDCHAR
STARTCHAR uni0438
ENCODING 1080
SWIDTH 462 0
DWIDTH 5 0
BBX 6 5 0 0
BITMAP
1D1A50
5E1F30
7B6F03
7DDE6B
3E6EC1
ENDCHAR
STARTCHAR uni0439
ENCODING 1081
SWIDTH 462 0
DWIDTH 5 0
BBX 6 9 0 0
BITMAP
000030
0A25B0
09FE30
001000
1D1A50
5E1F30
7B6F03
7DDE6B
3E6EC1
ENDCHAR
STARTCHAR uni043A
ENCODING 1082
SWIDTH 465 0
DWIDTH 5 0
BBX 6 5 0 0
BITMAP
1E4DB0
5DD6E0
7EF033
7FE56C
5B5EC2
ENDCHAR
STARTCHAR uni043B
ENCODING 1083
SWIDTH 549 0
DWIDTH 5 0
BBX 7 5 0 0
BITMAP
001D7000
006F8000
62CD8040
E9D9A970
AD34E900
ENDCHAR
STARTCHAR uni043C
ENCODING 1084
SWIDTH 734 0
DWIDTH 7 0
BBX 9 5 0 0
BITMAP
004E1AA000
009F6EB000
63ECCAA030
E9BAE6C770
AE3783E900
ENDCHAR
STARTCHAR uni043D
ENCODING 1085
SWIDTH 475 0
DWIDTH 5 0
BBX 6 5 0 0
BITMAP
1E1870
5D0C50
7FFF21
7B4F4C
591ED3
ENDCHAR
STARTCHAR uni043E
ENCODING 1086
SWIDTH 451 0
DWIDTH 5 0
BBX 6 5 0 0
BITMAP
0AE900
6D8F32
A93FFB
8C4F30
1CE600
ENDCHAR
STARTCHAR uni043F
ENCODING 1087
SWIDTH 496 0
DWIDTH 5 0
BBX 7 5 0 0
BITMAP
1E3C7000
5DCE8000
7E8D5210
7F2F6D20
5B0CD400
ENDCHAR
STARTCHAR uni0440
ENCODING 1088
SWIDTH 481 0
DWIDTH 5 0
BBX 8 10 -2 -5
BITMAP
004CBD20
005F5E60
005D0E53
00BD8E5D
03EFDDD3
09BB0000
0D8A0000
1B970000
2CC30000
0DA00000
ENDCHAR
STARTCHAR uni0441
ENCODING 1089
SWIDTH 368 0
DWIDTH 4 0
BBX 5 5 0 0
BITMAP
09E600
6E7900
AA1230
9C37C0
2CEB20
ENDCHAR
STARTCHAR uni0442
ENCODING 1090
SWIDTH 744 0
DWIDTH 7 0
BBX 9 5 0 0
BITMAP
1E3D68E100
5DCEBDF000
7E7DD6C030
7F1F98C890
5B0C45EA00
ENDCHAR
STARTCHAR uni0443
ENCODING 1091
SWIDTH 479 0
DWIDTH 5 0
BBX 6 10 0 -5
BITMAP
1D1A50
5E1F30
7B6F13
7DDE9B
3EAF80
03D900
2CC600
B4E200
E7B000
BD3000
ENDCHAR
STARTCHAR uni0444
ENCODING 1092
SWIDTH 721 0
DWIDTH 7 0
BBX 9 13 0 -4
BITMAP
0000600000
0004E00000
0007B00000
000A700000
05DFAE6000
3F6EA9C000
8B2F49A020
9B8F6F7B50
4EAFECE700
003E000000
004D000000
004D000000
0015000000
ENDCHAR
STARTCHAR uni0445
ENCODING 1093
SWIDTH 529 0
DWIDTH 5 0
BBX 7 5 0 0
BITMAP
1DC7E400
1ABE8300
32AB0030
B8ED2A60
8E8CE800
ENDCHAR
STARTCHAR uni0446
ENCODING 1094
SWIDTH 501 0
DWIDTH 5 0
BBX 6 9 0 -4
BITMAP
1D1A50
5E1F20
7B6E00
7DDE5B
3E5ED4
01AE30
097D00
0AF600
001000
ENDCHAR
STARTCHAR uni0447
ENCODING 1095
SWIDTH 555 0
DWIDTH 6 0
BBX 7 6 0 0
BITMAP
01D50000
06CFF900
0B58D200
4D6D1040
D3AB3AA0
205EE910
ENDCHAR
STARTCHAR uni0448
ENCODING 1096
SWIDTH 693 0
DWIDTH 7 0
BBX 9 5 0 0
BITMAP
1D1B459000
5E1F3B8000
7B6F2F5210
7DDFBF6D10
3E5D8BD400
ENDCHAR
STARTCHAR uni0449
ENCODING 1097
SWIDTH 732 0
DWIDTH 7 0
BBX 9 9 0 -4
BITMAP
1D1B459000
5E1F3B7000
7B6F2F4000
7DDFBE7940
3E5D8AF800
00007E8000
0004AB4000
0005FA0000
0000100000
ENDCHAR
STARTCHAR uni044A
ENCODING 1098
SWIDTH 542 0
DWIDTH 5 0
BBX 7 5 0 0
BITMAP
4DE20000
1EDE6000
3F79C050
2F5AC970
09EDE900
ENDCHAR
STARTCHAR uni044B
ENCODING 1099
SWIDTH 702 0
DWIDTH 7 0
BBX 9 5 0 0
BITMAP
1E20089000
5FBE5F8000
7E5CFF5320
6E3D9E7D20
1BE908E500
ENDCHAR
STARTCHAR uni044C
ENCODING 1100
SWIDTH 517 0
DWIDTH 5 0
BBX 7 5 0 0
BITMAP
1E200000
5FBE3000
7E5C8240
6E3D8C40
1BEDE600
ENDCHAR
STARTCHAR uni044D
ENCODING 1101
SWIDTH 466 0
DWIDTH 5 0
BBX 6 5 0 0
BITMAP
1CEB00
143E62
13EFFE
985E71
4DE900
ENDCHAR
STARTCHAR uni044E
ENCODING 1102
SWIDTH 676 0
DWIDTH 7 0
BBX 9 5 0 0
BITMAP
1E16EC1000
5D2F6F7000
7FFD0DFF10
7B6E3C6000
590AE90000
ENDCHAR
STARTCHAR uni044F
ENCODING 1103
SWIDTH 543 0
DWIDTH 5 0
BBX 7 5 0 0
BITMAP
02DED100
06C5E000
B6FFC180
E68CB960
8EA2E900
ENDCHAR
STARTCHAR uni0450
ENCODING 1104
SWIDTH 393 0
DWIDTH 4 0
BBX 6 10 0 0
BITMAP
060000
1F4000
08A000
00B000
000000
09E800
6D6C00
ACC621
8E56E1
1BEC40
ENDCHAR
STARTCHAR uni0451
ENCODING 1105
SWIDTH 393 0
DWIDTH 4 0
BBX 6 7 0 0
BITMAP
0C5B60
010100
09E800
6D6C00
ACC621
8E56E1
1BEC40
ENDCHAR
STARTCHAR uni0452
ENCODING 1106
SWIDTH 514 0
DWIDTH 5 0
BBX 7 14 0 -5
BITMAP
04D00000
08C00000
5FFF5000
0E620000
2F4C8000
4EBE9000
6E8C7310
6F2DAE20
4C0FC200
00AE0000
09CB0000
5A970000
97E20000
6E700000
ENDCHAR
STARTCHAR uni0453
ENCODING 1107
SWIDTH 380 0
DWIDTH 4 0
BBX 5 10 0 0
BITMAP
001500
006D00
00C500
01A000
000000
3DE600
24B900
1B9120
8C27D0
5EFB30
ENDCHAR
STARTCHAR uni0454
ENCODING 1108
SWIDTH 379 0
DWIDTH 4 0
BBX 5 5 0 0
BITMAP
0AEA00
7E3A00
AFE020
8D46D0
1BEC30
ENDCHAR
STARTCHAR uni0455
ENCODING 1109
SWIDTH 427 0
DWIDTH 4 0
BBX 6 5 0 0
BITMAP
02E100
09E000
3CD814
C7BEC6
38FF90
ENDCHAR
STARTCHAR uni0456
ENCODING 1110
SWIDTH 246 0
DWIDTH 2 0
BBX 4 7 0 0
BITMAP
0D80
0100
1E10
5E00
7C03
7C79
3EB1
ENDCHAR
STARTCHAR uni0457
ENCODING 1111
SWIDTH 246 0
DWIDTH 2 0
BBX 4 7 0 0
BITMAP
C5B6
1010
1E10
5E00
7C03
7C79
3EB1
ENDCHAR
STARTCHAR uni0458
ENCODING 1112
SWIDTH 254 0
DWIDTH 3 0
BBX 7 12 -3 -5
BITMAP
0002E500
00001000
0002E100
0004F000
0006D020
0007CB70
0009E600
004E6000
04CF3000
0C4D0000
3CA80000
1DC10000
ENDCHAR
STARTCHAR uni0459
ENCODING 1113
SWIDTH 794 0
DWIDTH 8 0
BBX 10 5 0 0
BITMAP
001D700000
006FBCD100
92CBD4E552
E9C7B4F7D1
AD32DEDD30
ENDCHAR
STARTCHAR uni045A
ENCODING 1114
SWIDTH 751 0
DWIDTH 8 0
BBX 9 5 0 0
BITMAP
1E18700000
5D0D9E7000
7FFF98D040
7B2F59C790
5907EDEA10
ENDCHAR
STARTCHAR uni045B
ENCODING 1115
SWIDTH 502 0
DWIDTH 5 0
BBX 7 9 0 0
BITMAP
04D00000
08C00000
5FFF5000
0E720000
2F4C8000
4EBE9000
6F8C6210
6F2E7C30
4C0BE500
ENDCHAR
STARTCHAR uni045C
ENCODING 1116
SWIDTH 465 0
DWIDTH 5 0
BBX 6 10 0 0
BITMAP
000240
000AA0
001E20
005600
000000
1E4DB0
5DD6E0
7EF033
7FE56C
5B5EC2
ENDCHAR
STARTCHAR uni045D
ENCODING 1117
SWIDTH 462 0
DWIDTH 5 0
BBX 6 10 0 0
BITMAP
041000
0B8000
03E000
008300
000000
1D1A50
5E1F30
7B6F03
7DDE6B
3E6EC1
ENDCHAR
STARTCHAR uni045E
ENCODING 1118
SWIDTH 479 0
DWIDTH 5 0
BBX 6 14 0 -5
BITMAP
000030
0A25B0
09FE30
001000
1D1A50
5E1F30
7B6F13
7DDE9B
3EAF80
03D900
2CC600
B4E200
E7B000
BD3000
ENDCHAR
STARTCHAR uni045F
ENCODING 1119
SWIDTH 600 0
DWIDTH 6 0
BBX 6 6 0 -1
BITMAP
1D1A50
5E1F30
7B6F03
7DDE6B
3F5EC1
0C0000
ENDCHAR
STARTCHAR uni0462
ENCODING 1122
SWIDTH 721 0
DWIDTH 7 0
BBX 8 9 0 0
BITMAP
01D30000
4EFF6000
08E20000
0AEDEC40
8FA33BE0
2E7006F1
0D7008E0
0AC26E70
02BED600
ENDCHAR
STARTCHAR uni0463
ENCODING 1123
SWIDTH 517 0
DWIDTH 5 0
BBX 7 7 0 0
BITMAP
09700000
0E600000
AFF60000
5EBD3000
7E4C8240
6E3D8C40
1BEDE600
ENDCHAR
STARTCHAR uni046A
ENCODING 1130
SWIDTH 1234 0
DWIDTH 12 0
BBX 14 9 0 0
BITMAP
00DFFFFFFFFF60
0016F32227E300
0000E5000C8000
0000AA019E1000
00004FFFD20000
0004F7E8D80000
000D81F47E1011
A88E13F21EA3C2
5ED404D004EE50
ENDCHAR
STARTCHAR uni046B
ENCODING 1131
SWIDTH 788 0
DWIDTH 8 0
BBX 10 9 0 0
BITMAP
00001D6000
00006F6000
0000AD5000
0000EB4000
00ADCCCC00
001D7C9100
222F7E4021
B7CDDDA3D1
8E95D2CE50
ENDCHAR
STARTCHAR uni0472
ENCODING 1138
SWIDTH 816 0
DWIDTH 8 0
BBX 8 9 0 0
BITMAP
003BED70
03E936F6
0BC000BC
2F60008E
4FFFFFFE
5F3222CB
3F4002F5
0CC34DB0
02BED800
ENDCHAR
STARTCHAR uni0473
ENCODING 1139
SWIDTH 451 0
DWIDTH 5 0
BBX 6 5 0 0
BITMAP
0AE900
6D3E53
AFFFFB
8D6F20
1CE600
ENDCHAR
STARTCHAR uni0474
ENCODING 1140
SWIDTH 797 0
DWIDTH 8 0
BBX 9 9 1 0
BITMAP
5C0004EFA0
9D0008E450
AC000BB000
BB001F7000
BA004F2000
AB00AB0000
8E03F40000
4F9D900000
0AE9000000
ENDCHAR
STARTCHAR uni0475
ENCODING 1141
SWIDTH 420 0
DWIDTH 4 0
BBX 6 5 0 0
BITMAP
6A0AE5
7B2F30
7C8B00
6DE300
2E7000
ENDCHAR
STARTCHAR uni048A
ENCODING 1162
SWIDTH 890 0
DWIDTH 9 0
BBX 11 15 0 -2
BITMAP
000000230000
0003C1A60000
0001DFB00000
000001000000
1AE9000D3000
AAAE003F4000
808D005F2000
00BB008F0000
00E700CD0000
02F403FB0000
04F20AC90210
05F8A8CD7D10
01CE906EF400
0000001D6000
0000005B0000
ENDCHAR
STARTCHAR uni048B
ENCODING 1163
SWIDTH 462 0
DWIDTH 5 0
BBX 6 10 0 -2
BITMAP
0C3490
09FD20
001000
1D1A50
5E1F30
7B6F03
7DDE6B
3E5EE2
001E40
005900
ENDCHAR
STARTCHAR uni048C
ENCODING 1164
SWIDTH 721 0
DWIDTH 7 0
BBX 8 9 0 0
BITMAP
01D30000
4EFF6000
08E20000
0AEDEC40
8FA33BE0
2E7006F1
0D7008E0
0AC26E70
02BED600
ENDCHAR
STARTCHAR uni048D
ENCODING 1165
SWIDTH 517 0
DWIDTH 5 0
BBX 7 7 0 0
BITMAP
09700000
0E600000
AFF60000
5EBD3000
7E4C8240
6E3D8C40
1BEDE600
ENDCHAR
STARTCHAR uni048E
ENCODING 1166
SWIDTH 805 0
DWIDTH 8 0
BBX 9 11 0 -2
BITMAP
0018DFC300
01C933CE10
09A4E05F30
1F27E3EF30
5C1AC5EBA0
7A9FFD7000
890F700000
7A2F400000
4E6F200000
0BFC000000
0031000000
ENDCHAR
STARTCHAR uni048F
ENCODING 1167
SWIDTH 481 0
DWIDTH 5 0
BBX 8 10 -2 -5
BITMAP
004CBD20
005F5E60
005D1E51
009DCE4C
02EFDDD4
08BB0000
0C8A0000
1C970000
2CC30000
0DA00000
ENDCHAR
STARTCHAR uni0490
ENCODING 1168
SWIDTH 645 0
DWIDTH 6 0
BBX 9 12 0 0
BITMAP
0000000150
00000004D0
00000007B0
06CEFFFF70
6E6E921100
991F600000
473F300000
006F100000
008D000000
00AB000000
00CA000000
00C7000000
ENDCHAR
STARTCHAR uni0491
ENCODING 1169
SWIDTH 394 0
DWIDTH 4 0
BBX 5 7 0 0
BITMAP
000410
001C30
1EFD10
5D1000
7B0000
7A0000
590000
ENDCHAR
STARTCHAR uni0492
ENCODING 1170
SWIDTH 635 0
DWIDTH 6 0
BBX 9 10 0 0
BITMAP
0000000100
06CEFFFF70
6E6E921100
991F600000
473F300000
06FFF50000
009E200000
00AC000000
00CA000000
00C7000000
ENDCHAR
STARTCHAR uni0493
ENCODING 1171
SWIDTH 380 0
DWIDTH 4 0
BBX 5 5 0 0
BITMAP
3DE600
24B900
9CD120
8C77D0
5EFB30
ENDCHAR
STARTCHAR uni0494
ENCODING 1172
SWIDTH 884 0
DWIDTH 9 0
BBX 10 15 0 -5
BITMAP
0000000100
06CEFFFF70
6E6E921100
991F600000
693F300000
006F5CEA00
008FB47F30
00AE104F37
00CA005FDB
00C7008F80
000007FA00
00006EE700
0001E5F200
0003E8B000
0001DD2000
ENDCHAR
STARTCHAR uni0495
ENCODING 1173
SWIDTH 441 0
DWIDTH 4 0
BBX 6 9 0 -4
BITMAP
3DE600
24B900
1B9100
8C2485
5EFF91
06E900
3BA500
4FB000
010000
ENDCHAR
STARTCHAR uni0496
ENCODING 1174
SWIDTH 1234 0
DWIDTH 12 0
BBX 14 13 0 -4
BITMAP
02CE503E108EA0
0448E06F04E490
0001F47D0B9000
0000A99C8E2000
00004FFFD20000
0004F7E8D80000
000D91F47F2000
A88E13F21EC687
5ED404D003DF70
0000000009DC00
000000008A9800
000000008FD200
00000000010000
ENDCHAR
STARTCHAR uni0497
ENCODING 1175
SWIDTH 803 0
DWIDTH 8 0
BBX 9 9 0 -4
BITMAP
1DC78AE400
18BEBC9700
32AEE81100
B8DBDC34B0
8E695CFE50
000009E400
000087E000
00009F6000
0000010000
ENDCHAR
STARTCHAR uni0498
ENCODING 1176
SWIDTH 725 0
DWIDTH 7 0
BBX 7 13 0 -4
BITMAP
008EFB10
07E43F70
09900D60
01205D10
004EDD40
03010AD0
6E000AC0
4F628F50
08EFF500
007CF200
04E5D000
04FF5000
00110000
ENDCHAR
STARTCHAR uni0499
ENCODING 1177
SWIDTH 445 0
DWIDTH 4 0
BBX 6 9 0 -4
BITMAP
1BEB00
485F10
03E700
857E97
5EFF80
05D800
2DA500
2FC000
010000
ENDCHAR
STARTCHAR uni049A
ENCODING 1178
SWIDTH 937 0
DWIDTH 9 0
BBX 11 13 0 -4
BITMAP
05CFEA00A800
2F52F803F400
5E02F40BC000
1904F49D2000
001EFFA10000
0009D8F30000
510AA0EA0000
AA4E508F8880
2CE9001DF700
0000009DD000
000008B99000
000008FD2000
000000100000
ENDCHAR
STARTCHAR uni049B
ENCODING 1179
SWIDTH 531 0
DWIDTH 5 0
BBX 7 9 0 -4
BITMAP
1E4DB000
5DD6E000
7EF03000
7FF43940
5B6EF800
006E8000
04AC4000
05FA0000
00100000
ENDCHAR
STARTCHAR uni049C
ENCODING 1180
SWIDTH 937 0
DWIDTH 9 0
BBX 11 9 0 0
BITMAP
05CFEA00A800
2F52F802F400
5E02F83AC000
1904FADD2000
001EFFA10000
0009DCF20000
410AADFA0040
A94E569F6A70
2CE9001BE900
ENDCHAR
STARTCHAR uni049D
ENCODING 1181
SWIDTH 485 0
DWIDTH 5 0
BBX 7 5 0 0
BITMAP
1E2DD100
5EB8C100
7FF30510
7FF84D00
594ED300
ENDCHAR
STARTCHAR uni049E
ENCODING 1182
SWIDTH 937 0
DWIDTH 9 0
BBX 11 9 0 0
BITMAP
05CFEA00A800
2F52F803F400
5E4EFF3BC000
1915F69D2000
001EFFA10000
0009D8F20000
410AA0EA0040
A94E508F6A70
2CE9001BE900
ENDCHAR
STARTCHAR uni049F
ENCODING 1183
SWIDTH 473 0
DWIDTH 5 0
BBX 6 9 0 0
BITMAP
04D000
08C000
5FFF50
0E6200
2F5DC0
4EC7E1
6EF133
6FE65C
4C5DD2
ENDCHAR
STARTCHAR uni04A0
ENCODING 1184
SWIDTH 937 0
DWIDTH 9 0
BBX 11 10 0 0
BITMAP
011000000000
0FFFFC00A700
0233F603F200
0002F40B9000
0004F49C1000
001EFF910000
0009D8F20000
410AA0EA0040
A94E508F6A70
2CE9001BE900
ENDCHAR
STARTCHAR uni04A1
ENCODING 1185
SWIDTH 555 0
DWIDTH 6 0
BBX 7 5 0 0
BITMAP
7FE5E900
07CE6D00
08EE0330
09FF47A0
06A7EB10
ENDCHAR
STARTCHAR uni04A2
ENCODING 1186
SWIDTH 907 0
DWIDTH 9 0
BBX 12 14 -1 -4
BITMAP
000000008D30
02BE8004E870
1C59D00A8660
0307D00E5C20
0009B03FD600
00DFFFEF3000
002F716E0000
003F305F1000
006F002FB7B3
006A0007FD40
0000002CE800
000000D7D400
000000CFA000
000000010000
ENDCHAR
STARTCHAR uni04A3
ENCODING 1187
SWIDTH 515 0
DWIDTH 5 0
BBX 7 9 0 -4
BITMAP
1E187000
5D0C5000
7FEF2000
7B3F3820
590CF800
008E6000
068D2000
08F80000
00100000
ENDCHAR
STARTCHAR uni04A4
ENCODING 1188
SWIDTH 873 0
DWIDTH 9 0
BBX 12 9 -1 0
BITMAP
02BE80009FFC
0C59D006E321
1307D00D9000
0009B02F4000
00DFFFEF1000
002F716F0000
003F305F0040
006F002F65C0
006A0007EC20
ENDCHAR
STARTCHAR uni04A5
ENCODING 1189
SWIDTH 475 0
DWIDTH 5 0
BBX 6 6 0 0
BITMAP
000042
1E18C3
5D0C50
7FFF21
7B4F4C
591ED3
ENDCHAR
STARTCHAR uni04A8
ENCODING 1192
SWIDTH 997 0
DWIDTH 10 0
BBX 12 9 0 0
BITMAP
004CD0000000
03EA35DFB200
0BB04F85DA00
2F50BB007F00
4F30E8006F00
5F30E8009C00
2F609D14F400
0BE76FDFB7C2
019EFDBEFB50
ENDCHAR
STARTCHAR uni04A9
ENCODING 1193
SWIDTH 574 0
DWIDTH 6 0
BBX 7 5 0 0
BITMAP
0AD9D200
6D5C9700
A9799670
8B7DE8C0
2CEDEA10
ENDCHAR
STARTCHAR uni04AA
ENCODING 1194
SWIDTH 781 0
DWIDTH 8 0
BBX 9 14 0 -5
BITMAP
003BED5000
03E929D000
0BB005E000
2F50026000
4F30000000
5F20000000
3F50003030
0CD428F8B0
01AEEDF800
00002DA000
0001CD6000
000A5E2000
000E6C0000
000BE30000
ENDCHAR
STARTCHAR uni04AB
ENCODING 1195
SWIDTH 431 0
DWIDTH 4 0
BBX 6 9 0 -4
BITMAP
09E600
6D7900
A91200
9C2494
2DFF70
06E800
4AB400
5FA000
010000
ENDCHAR
STARTCHAR uni04AC
ENCODING 1196
SWIDTH 697 0
DWIDTH 7 0
BBX 9 13 0 -4
BITMAP
06BDEFFFC0
6D42F82220
9A02F40000
3505F20000
0008E00000
000AC00000
000CA00000
000EB20000
000DF50000
00AAE20000
04F5D00000
03FF500000
0011000000
ENDCHAR
STARTCHAR uni04AD
ENCODING 1197
SWIDTH 784 0
DWIDTH 8 0
BBX 9 9 0 -4
BITMAP
1E3D68E100
5DCEBDF000
7E7DD6C000
7F1F97C4A0
5B0C43FC30
00002BF100
0000B7C000
0000CE4000
0000110000
ENDCHAR
STARTCHAR uni04AE
ENCODING 1198
SWIDTH 677 0
DWIDTH 7 0
BBX 7 9 1 0
BITMAP
7B002D40
5F30AC00
0E94F400
08ECA000
02FE2000
00C90000
00C70000
00D60000
00C50000
ENDCHAR
STARTCHAR uni04AF
ENCODING 1199
SWIDTH 472 0
DWIDTH 5 0
BBX 6 9 0 -4
BITMAP
6A0B70
6C2F82
4E2FFE
2FA820
1FC000
0F5000
0E5000
0D6000
052000
ENDCHAR
STARTCHAR uni04B0
ENCODING 1200
SWIDTH 677 0
DWIDTH 7 0
BBX 7 9 1 0
BITMAP
7C002D40
4F30AC00
0D94F300
07ED8000
01FD1000
0DFFA000
02D81000
00D60000
00C50000
ENDCHAR
STARTCHAR uni04B1
ENCODING 1201
SWIDTH 472 0
DWIDTH 5 0
BBX 6 9 0 -4
BITMAP
690B70
6D2F82
4E2FFE
2F9820
1FD100
BFF600
1E6000
0D6000
052000
ENDCHAR
STARTCHAR uni04B2
ENCODING 1202
SWIDTH 716 0
DWIDTH 7 0
BBX 10 13 -1 -4
BITMAP
02CE700B90
0C48F2AD20
0001FCE300
0000BF5000
0002EE0000
001CDF3000
00AD2E7000
07F40AD585
1E6002EE70
00001BEA00
0000B8C600
0000BFC000
0000010000
ENDCHAR
STARTCHAR uni04B3
ENCODING 1203
SWIDTH 601 0
DWIDTH 6 0
BBX 7 9 0 -4
BITMAP
1DC8E400
1ABE8300
22AA0000
B7ED23A0
8E9EFE50
0009E300
0097D000
00AF6000
00010000
ENDCHAR
STARTCHAR uni04B4
ENCODING 1204
SWIDTH 1040 0
DWIDTH 10 0
BBX 12 13 0 -4
BITMAP
05BEFFE56A00
6D52DA20AC00
9901F600CA00
5804F301F700
0007F004F500
000AC009F300
000C902CF200
000CB3B5E944
0006ED419FD4
0000002DEE00
0000009B8A00
0000007FE200
000000010000
ENDCHAR
STARTCHAR uni04B5
ENCODING 1205
SWIDTH 501 0
DWIDTH 5 0
BBX 6 11 0 -4
BITMAP
05EF90
002210
1D1A50
5E1F20
7B6E00
7DDE5B
3E5ED4
01AE30
097D00
0AF600
001000
ENDCHAR
STARTCHAR uni04B6
ENCODING 1206
SWIDTH 804 0
DWIDTH 8 0
BBX 9 13 1 -4
BITMAP
5D000C4000
7F001F5000
9D004F3000
CA00AF1000
DB27EE0000
7FFD9C0000
02309C0100
00007FDD30
00003CD300
0005ED7000
000E6E3000
000CFA0000
0000100000
ENDCHAR
STARTCHAR uni04B7
ENCODING 1207
SWIDTH 631 0
DWIDTH 6 0
BBX 8 10 0 -4
BITMAP
00620000
04CFF900
0958D200
3C6D1000
C3AA3494
305EFF70
0007E800
004AC300
005FA000
00010000
ENDCHAR
STARTCHAR uni04B8
ENCODING 1208
SWIDTH 773 0
DWIDTH 8 0
BBX 7 9 1 0
BITMAP
5D000C40
7F001F50
AC334F30
C985BF10
CCBBEE00
5DFC8D00
00D09B00
0040B900
0000B700
ENDCHAR
STARTCHAR uni04B9
ENCODING 1209
SWIDTH 575 0
DWIDTH 6 0
BBX 7 6 0 0
BITMAP
01D84000
06DEDC00
0B68E300
4D4F3070
D37D39B0
202DEA10
ENDCHAR
STARTCHAR uni04BA
ENCODING 1210
SWIDTH 755 0
DWIDTH 8 0
BBX 9 9 0 0
BITMAP
01E3000000
04F2000000
06F0000000
08D0000000
0AB9EE5000
0DF83BD000
0F9009D030
2F500BB6A0
2E2008FA10
ENDCHAR
STARTCHAR uni04BB
ENCODING 1211
SWIDTH 502 0
DWIDTH 5 0
BBX 7 10 0 0
BITMAP
00AD1000
05CC4000
0B6C2000
0E5C0000
3FB30000
5F9C8000
6DBE9000
7E8C6210
7F2E7C30
6B0BE500
ENDCHAR
STARTCHAR uni04BC
ENCODING 1212
SWIDTH 808 0
DWIDTH 8 0
BBX 10 9 0 0
BITMAP
0002AEE600
001DB37F10
008E102F30
36D8003F20
5FFFFFFD00
02F7222000
00E9000000
007F8335B3
0006CFEC70
ENDCHAR
STARTCHAR uni04BD
ENCODING 1213
SWIDTH 483 0
DWIDTH 5 0
BBX 6 5 0 0
BITMAP
01AE70
07C7B0
BCBD43
4CD46E
02CFB3
ENDCHAR
STARTCHAR uni04BE
ENCODING 1214
SWIDTH 808 0
DWIDTH 8 0
BBX 10 13 0 -4
BITMAP
0002AEE600
001DB37F10
008E102F30
36D8003F20
5FFFFFFD00
02F7222000
00E9000000
008F8335B3
0007FFEC70
0008800000
000B600000
0007FB0000
0000100000
ENDCHAR
STARTCHAR uni04BF
ENCODING 1215
SWIDTH 483 0
DWIDTH 5 0
BBX 7 8 0 -3
BITMAP
00AE6000
07C7B000
9BAC6100
6DD53D10
04FDE500
005C1000
00880000
003DD000
ENDCHAR
STARTCHAR uni04C0
ENCODING 1216
SWIDTH 495 0
DWIDTH 5 0
BBX 7 9 -1 0
BITMAP
00CFFF60
001AD200
000BB000
000D8000
000F6000
002F4000
004F2000
018F2000
1EFFF400
ENDCHAR
STARTCHAR uni04C1
ENCODING 1217
SWIDTH 1234 0
DWIDTH 12 0
BBX 14 11 0 0
BITMAP
000001D2680000
000000AEC20000
02CE503E108EA0
0448E06F04E490
0001F47D0B9000
0000A99C8E2000
00004FFFD20000
0004F7E8D80000
000D81F47E1011
A88E13F21EA3C2
5ED404D004EE50
ENDCHAR
STARTCHAR uni04C2
ENCODING 1218
SWIDTH 717 0
DWIDTH 7 0
BBX 9 9 0 0
BITMAP
0000020000
00671D2000
004FF70000
0001100000
1DC78AE400
18BEBC9700
32AEE81220
B8DBDC3B40
8E695AE700
ENDCHAR
STARTCHAR uni04C3
ENCODING 1219
SWIDTH 937 0
DWIDTH 9 0
BBX 11 13 0 -4
BITMAP
05CFEA00A800
2F52F803F400
5E02F40BC000
1904F49D2000
001EFFA10000
0009D8F30000
510AA0EA0000
AA4E508F8880
2CE9001DF700
0000009DD000
000008B99000
000008FD2000
000000100000
ENDCHAR
STARTCHAR uni04C4
ENCODING 1220
SWIDTH 531 0
DWIDTH 5 0
BBX 7 9 0 -4
BITMAP
1E4DB000
5DD6E000
7EF03000
7FF43940
5B6EF800
006E8000
04AC4000
05FA0000
00100000
ENDCHAR
STARTCHAR uni04C5
ENCODING 1221
SWIDTH 861 0
DWIDTH 9 0
BBX 10 11 0 -2
BITMAP
000006E100
00000CF200
00002FF100
00006EF000
0000CBF000
0003F6F100
400AB3F203
D77F30E86A
4ED5006FD1
0000003E20
0000009700
ENDCHAR
STARTCHAR uni04C6
ENCODING 1222
SWIDTH 549 0
DWIDTH 5 0
BBX 7 7 0 -2
BITMAP
001D7000
006F8000
62CD8040
E9D9A970
AD35FB00
0003E100
00096000
ENDCHAR
STARTCHAR uni04C7
ENCODING 1223
SWIDTH 907 0
DWIDTH 9 0
BBX 12 14 -1 -4
BITMAP
000000008D30
02BE8004E870
1C59D00A8660
0307D00E5C20
0009B03FD600
00DFFFEF3000
002F716E0000
003F305F1000
006F002FB7B3
006A0007FD40
0000002CE800
000000D7D400
000000CFA000
000000010000
ENDCHAR
STARTCHAR uni04C8
ENCODING 1224
SWIDTH 515 0
DWIDTH 5 0
BBX 7 9 0 -4
BITMAP
1E187000
5D0C5000
7FEF2000
7B3F3820
590CF800
008E6000
068D2000
08F80000
00100000
ENDCHAR
STARTCHAR uni04C9
ENCODING 1225
SWIDTH 873 0
DWIDTH 9 0
BBX 11 13 -1 -3
BITMAP
000000008D30
02BE8004E870
1C59D00A8660
0307D00E5C20
0009B03FD700
00DFFFEF3000
002F716F0000
003F305F1050
006F002F99C0
006A0007FE20
00000001E600
00000008C000
000000032000
ENDCHAR
STARTCHAR uni04CA
ENCODING 1226
SWIDTH 475 0
DWIDTH 5 0
BBX 6 7 0 -2
BITMAP
1E1870
5D0C50
7FEF21
7B4F3D
590EF5
000C70
004B00
ENDCHAR
STARTCHAR uni04CB
ENCODING 1227
SWIDTH 773 0
DWIDTH 8 0
BBX 7 13 1 -4
BITMAP
5D000C40
7F001F50
9D004F30
CA00AF10
DB27EE00
7FFD8D00
02309B00
0001C900
001CF700
04DD6000
1F5E2000
1EF80000
01100000
ENDCHAR
STARTCHAR uni04CC
ENCODING 1228
SWIDTH 555 0
DWIDTH 6 0
BBX 7 7 0 -1
BITMAP
01D50000
06CFF900
0B58D200
4D6D1040
D3AB3A90
205EFB00
00007500
ENDCHAR
STARTCHAR uni04CD
ENCODING 1229
SWIDTH 1133 0
DWIDTH 11 0
BBX 13 11 0 -2
BITMAP
00007E107E1000
0000CF20EF1000
0000FF15FF0000
0003EF1BCE0000
0007BF3F8D0000
000B8E9C7D0000
301E3DE76E0020
C78C0BF23F5870
5ED306B009FA00
0000000007C000
000000000D3000
ENDCHAR
STARTCHAR uni04CE
ENCODING 1230
SWIDTH 734 0
DWIDTH 7 0
BBX 9 7 0 -2
BITMAP
004E1AA000
009F6EB000
63ECCAA030
E9BAE6C770
AE3782FC00
000003E200
0000096000
ENDCHAR
STARTCHAR uni04CF
ENCODING 1231
SWIDTH 222 0
DWIDTH 2 0
BBX 3 9 0 0
BITMAP
0250
09B0
0B80
0E50
2F30
4F00
6D00
8B00
9800
ENDCHAR
STARTCHAR uni04D0
ENCODING 1232
SWIDTH 786 0
DWIDTH 8 0
BBX 10 11 0 0
BITMAP
0000882C10
00004DE700
0005BEFD40
009E846610
07F302F400
0E8005F100
4F3009D000
6F100DB000
6F204F9030
2FA5DDC5D1
06EE54ED40
ENDCHAR
STARTCHAR uni04D1
ENCODING 1233
SWIDTH 470 0
DWIDTH 5 0
BBX 6 9 0 0
BITMAP
000030
0943C0
07FE40
001100
05DA20
3F6E40
8B2F12
9B8F5C
4E9AD2
ENDCHAR
STARTCHAR uni04D2
ENCODING 1234
SWIDTH 786 0
DWIDTH 8 0
BBX 10 11 0 0
BITMAP
00008A7B00
0000111100
0005BEFD40
009E846610
07F302F400
0E8005F100
4F3009D000
6F100DB000
6F204F9030
2FA5DDC5D1
06EE54ED40
ENDCHAR
STARTCHAR uni04D3
ENCODING 1235
SWIDTH 470 0
DWIDTH 5 0
BBX 6 7 0 0
BITMAP
06B5C0
011010
05DA20
3F6E40
8B2F12
9B8F5C
4E9AD2
ENDCHAR
STARTCHAR uni04D4
ENCODING 1236
SWIDTH 1015 0
DWIDTH 10 0
BBX 12 9 0 0
BITMAP
0006CD5EFFA0
00AF83BA2210
07F301F60000
0E8004F30000
4F3008FFFE00
6F100CD22100
6F103FC00000
2F94DAF734A5
06DE707DFD80
ENDCHAR
STARTCHAR uni04D5
ENCODING 1237
SWIDTH 653 0
DWIDTH 7 0
BBX 8 5 0 0
BITMAP
05DCCE30
3F6C8B60
8A1F9C13
9B8FB4AA
3EB5DE91
ENDCHAR
STARTCHAR uni04D6
ENCODING 1238
SWIDTH 686 0
DWIDTH 7 0
BBX 9 11 0 0
BITMAP
000C44B000
0007ED4000
006CFD5000
05F738E000
0AC004F100
08E3028000
02DFB00000
3E93100000
9D00000000
7F73347B10
07DFFDB500
ENDCHAR
STARTCHAR uni04D7
ENCODING 1239
SWIDTH 393 0
DWIDTH 4 0
BBX 6 9 0 0
BITMAP
000120
2B0970
1DFB10
002000
09E800
6D6C00
ACC621
8E56E1
1BEC40
ENDCHAR
STARTCHAR uni04D8
ENCODING 1240
SWIDTH 792 0
DWIDTH 8 0
BBX 8 9 0 0
BITMAP
018DFC40
08B539F3
020000E8
000000BB
3EFFFFFA
6F4223F8
4F4006F3
0DC35E80
02BED700
ENDCHAR
STARTCHAR uni04D9
ENCODING 1241
SWIDTH 455 0
DWIDTH 5 0
BBX 6 5 0 0
BITMAP
2DEA00
144F42
8FFFFC
B86F50
5EE800
ENDCHAR
STARTCHAR uni04DA
ENCODING 1242
SWIDTH 792 0
DWIDTH 8 0
BBX 8 11 0 0
BITMAP
001D4D50
00010100
018DFC40
08B539F3
020000E8
000000BB
3EFFFFFA
6F4223F8
4F4006F3
0DC35E80
02BED700
ENDCHAR
STARTCHAR uni04DB
ENCODING 1243
SWIDTH 455 0
DWIDTH 5 0
BBX 6 7 0 0
BITMAP
0D4B60
010100
2DEA00
144F42
8FFFFC
B86F50
5EE800
ENDCHAR
STARTCHAR uni04DC
ENCODING 1244
SWIDTH 1234 0
DWIDTH 12 0
BBX 14 11 0 0
BITMAP
000001E3D40000
00000010100000
02CE503E108EA0
0448E06F04E490
0001F47D0B9000
0000A99C8E2000
00004FFFD20000
0004F7E8D80000
000D81F47E1011
A88E13F21EA3C2
5ED404D004EE50
ENDCHAR
STARTCHAR uni04DD
ENCODING 1245
SWIDTH 717 0
DWIDTH 7 0
BBX 9 7 0 0
BITMAP
003E2E2000
0001010000
1DC78AE400
18BEBC9700
32AEE81220
B8DBDC3B40
8E695AE700
ENDCHAR
STARTCHAR uni04DE
ENCODING 1246
SWIDTH 725 0
DWIDTH 7 0
BBX 7 11 0 0
BITMAP
001E3D40
00010100
008EFB10
07E43F70
09900D60
01205D10
004EDD40
03010AD0
6E000AC0
4F628F60
07DFC500
ENDCHAR
STARTCHAR uni04DF
ENCODING 1247
SWIDTH 435 0
DWIDTH 4 0
BBX 7 12 -1 -5
BITMAP
03D2E100
00101000
01BE9000
0264E000
00199010
04E72C50
02CCD500
008F3000
08AF2000
2D4E0000
6AB80000
3EB10000
ENDCHAR
STARTCHAR uni04E0
ENCODING 1248
SWIDTH 744 0
DWIDTH 7 0
BBX 8 9 0 0
BITMAP
01AEFEB5
08C239F5
08A00D90
01209D10
004EDE40
03010AD0
6E000AC0
4F628F60
07DFC500
ENDCHAR
STARTCHAR uni04E1
ENCODING 1249
SWIDTH 435 0
DWIDTH 4 0
BBX 7 10 -1 -5
BITMAP
06FFF900
003DB200
01D70220
06D15E40
019EC300
00AF3000
099F2000
3C4E0000
6AB80000
3EB00000
ENDCHAR
STARTCHAR uni04E2
ENCODING 1250
SWIDTH 890 0
DWIDTH 9 0
BBX 11 11 0 0
BITMAP
0002EFD00000
000022100000
1AE9000D3000
AAAE003F4000
808D005F2000
00BB008F0000
00E700CD0000
02F403FB0000
04F20AC90210
05F8A8CD7D10
01CE905ED400
ENDCHAR
STARTCHAR uni04E3
ENCODING 1251
SWIDTH 462 0
DWIDTH 5 0
BBX 6 7 0 0
BITMAP
08FF70
012200
1D1A50
5E1F30
7B6F03
7DDE6B
3E6EC1
ENDCHAR
STARTCHAR uni04E4
ENCODING 1252
SWIDTH 890 0
DWIDTH 9 0
BBX 11 11 0 0
BITMAP
0003E3E20000
000010100000
1AE9000D3000
AAAE003F4000
808D005F2000
00BB008F0000
00E700CD0000
02F403FB0000
04F20AC90210
05F8A8CD7D10
01CE905ED400
ENDCHAR
STARTCHAR uni04E5
ENCODING 1253
SWIDTH 462 0
DWIDTH 5 0
BBX 6 7 0 0
BITMAP
0897A0
011110
1D1A50
5E1F30
7B6F03
7DDE6B
3E6EC1
ENDCHAR
STARTCHAR uni04E6
ENCODING 1254
SWIDTH 816 0
DWIDTH 8 0
BBX 8 11 0 0
BITMAP
000988A0
00010110
003BED70
03E936F6
0BB000AC
2F50008E
4F20008E
5F2000BB
3F5002F5
0CD44CB0
02BED800
ENDCHAR
STARTCHAR uni04E7
ENCODING 1255
SWIDTH 451 0
DWIDTH 5 0
BBX 6 7 0 0
BITMAP
0D4C60
010100
0AE900
6D8F32
A93FFB
8C4F30
1CE600
ENDCHAR
STARTCHAR uni04E8
ENCODING 1256
SWIDTH 816 0
DWIDTH 8 0
BBX 8 9 0 0
BITMAP
003BED70
03E936F6
0BB000BC
2F60008E
4FFFFFFE
5F4222BB
3F5002F5
0CD34CB0
02BED800
ENDCHAR
STARTCHAR uni04E9
ENCODING 1257
SWIDTH 451 0
DWIDTH 5 0
BBX 6 5 0 0
BITMAP
0AE900
6D4E42
AFFFFB
8D6F20
1CE600
ENDCHAR
STARTCHAR uni04EA
ENCODING 1258
SWIDTH 816 0
DWIDTH 8 0
BBX 8 11 0 0
BITMAP
000988A0
00010110
003BED70
03E936F6
0BB000BC
2F60008E
4FFFFFFE
5F4222BB
3F5002F5
0CD34CB0
02BED800
ENDCHAR
STARTCHAR uni04EB
ENCODING 1259
SWIDTH 451 0
DWIDTH 5 0
BBX 6 7 0 0
BITMAP
0D4C50
010100
0AE900
6D4E42
AFFFFB
8D6F20
1CE600
ENDCHAR
STARTCHAR uni04EC
ENCODING 1260
SWIDTH 755 0
DWIDTH 8 0
BBX 8 11 0 0
BITMAP
001E3D40
00010100
02AEEA10
0D934DC0
030005F3
000002F5
00CFFFF4
001226F2
6B000AC0
7E338F40
1AEEB300
ENDCHAR
STARTCHAR uni04ED
ENCODING 1261
SWIDTH 466 0
DWIDTH 5 0
BBX 6 7 0 0
BITMAP
0B6980
010100
1CEB00
143E62
13EFFE
985E71
4DE900
ENDCHAR
STARTCHAR uni04EE
ENCODING 1262
SWIDTH 824 0
DWIDTH 8 0
BBX 10 14 0 -3
BITMAP
0004FFC000
0000221000
1AE8001D30
869D004F30
00AC008F10
00D801EE00
00E81BDB00
008FE7A932
000115EFD5
0005DAF500
004D24F100
009A1B9000
005FFA1000
0001100000
ENDCHAR
STARTCHAR uni04EF
ENCODING 1263
SWIDTH 479 0
DWIDTH 5 0
BBX 6 12 0 -5
BITMAP
08FF70
012200
1D1A50
5E1F30
7B6F13
7DDE9B
3EAF80
03D900
2CC600
B4E200
E7B000
BD3000
ENDCHAR
STARTCHAR uni04F0
ENCODING 1264
SWIDTH 824 0
DWIDTH 8 0
BBX 10 14 0 -3
BITMAP
0004D3E100
0000101000
1AE8001D30
869D004F30
00AC008F10
00D801EE00
00E81BDB00
008FE7A932
000115EFD5
0005DAF500
004D24F100
009A1B9000
005FFA1000
0001100000
ENDCHAR
STARTCHAR uni04F1
ENCODING 1265
SWIDTH 479 0
DWIDTH 5 0
BBX 6 12 0 -5
BITMAP
0897A0
011110
1D1A50
5E1F30
7B6F13
7DDE9B
3EAF80
03D900
2CC600
B4E200
E7B000
BD3000
ENDCHAR
STARTCHAR uni04F2
ENCODING 1266
SWIDTH 824 0
DWIDTH 8 0
BBX 10 16 0 -3
BITMAP
0000325100
0000B7E400
0000C3A000
0000000000
1AE8001D30
869D004F30
00AC008F10
00D801EE00
00E81BDB00
008FE7A932
000115EFD5
0005DAF500
004D24F100
009A1B9000
005FFA1000
0001100000
ENDCHAR
STARTCHAR uni04F3
ENCODING 1267
SWIDTH 479 0
DWIDTH 5 0
BBX 6 15 0 -5
BITMAP
003251
00C8E5
01E5D0
038650
000000
1D1A50
5E1F30
7B6F13
7DDE9B
3EAF80
03D900
2CC600
B4E200
E7B000
BD3000
ENDCHAR
STARTCHAR uni04F4
ENCODING 1268
SWIDTH 773 0
DWIDTH 8 0
BBX 7 11 1 0
BITMAP
01E3D400
00101000
5D000C40
7F001F50
9D004F30
CA00AF10
DB27EE00
7FFD8D00
02309B00
0000B900
0000B700
ENDCHAR
STARTCHAR uni04F5
ENCODING 1269
SWIDTH 555 0
DWIDTH 6 0
BBX 7 7 0 0
BITMAP
003D2E10
01D60100
06CFF900
0B58D200
4D6D1040
D3AB3AA0
205EE910
ENDCHAR
STARTCHAR uni04F6
ENCODING 1270
SWIDTH 600 0
DWIDTH 6 0
BBX 9 14 0 -4
BITMAP
0000000100
07CEFFFF70
7D6E921100
991F600000
364F300000
006F100000
009D000000
00BB000000
00DC300000
00CF600000
08BD400000
2F4E100000
1EF7000000
0110000000
ENDCHAR
STARTCHAR uni04F7
ENCODING 1271
SWIDTH 441 0
DWIDTH 4 0
BBX 6 9 0 -4
BITMAP
3DE600
24B900
1B9100
8C2485
5EFF91
06E900
3BA500
4FB000
010000
ENDCHAR
STARTCHAR uni04F8
ENCODING 1272
SWIDTH 1078 0
DWIDTH 11 0
BBX 11 11 0 0
BITMAP
00002E3E3000
000001010000
01D300000C50
04F200001F50
07D000003F30
0AEDEC405F10
8FA33BE07E00
2E7006F1AB00
0D7008E0C900
0AC26E70E800
02BED600D400
ENDCHAR
STARTCHAR uni04F9
ENCODING 1273
SWIDTH 702 0
DWIDTH 7 0
BBX 9 7 0 0
BITMAP
005C4D0000
0001010000
1E20089000
5FBE5F8000
7E5CFF5320
6E3D9E7D20
1BE908E500
ENDCHAR
STARTCHAR uni04FA
ENCODING 1274
SWIDTH 635 0
DWIDTH 6 0
BBX 10 15 -1 -5
BITMAP
0000000010
006CEFFFF7
06E6E92110
0991F60000
0473F30000
006FFF5000
0009E20000
0009C00000
000BA00000
000E800000
001F500000
005F100000
67AB000000
7FE3000000
0210000000
ENDCHAR
STARTCHAR uni04FB
ENCODING 1275
SWIDTH 441 0
DWIDTH 4 0
BBX 6 9 0 -4
BITMAP
3DE600
24B900
9DD100
9C7585
5EFF91
06E900
3BA500
4FB000
010000
ENDCHAR
STARTCHAR uni04FC
ENCODING 1276
SWIDTH 716 0
DWIDTH 7 0
BBX 10 13 -1 -4
BITMAP
02CE700B90
0C48F2AD20
0001FCE300
0000BF5000
0002EE0000
001CDF3000
00AD2E7000
07F40AD585
1E6002EE70
00001BEA00
0000B8C600
0000BFC000
0000010000
ENDCHAR
STARTCHAR uni04FD
ENCODING 1277
SWIDTH 601 0
DWIDTH 6 0
BBX 7 9 0 -4
BITMAP
1DC8E400
1ABE8300
22AA0000
B7ED23A0
8E9EFE50
0009E300
0097D000
00AF6000
00010000
ENDCHAR
STARTCHAR uni04FE
ENCODING 1278
SWIDTH 712 0
DWIDTH 7 0
BBX 10 9 -1 0
BITMAP
02CE700B90
0C58F19E20
0101FBF500
0000CF8000
005FFFF600
0009FF3000
006F5F6001
05F50BC3A5
1E7003DE70
ENDCHAR
STARTCHAR uni04FF
ENCODING 1279
SWIDTH 529 0
DWIDTH 5 0
BBX 7 5 0 0
BITMAP
1DC8E400
1ABE8300
24FF6020
B8ED3970
8E8CE800
ENDCHAR
STARTCHAR uni0510
ENCODING 1296
SWIDTH 706 0
DWIDTH 7 0
BBX 7 9 0 0
BITMAP
008EEA10
05F43D90
07D00980
03F30100
08DED000
5F201120
7F1009A0
3FA35E70
06DFD800
ENDCHAR
STARTCHAR uni0511
ENCODING 1297
SWIDTH 392 0
DWIDTH 4 0
BBX 5 5 0 0
BITMAP
1BE600
4C3500
2EB010
BB46D0
6EEB30
ENDCHAR
STARTCHAR uni0512
ENCODING 1298
SWIDTH 884 0
DWIDTH 9 0
BBX 11 13 0 -4
BITMAP
000006E10000
00000CF20000
00002FF10000
00006EF00000
0000CBF00000
0003F6F10000
400AB3F20000
D87F31F94B10
4ED5007FD500
000003DE6000
00001E5E2000
00001EF80000
000001100000
ENDCHAR
STARTCHAR uni0513
ENCODING 1299
SWIDTH 631 0
DWIDTH 6 0
BBX 8 9 0 -4
BITMAP
001D7000
006F8000
51CD7000
E8DA9284
AD36FF80
0006D800
0049D400
005FA000
00010000
ENDCHAR
STARTCHAR uni051A
ENCODING 1306
SWIDTH 816 0
DWIDTH 8 0
BBX 9 13 0 -4
BITMAP
003BED7000
03E936F700
0CB000AD00
2F50008E00
4F20008E00
5F2000CB00
3F6004F500
0BE78EA000
018EF70000
0001E90010
00008F33A0
00001CFD30
0000002000
ENDCHAR
STARTCHAR uni051B
ENCODING 1307
SWIDTH 500 0
DWIDTH 5 0
BBX 7 11 0 -5
BITMAP
00025000
05DEA000
3F7E5000
8B2F2000
9B9DAF30
4EDBC200
0099B000
00A8C000
00AAB000
006F7000
00030000
ENDCHAR
STARTCHAR uni051C
ENCODING 1308
SWIDTH 1217 0
DWIDTH 12 0
BBX 13 9 1 0
BITMAP
5C000A803DD200
9D000F80A7D700
BB003F60B4D500
BA007F507CF200
CA00BF500BFF80
BA01ED501E5200
9C089B708C0000
5F9E28D8E20000
0BD402DD400000
ENDCHAR
STARTCHAR uni051D
ENCODING 1309
SWIDTH 700 0
DWIDTH 7 0
BBX 9 5 0 0
BITMAP
6A0C27B000
7B4F3DC210
7CAF4DFF30
6DDCCB1100
2E68D20000
ENDCHAR
STARTCHAR uni0524
ENCODING 1316
SWIDTH 892 0
DWIDTH 9 0
BBX 11 13 0 -4
BITMAP
05ADEFFEDB10
6E6CA22F9500
990E702F4000
472F505F1000
004F208E0000
007F00AB0000
009D00C90000
00BB00BE8820
00A8002DE700
000003DE7000
00001E6E3000
00000DF90000
000000100000
ENDCHAR
STARTCHAR uni0525
ENCODING 1317
SWIDTH 536 0
DWIDTH 5 0
BBX 7 9 0 -4
BITMAP
1E3C7000
5DCE8000
7E8D5000
7F2F6840
5B0AF800
006E8000
04BB4000
04FB0000
00100000
ENDCHAR
STARTCHAR uni0526
ENCODING 1318
SWIDTH 818 0
DWIDTH 8 0
BBX 10 13 0 -4
BITMAP
00D4000000
02F4000000
05F1000000
08E0000000
0AB7EE6000
0DE83BD000
0FA009D000
2F500AE853
2E3008EFA1
000019DA00
0000A8B600
0000BFC100
0000010000
ENDCHAR
STARTCHAR uni0527
ENCODING 1319
SWIDTH 542 0
DWIDTH 5 0
BBX 7 14 0 -4
BITMAP
009D1000
05CC4000
0B6C2000
0E5C0000
3FB30000
5F9C8000
6DBE8000
7E8C6000
7F2E7850
6B09F910
006E9000
03BA5000
04FB0000
00100000
ENDCHAR
STARTCHAR uni0528
ENCODING 1320
SWIDTH 873 0
DWIDTH 9 0
BBX 12 14 -2 -4
BITMAP
0000000008D3
002BE8004E87
01C59D00A866
00307D00E5C2
00009B03FD80
000DFFFEF600
0002F716E000
0003F405F004
0005F102F65C
0009D0007EC2
000C90000000
1A4F40000000
1EF900000000
012000000000
ENDCHAR
STARTCHAR uni0529
ENCODING 1321
SWIDTH 475 0
DWIDTH 5 0
BBX 7 9 -1 -4
BITMAP
01E18700
05D0C500
07FFF210
07B4F4C0
07A1ED30
06B00000
87A00000
DF500000
01000000
ENDCHAR
STARTCHAR uni052E
ENCODING 1326
SWIDTH 884 0
DWIDTH 9 0
BBX 11 13 0 -4
BITMAP
000006E10000
00000CF20000
00002FF10000
00006EF00000
0000CBF00000
0003F6F10000
400AB3F20000
D87F31F94B10
4ED5007FD500
000003DE6000
00001E5E2000
00001EF80000
000001100000
ENDCHAR
STARTCHAR uni052F
ENCODING 1327
SWIDTH 631 0
DWIDTH 6 0
BBX 8 9 0 -4
BITMAP
001D7000
006F8000
51CD7000
E8DA9284
AD36FF80
0006D800
0049D400
005FA000
00010000
ENDCHAR
STARTCHAR Wgrave
ENCODING 7808
SWIDTH 1217 0
DWIDTH 12 0
BBX 13 13 1 0
BITMAP
00033000000000
0007F500000000
00004C30000000
00000000000000
5C000A803DD200
9D000F80A7D700
BB003F60B4D500
BA007F507CF200
CA00BF500BFF80
BA01ED501E5200
9C089B708C0000
5F9E28D8E20000
0BD402DD400000
ENDCHAR
STARTCHAR wgrave
ENCODING 7809
SWIDTH 700 0
DWIDTH 7 0
BBX 9 10 0 0
BITMAP
0050000000
00E6000000
006C000000
000A100000
0000000000
6A0C27B000
7B4F3DC210
7CAF4DFF30
6DDCCB1100
2E68D20000
ENDCHAR
STARTCHAR Wacute
ENCODING 7810
SWIDTH 1217 0
DWIDTH 12 0
BBX 13 13 1 0
BITMAP
00000003300000
0000005F700000
000003C4000000
00000000000000
5C000A803DD200
9D000F80A7D700
BB003F60B4D500
BA007F507CF200
CA00BF500BFF80
BA01ED501E5200
9C089B708C0000
5F9E28D8E20000
0BD402DD400000
ENDCHAR
STARTCHAR wacute
ENCODING 7811
SWIDTH 700 0
DWIDTH 7 0
BBX 9 10 0 0
BITMAP
0000330000
0000C80000
0002E10000
0007500000
0000000000
6A0C27B000
7B4F3DC210
7CAF4DFF30
6DDCCB1100
2E68D20000
ENDCHAR
STARTCHAR Wdieresis
ENCODING 7812
SWIDTH 1217 0
DWIDTH 12 0
BBX 13 11 1 0
BITMAP
00007B6C000000
00001101000000
5C000A803DD200
9D000F80A7D700
BB003F60B4D500
BA007F507CF200
CA00BF500BFF80
BA01ED501E5200
9C089B708C0000
5F9E28D8E20000
0BD402DD400000
ENDCHAR
STARTCHAR wdieresis
ENCODING 7813
SWIDTH 700 0
DWIDTH 7 0
BBX 9 7 0 0
BITMAP
00A7980000
0010100000
6A0C27B000
7B4F3DC210
7CAF4DFF30
6DDCCB1100
2E68D20000
ENDCHAR
STARTCHAR uni1E9E
ENCODING 7838
SWIDTH 843 0
DWIDTH 8 0
BBX 9 10 0 -1
BITMAP
01D36DE700
05F7B3AF10
07DC109E00
0AF63AD300
0CF1BFB200
0EB001CB00
0F80009D00
1F5002E900
2E21AEB100
0001740000
ENDCHAR
STARTCHAR uni1EA0
ENCODING 7840
SWIDTH 786 0
DWIDTH 8 0
BBX 10 12 0 -3
BITMAP
0005BEFD40
009E846610
07F302F400
0E8005F100
4F3009D000
6F100DB000
6F204F9030
2FA5DDC5D1
06EE54ED40
0000000000
002E600000
0001000000
ENDCHAR
STARTCHAR uni1EA1
ENCODING 7841
SWIDTH 470 0
DWIDTH 5 0
BBX 6 8 0 -3
BITMAP
05DA20
3F6E40
8B2F12
9B8F5C
4E9AD2
000000
0C9000
010000
ENDCHAR
STARTCHAR uni1EA2
ENCODING 7842
SWIDTH 786 0
DWIDTH 8 0
BBX 10 13 0 0
BITMAP
00000BE300
000002A700
000006F300
0000011000
0005BEFD40
009E846610
07F302F400
0E8005F100
4F3009D000
6F100DB000
6F204F9030
2FA5DDC5D1
06EE54ED40
ENDCHAR
STARTCHAR uni1EA3
ENCODING 7843
SWIDTH 470 0
DWIDTH 5 0
BBX 6 9 0 0
BITMAP
00AE40
002880
005F30
001100
05DA20
3F6E40
8B2F12
9B8F5C
4E9AD2
ENDCHAR
STARTCHAR uni1EA4
ENCODING 7844
SWIDTH 786 0
DWIDTH 8 0
BBX 10 16 0 0
BITMAP
0000000150
0000002DC0
000000C700
000008D100
00003EB700
0000975900
0000000000
0005BEFD40
009E846610
07F302F400
0E8005F100
4F3009D000
6F100DB000
6F204F9030
2FA5DDC5D1
06EE54ED40
ENDCHAR
STARTCHAR uni1EA5
ENCODING 7845
SWIDTH 470 0
DWIDTH 5 0
BBX 7 10 0 0
BITMAP
00000510
00007B10
009D4000
06A5A000
00000000
05DA2000
3F6E4000
8B2F1200
9B8F5C00
4E9AD200
ENDCHAR
STARTCHAR uni1EA6
ENCODING 7846
SWIDTH 786 0
DWIDTH 8 0
BBX 10 16 0 0
BITMAP
0001500000
0003F90000
00002A7000
000008D100
00003EB700
0000975900
0000000000
0005BEFD40
009E846610
07F302F400
0E8005F100
4F3009D000
6F100DB000
6F204F9030
2FA5DDC5D1
06EE54ED40
ENDCHAR
STARTCHAR uni1EA7
ENCODING 7847
SWIDTH 470 0
DWIDTH 5 0
BBX 6 10 0 0
BITMAP
240000
3C3000
009D40
06A5A0
000000
05DA20
3F6E40
8B2F12
9B8F5C
4E9AD2
ENDCHAR
STARTCHAR uni1EA8
ENCODING 7848
SWIDTH 786 0
DWIDTH 8 0
BBX 10 16 0 0
BITMAP
000005E800
0000015D00
000001F900
000008F100
00003EB700
0000975900
0000000000
0005BEFD40
009E846610
07F302F400
0E8005F100
4F3009D000
6F100DB000
6F204F9030
2FA5DDC5D1
06EE54ED40
ENDCHAR
STARTCHAR uni1EA9
ENCODING 7849
SWIDTH 470 0
DWIDTH 5 0
BBX 7 9 0 0
BITMAP
00009D10
00001A40
008E8E10
06D9A100
06EB3000
3F6E4000
8B2F1200
9B8F5C00
4E9AD200
ENDCHAR
STARTCHAR uni1EAA
ENCODING 7850
SWIDTH 786 0
DWIDTH 8 0
BBX 10 15 0 0
BITMAP
00003E9590
0000979E30
000008D100
00003EB700
0000975900
0000000000
0005BEFD40
009E846610
07F302F400
0E8005F100
4F3009D000
6F100DB000
6F204F9030
2FA5DDC5D1
06EE54ED40
ENDCHAR
STARTCHAR uni1EAB
ENCODING 7851
SWIDTH 470 0
DWIDTH 5 0
BBX 6 10 0 0
BITMAP
02D993
034870
00BE50
0795A0
000000
05DA20
3F6E40
8B2F12
9B8F5C
4E9AD2
ENDCHAR
STARTCHAR uni1EAC
ENCODING 7852
SWIDTH 786 0
DWIDTH 8 0
BBX 10 16 0 -3
BITMAP
000008D100
00003EB700
0000975900
0000000000
0005BEFD40
009E846610
07F302F400
0E8005F100
4F3009D000
6F100DB000
6F204F9030
2FA5DDC5D1
06EE54ED40
0000000000
002E600000
0001000000
ENDCHAR
STARTCHAR uni1EAD
ENCODING 7853
SWIDTH 470 0
DWIDTH 5 0
BBX 6 13 0 -3
BITMAP
001600
008E50
02E890
0874A0
000000
05DA20
3F6E40
8B2F12
9B8F5C
4E9AD2
000000
0C9000
010000
ENDCHAR
STARTCHAR uni1EAE
ENCODING 7854
SWIDTH 786 0
DWIDTH 8 0
BBX 10 13 0 0
BITMAP
0000008900
0000945A20
00008FFA00
0000011000
0005BEFD40
009E846610
07F302F400
0E8005F100
4F3009D000
6F100DB000
6F204F9030
2FA5DDC5D1
06EE54ED40
ENDCHAR
STARTCHAR uni1EAF
ENCODING 7855
SWIDTH 470 0
DWIDTH 5 0
BBX 6 9 0 0
BITMAP
0007A0
094593
06FFB1
001100
05DA20
3F6E40
8B2F12
9B8F5C
4E9AD2
ENDCHAR
STARTCHAR uni1EB0
ENCODING 7856
SWIDTH 786 0
DWIDTH 8 0
BBX 10 13 0 0
BITMAP
00002D3000
0000954920
00007FFA00
0000001000
0005BEFD40
009E846610
07F302F400
0E8005F100
4F3009D000
6F100DB000
6F204F9030
2FA5DDC5D1
06EE54ED40
ENDCHAR
STARTCHAR uni1EB1
ENCODING 7857
SWIDTH 470 0
DWIDTH 5 0
BBX 6 9 0 0
BITMAP
01D300
085492
06FFA1
000100
05DA20
3F6E40
8B2F12
9B8F5C
4E9AD2
ENDCHAR
STARTCHAR uni1EB2
ENCODING 7858
SWIDTH 786 0
DWIDTH 8 0
BBX 10 14 0 0
BITMAP
00000AE200
000016E300
0000D63E20
00006FF900
0000011000
0005BEFD40
009E846610
07F302F400
0E8005F100
4F3009D000
6F100DB000
6F204F9030
2FA5DDC5D1
06EE54ED40
ENDCHAR
STARTCHAR uni1EB3
ENCODING 7859
SWIDTH 470 0
DWIDTH 5 0
BBX 6 10 0 0
BITMAP
009E30
015F40
0C73D3
05FFA0
000200
05DA20
3F6E40
8B2F12
9B8F5C
4E9AD2
ENDCHAR
STARTCHAR uni1EB4
ENCODING 7860
SWIDTH 786 0
DWIDTH 8 0
BBX 10 14 0 0
BITMAP
00003C7830
0000536700
0000B31B20
00007FE900
0000000000
0005BEFD40
009E846610
07F302F400
0E8005F100
4F3009D000
6F100DB000
6F204F9030
2FA5DDC5D1
06EE54ED40
ENDCHAR
STARTCHAR uni1EB5
ENCODING 7861
SWIDTH 470 0
DWIDTH 5 0
BBX 6 10 0 0
BITMAP
02C874
043570
0A41A3
06EFA0
000100
05DA20
3F6E40
8B2F12
9B8F5C
4E9AD2
ENDCHAR
STARTCHAR uni1EB6
ENCODING 7862
SWIDTH 786 0
DWIDTH 8 0
BBX 10 15 0 -3
BITMAP
0000A41A20
00007FFA00
0000011000
0005BEFD40
009E846610
07F302F400
0E8005F100
4F3009D000
6F100DB000
6F204F9030
2FA5DDC5D1
06EE54ED40
0000000000
002E600000
0001000000
ENDCHAR
STARTCHAR uni1EB7
ENCODING 7863
SWIDTH 470 0
DWIDTH 5 0
BBX 6 12 0 -3
BITMAP
030021
0B82E2
05FF90
001100
05DA20
3F6E40
8B2F12
9B8F5C
4E9AD2
000000
0C9000
010000
ENDCHAR
STARTCHAR uni1EB8
ENCODING 7864
SWIDTH 686 0
DWIDTH 7 0
BBX 9 12 0 -3
BITMAP
006CFD5000
05F738E000
0AC004F100
08E3028000
02DFB00000
3E93100000
9D00000000
7F73347B10
07DFFDB500
0000000000
004E400000
0001000000
ENDCHAR
STARTCHAR uni1EB9
ENCODING 7865
SWIDTH 393 0
DWIDTH 4 0
BBX 6 8 0 -3
BITMAP
09E800
6D6C00
ACC621
8E56E1
1BEC40
000000
08D000
011000
ENDCHAR
STARTCHAR uni1EBA
ENCODING 7866
SWIDTH 686 0
DWIDTH 7 0
BBX 9 13 0 0
BITMAP
0001EC1000
00002D3000
0000AD1000
0000100000
006CFD5000
05F738E000
0AC004F100
08E3028000
02DFB00000
3E93100000
9D00000000
7F73347B10
07DFFDB500
ENDCHAR
STARTCHAR uni1EBB
ENCODING 7867
SWIDTH 393 0
DWIDTH 4 0
BBX 6 9 0 0
BITMAP
02EB00
003D20
00BB00
001000
09E800
6D6C00
ACC621
8E56E1
1BEC40
ENDCHAR
STARTCHAR uni1EBC
ENCODING 7868
SWIDTH 686 0
DWIDTH 7 0
BBX 9 12 0 0
BITMAP
000BC3D000
004B6E8000
0000000000
006CFD5000
05F738E000
0AC004F100
08E3028000
02DFB00000
3E93100000
9D00000000
7F73347B10
07DFFDB500
ENDCHAR
STARTCHAR uni1EBD
ENCODING 7869
SWIDTH 393 0
DWIDTH 4 0
BBX 6 8 0 0
BITMAP
0BB3C0
4A6E60
000000
09E800
6D6C00
ACC621
8E56E1
1BEC40
ENDCHAR
STARTCHAR uni1EBE
ENCODING 7870
SWIDTH 686 0
DWIDTH 7 0
BBX 9 14 0 0
BITMAP
0000001500
000000B700
0002BC0000
000B5A4000
0000000000
006CFD5000
05F738E000
0AC004F100
08E3028000
02DFB00000
3E93100000
9D00000000
7F73347B10
07DFFDB500
ENDCHAR
STARTCHAR uni1EBF
ENCODING 7871
SWIDTH 393 0
DWIDTH 4 0
BBX 6 10 0 0
BITMAP
000025
0000C6
02CC00
0C4B40
000000
09E800
6D6C00
ACC621
8E56E1
1BEC40
ENDCHAR
STARTCHAR uni1EC0
ENCODING 7872
SWIDTH 686 0
DWIDTH 7 0
BBX 9 14 0 0
BITMAP
0051000000
007B000000
0002BC0000
000B5A4000
0000000000
006CFD5000
05F738E000
0AC004F100
08E3028000
02DFB00000
3E93100000
9D00000000
7F73347B10
07DFFDB500
ENDCHAR
STARTCHAR uni1EC1
ENCODING 7873
SWIDTH 393 0
DWIDTH 4 0
BBX 6 10 0 0
BITMAP
510000
8B0000
02CC00
0C4B40
000000
09E800
6D6C00
ACC621
8E56E1
1BEC40
ENDCHAR
STARTCHAR uni1EC2
ENCODING 7874
SWIDTH 686 0
DWIDTH 7 0
BBX 9 13 0 0
BITMAP
000000EA00
0000002D00
0001CCBA00
000B9D6000
006DFE5000
05F738E000
0AC004F100
08E3028000
02DFB00000
3E93100000
9D00000000
7F73347B10
07DFFDB500
ENDCHAR
STARTCHAR uni1EC3
ENCODING 7875
SWIDTH 393 0
DWIDTH 4 0
BBX 6 9 0 0
BITMAP
0001E9
00003D
02CBB9
0C8D50
0AE900
6D6C00
ACC621
8E56E1
1BEC40
ENDCHAR
STARTCHAR uni1EC4
ENCODING 7876
SWIDTH 686 0
DWIDTH 7 0
BBX 9 14 0 0
BITMAP
0006D6B000
0006394000
0003DE1000
000C5A5000
0000000000
006CFD5000
05F738E000
0AC004F100
08E3028000
02DFB00000
3E93100000
9D00000000
7F73347B10
07DFFDB500
ENDCHAR
STARTCHAR uni1EC5
ENCODING 7877
SWIDTH 393 0
DWIDTH 4 0
BBX 6 10 0 0
BITMAP
07D6B0
063930
03DD00
0C4B40
000000
09E800
6D6C00
ACC621
8E56E1
1BEC40
ENDCHAR
STARTCHAR uni1EC6
ENCODING 7878
SWIDTH 686 0
DWIDTH 7 0
BBX 9 16 0 -3
BITMAP
0000BB0000
0007CE3000
000D395000
0000000000
006CFD5000
05F738E000
0AC004F100
08E3028000
02DFB00000
3E93100000
9D00000000
7F73347B10
07DFFDB500
0000000000
004E400000
0001000000
ENDCHAR
STARTCHAR uni1EC7
ENCODING 7879
SWIDTH 393 0
DWIDTH 4 0
BBX 6 13 0 -3
BITMAP
003400
01DD00
088D20
0D2A40
000000
09E800
6D6C00
ACC621
8E56E1
1BEC40
000000
08D000
011000
ENDCHAR
STARTCHAR uni1EC8
ENCODING 7880
SWIDTH 495 0
DWIDTH 5 0
BBX 7 13 -1 0
BITMAP
0004E900
00014E00
0000EA00
00002000
00CFFF60
001AD200
000BB000
000D8000
000F6000
002F4000
004F2000
018F2000
1EFFF400
ENDCHAR
STARTCHAR uni1EC9
ENCODING 7881
SWIDTH 246 0
DWIDTH 2 0
BBX 4 9 0 0
BITMAP
2EB0
03D2
0BC0
0100
1E10
5E00
7C03
7C79
3EB1
ENDCHAR
STARTCHAR uni1ECA
ENCODING 7882
SWIDTH 495 0
DWIDTH 5 0
BBX 7 12 -1 -3
BITMAP
00CFFF60
001AD200
000BB000
000D8000
000F6000
002F4000
004F2000
018F2000
1EFFF400
00000000
00BB0000
00110000
ENDCHAR
STARTCHAR uni1ECB
ENCODING 7883
SWIDTH 246 0
DWIDTH 2 0
BBX 4 10 0 -3
BITMAP
0D80
0100
1E10
5E00
7C03
7C79
3EB1
0000
BA00
1000
ENDCHAR
STARTCHAR uni1ECC
ENCODING 7884
SWIDTH 816 0
DWIDTH 8 0
BBX 8 12 0 -3
BITMAP
003BED70
03E936F6
0BB000AC
2F50008E
4F20008E
5F2000BB
3F5002F5
0CD44CB0
02BED800
00000000
003E5000
00010000
ENDCHAR
STARTCHAR uni1ECD
ENCODING 7885
SWIDTH 451 0
DWIDTH 5 0
BBX 6 8 0 -3
BITMAP
0AE900
6D8F32
A93FFB
8C4F30
1CE600
000000
0AB000
011000
ENDCHAR
STARTCHAR uni1ECE
ENCODING 7886
SWIDTH 816 0
DWIDTH 8 0
BBX 8 13 0 0
BITMAP
0000CD20
00002B60
00008E20
00001100
003BED70
03E936F6
0BB000AC
2F50008E
4F20008E
5F2000BB
3F5002F5
0CD44CB0
02BED800
ENDCHAR
STARTCHAR uni1ECF
ENCODING 7887
SWIDTH 451 0
DWIDTH 5 0
BBX 6 9 0 0
BITMAP
02EB00
003E10
00CB00
001000
0AE900
6D8F32
A93FFB
8C4F30
1CE600
ENDCHAR
STARTCHAR uni1ED0
ENCODING 7888
SWIDTH 816 0
DWIDTH 8 0
BBX 8 14 0 0
BITMAP
00000006
00000099
0001BD20
00097870
00000000
003BED70
03E936F6
0BB000AC
2F50008E
4F20008E
5F2000BB
3F5002F5
0CD44CB0
02BED800
ENDCHAR
STARTCHAR uni1ED1
ENCODING 7889
SWIDTH 451 0
DWIDTH 5 0
BBX 6 10 0 0
BITMAP
000024
0000C6
03CB00
0C3C30
000000
0AE900
6D8F32
A93FFB
8C4F30
1CE600
ENDCHAR
STARTCHAR uni1ED2
ENCODING 7890
SWIDTH 816 0
DWIDTH 8 0
BBX 8 14 0 0
BITMAP
00420000
005C1000
0001BD20
00097870
00000000
003BED70
03E936F6
0BB000AC
2F50008E
4F20008E
5F2000BB
3F5002F5
0CD44CB0
02BED800
ENDCHAR
STARTCHAR uni1ED3
ENCODING 7891
SWIDTH 451 0
DWIDTH 5 0
BBX 6 10 0 0
BITMAP
510000
8A0000
03CB00
0C3C30
000000
0AE900
6D8F32
A93FFB
8C4F30
1CE600
ENDCHAR
STARTCHAR uni1ED4
ENCODING 7892
SWIDTH 816 0
DWIDTH 8 0
BBX 9 13 0 0
BITMAP
000000CC00
0000002D10
0000BD9C00
0009BB8000
003CEE8000
03E936F600
0BB000AC00
2F50008E00
4F20008E00
5F2000BB00
3F5002F500
0CD44CB000
02BED80000
ENDCHAR
STARTCHAR uni1ED5
ENCODING 7893
SWIDTH 451 0
DWIDTH 5 0
BBX 6 9 0 0
BITMAP
0002E8
00003C
02DBC8
0D8E40
0BEA00
6D8F32
A93FFB
8C4F30
1CE600
ENDCHAR
STARTCHAR uni1ED6
ENCODING 7894
SWIDTH 816 0
DWIDTH 8 0
BBX 8 14 0 0
BITMAP
0004E7B1
00053950
0001DE20
00097870
00000000
003BED70
03E936F6
0BB000AC
2F50008E
4F20008E
5F2000BB
3F5002F5
0CD44CB0
02BED800
ENDCHAR
STARTCHAR uni1ED7
ENCODING 7895
SWIDTH 451 0
DWIDTH 5 0
BBX 6 10 0 0
BITMAP
07D6A0
063930
04DD00
0D3C30
000000
0AE900
6D8F32
A93FFB
8C4F30
1CE600
ENDCHAR
STARTCHAR uni1ED8
ENCODING 7896
SWIDTH 816 0
DWIDTH 8 0
BBX 8 16 0 -3
BITMAP
00009D10
0005EC50
000B5780
00000000
003BED70
03E936F6
0BB000AC
2F50008E
4F20008E
5F2000BB
3F5002F5
0CD44CB0
02BED800
00000000
003E5000
00010000
ENDCHAR
STARTCHAR uni1ED9
ENCODING 7897
SWIDTH 451 0
DWIDTH 5 0
BBX 6 13 0 -3
BITMAP
003400
01DD00
098E10
0D1B30
000000
0AE900
6D8F32
A93FFB
8C4F30
1CE600
000000
0AB000
011000
ENDCHAR
STARTCHAR uni1EDA
ENCODING 7898
SWIDTH 816 0
DWIDTH 8 0
BBX 9 13 0 0
BITMAP
0000004200
000007F500
00005B3330
0000000C80
003BEFFE20
03E936F700
0BB000AD00
2F50008E00
4F20008D00
5F2000BB00
3F5002F500
0CD44CB000
02BED80000
ENDCHAR
STARTCHAR uni1EDB
ENCODING 7899
SWIDTH 451 0
DWIDTH 5 0
BBX 6 10 0 0
BITMAP
000500
002F20
008900
00A150
0002E0
0AFF60
6D8F32
A93FFB
8C4F30
1CE600
ENDCHAR
STARTCHAR uni1EDC
ENCODING 7900
SWIDTH 816 0
DWIDTH 8 0
BBX 9 13 0 0
BITMAP
0042000000
00AE300000
0005C10330
0000000C80
003BEFFE20
03E936F700
0BB000AD00
2F50008E00
4F20008D00
5F2000BB00
3F5002F500
0CD44CB000
02BED80000
ENDCHAR
STARTCHAR uni1EDD
ENCODING 7901
SWIDTH 451 0
DWIDTH 5 0
BBX 6 10 0 0
BITMAP
140000
4E1000
0B6000
029050
0002E0
0AFF60
6D8F32
A93FFB
8C4F30
1CE600
ENDCHAR
STARTCHAR uni1EDE
ENCODING 7902
SWIDTH 816 0
DWIDTH 8 0
BBX 9 13 0 0
BITMAP
0000CD2000
00002B6000
00008E2330
0000110C80
003BEFFE20
03E936F700
0BB000AD00
2F50008E00
4F20008D00
5F2000BB00
3F5002F500
0CD44CB000
02BED80000
ENDCHAR
STARTCHAR uni1EDF
ENCODING 7903
SWIDTH 451 0
DWIDTH 5 0
BBX 6 9 0 0
BITMAP
05E800
014D00
01E850
0012E0
0AFF60
6D8F32
A93FFB
8C4F30
1CE600
ENDCHAR
STARTCHAR uni1EE0
ENCODING 7904
SWIDTH 816 0
DWIDTH 8 0
BBX 9 12 0 0
BITMAP
0009D4B200
001D5DA330
0000000C80
003BEFFE20
03E936F700
0BB000AD00
2F50008E00
4F20008D00
5F2000BB00
3F5002F500
0CD44CB000
02BED80000
ENDCHAR
STARTCHAR uni1EE1
ENCODING 7905
SWIDTH 451 0
DWIDTH 5 0
BBX 6 8 0 0
BITMAP
0C8740
399C60
0002E0
0AFF60
6D8F32
A92FFB
8C4F20
1CE600
ENDCHAR
STARTCHAR uni1EE2
ENCODING 7906
SWIDTH 816 0
DWIDTH 8 0
BBX 9 14 0 -3
BITMAP
0000000330
0000000C80
003BEFFE20
03E936F700
0BB000AD00
2F50008E00
4F20008D00
5F2000BB00
3F5002F500
0CD44CB000
02BED80000
0000000000
003E500000
0001000000
ENDCHAR
STARTCHAR uni1EE3
ENCODING 7907
SWIDTH 451 0
DWIDTH 5 0
BBX 6 10 0 -3
BITMAP
000050
0002E0
0AFF60
6D8F32
A93FFB
8C4F30
1CE600
000000
0AB000
011000
ENDCHAR
STARTCHAR uni1EE4
ENCODING 7908
SWIDTH 890 0
DWIDTH 9 0
BBX 11 12 0 -3
BITMAP
1AE9000D3000
AAAE003F4000
808D005F2000
00BB008F0000
00E700CD0000
02F403FB0000
04F20AC90210
05F8A8CD7D10
01CE905ED400
000000000000
0008D0000000
000110000000
ENDCHAR
STARTCHAR uni1EE5
ENCODING 7909
SWIDTH 462 0
DWIDTH 5 0
BBX 6 8 0 -3
BITMAP
1D1A50
5E1F30
7B6F03
7DDE6B
3E6EC1
000000
09C000
011000
ENDCHAR
STARTCHAR uni1EE6
ENCODING 7910
SWIDTH 890 0
DWIDTH 9 0
BBX 11 13 0 0
BITMAP
00005E800000
000015D00000
00001F900000
000002000000
1AE9000D3000
AAAE003F4000
808D005F2000
00BB008F0000
00E700CD0000
02F403FB0000
04F20AC90210
05F8A8CD7D10
01CE905ED400
ENDCHAR
STARTCHAR uni1EE7
ENCODING 7911
SWIDTH 462 0
DWIDTH 5 0
BBX 6 9 0 0
BITMAP
00CD20
002A60
007E20
001100
1D1A50
5E1F30
7B6F03
7DDE6B
3E6EC1
ENDCHAR
STARTCHAR uni1EE8
ENCODING 7912
SWIDTH 890 0
DWIDTH 9 0
BBX 11 13 0 0
BITMAP
000000150000
000002DC0000
00000B701500
000000007D00
1AE9000DF600
AAAE003F6000
808D005F2000
00BB008F0000
00E700CD0000
02F403FB0000
04F20AC90210
05F8A8CD7D10
01CE905ED400
ENDCHAR
STARTCHAR uni1EE9
ENCODING 7913
SWIDTH 512 0
DWIDTH 5 0
BBX 7 10 0 0
BITMAP
00024000
0009A000
001E3000
00471400
00007900
1D1AE300
5E1F3000
7B6F0120
7DDE3C40
3E5DD500
ENDCHAR
STARTCHAR uni1EEA
ENCODING 7914
SWIDTH 890 0
DWIDTH 9 0
BBX 11 13 0 0
BITMAP
001500000000
003E90000000
0002A7001500
000000007D00
1AE9000DF600
AAAE003F6000
808D005F2000
00BB008F0000
00E700CD0000
02F403FB0000
04F20AC90210
05F8A8CD7D10
01CE905ED400
ENDCHAR
STARTCHAR uni1EEB
ENCODING 7915
SWIDTH 512 0
DWIDTH 5 0
BBX 7 10 0 0
BITMAP
04100000
0B800000
03E00000
00831400
00007900
1D1AE300
5E1F3000
7B6F0120
7DDE3C40
3E5DD500
ENDCHAR
STARTCHAR uni1EEC
ENCODING 7916
SWIDTH 890 0
DWIDTH 9 0
BBX 11 13 0 0
BITMAP
00005E800000
000015D00000
00001F901500
000002007D00
1AE9000DF600
AAAE003F6000
808D005F2000
00BB008F0000
00E700CD0000
02F403FB0000
04F20AC90210
05F8A8CD7D10
01CE905ED400
ENDCHAR
STARTCHAR uni1EED
ENCODING 7917
SWIDTH 512 0
DWIDTH 5 0
BBX 7 9 0 0
BITMAP
00CD2000
002A6000
007E3400
00117900
1D1AE300
5E1F3000
7B6F0120
7DDE3C40
3E5DD500
ENDCHAR
STARTCHAR uni1EEE
ENCODING 7918
SWIDTH 890 0
DWIDTH 9 0
BBX 11 12 0 0
BITMAP
0002E94A0000
000879E31500
000000007D00
1AE9000DF600
AAAE003F6000
808D005F2000
00BB008F0000
00E700CD0000
02F403FB0000
04F20AC90210
05F8A8CD7D10
01CE905ED400
ENDCHAR
STARTCHAR uni1EEF
ENCODING 7919
SWIDTH 512 0
DWIDTH 5 0
BBX 7 8 0 0
BITMAP
05D3B000
0A5D7400
00007900
1D1AE300
5E1F3000
7B6F0120
7DDE3C40
3E5DD500
ENDCHAR
STARTCHAR uni1EF0
ENCODING 7920
SWIDTH 890 0
DWIDTH 9 0
BBX 11 14 0 -3
BITMAP
000000001500
000000007D00
1AE9000DF600
AAAE003F6000
808D005F2000
00BB008F0000
00E700CD0000
02F403FB0000
04F20AC90210
05F8A8CD7D10
01CE905ED400
000000000000
0008D0000000
000110000000
ENDCHAR
STARTCHAR uni1EF1
ENCODING 7921
SWIDTH 512 0
DWIDTH 5 0
BBX 7 10 0 -3
BITMAP
00001400
00007900
1D1AE300
5E1F3000
7B6F0120
7DDE3C40
3E5DD500
00000000
09C00000
01100000
ENDCHAR
STARTCHAR Ygrave
ENCODING 7922
SWIDTH 851 0
DWIDTH 9 0
BBX 10 17 0 -4
BITMAP
0006000000
001EB10000
0001990000
0000000000
1AE8000D40
A89E002F50
708D004F30
00BB008F10
00E800CE00
01F604FC00
01F72CBA00
009FE7DDC7
0004B9F820
002D23F100
008B1BB000
005FFC2000
0001100000
ENDCHAR
STARTCHAR ygrave
ENCODING 7923
SWIDTH 479 0
DWIDTH 5 0
BBX 6 15 0 -5
BITMAP
041000
0B8000
03E000
008300
000000
1D1A50
5E1F30
7B6F13
7DDE9B
3EAF80
03D900
2CC600
B4E200
E7B000
BD3000
ENDCHAR
STARTCHAR uni1EF4
ENCODING 7924
SWIDTH 851 0
DWIDTH 9 0
BBX 10 13 0 -4
BITMAP
1AE8000D40
A89E002F50
708D004F30
00BB008F10
00E800CE00
01F604FC00
01F72CBA00
009FE7DDC7
0004B9F820
002D23F100
008B1BB000
005FFC5E50
0001100100
ENDCHAR
STARTCHAR uni1EF5
ENCODING 7925
SWIDTH 479 0
DWIDTH 5 0
BBX 6 10 0 -5
BITMAP
1D1A50
5E1F30
7B6F13
7DDE9B
3EAF80
03D900
2CC600
B4E200
E7CD80
BD3100
ENDCHAR
STARTCHAR uni1EF6
ENCODING 7926
SWIDTH 851 0
DWIDTH 9 0
BBX 10 17 0 -4
BITMAP
00003EA000
000003F000
00000DB000
0000020000
1AE8000D40
A89E002F50
708D004F30
00BB008F10
00E800CE00
01F604FC00
01F72CBA00
009FE7DDC7
0004B9F820
002D23F100
008B1BB000
005FFC2000
0001100000
ENDCHAR
STARTCHAR uni1EF7
ENCODING 7927
SWIDTH 479 0
DWIDTH 5 0
BBX 6 14 0 -5
BITMAP
00CD20
002A60
007E20
001100
1D1A50
5E1F30
7B6F13
7DDE9B
3EAF80
03D900
2CC600
B4E200
E7B000
BD3000
ENDCHAR
STARTCHAR uni1EF8
ENCODING 7928
SWIDTH 851 0
DWIDTH 9 0
BBX 10 16 0 -4
BITMAP
0001DA3B00
000788E500
0000000000
1AE8000D40
A89E002F50
708D004F30
00BB008F10
00E800CE00
01F604FC00
01F72CBA00
009FE7DDC7
0004B9F820
002D23F100
008B1BB000
005FFC2000
0001100000
ENDCHAR
STARTCHAR uni1EF9
ENCODING 7929
SWIDTH 479 0
DWIDTH 5 0
BBX 6 13 0 -5
BITMAP
08D4A3
0C4CA0
000000
1D1A50
5E1F30
7B6F13
7DDE9B
3EAF80
03D900
2CC600
B4E200
E7B000
BD3000
ENDCHAR
STARTCHAR endash
ENCODING 8211
SWIDTH 484 0
DWIDTH 5 0
BBX 5 2 0 2
BITMAP
5FFF50
022200
ENDCHAR
STARTCHAR emdash
ENCODING 8212
SWIDTH 620 0
DWIDTH 6 0
BBX 6 2 0 2
BITMAP
5FFFFB
022221
ENDCHAR
STARTCHAR quoteleft
ENCODING 8216
SWIDTH 237 0
DWIDTH 2 0
BBX 2 4 1 6
BITMAP
3B
9A
E8
52
ENDCHAR
STARTCHAR quoteright
ENCODING 8217
SWIDTH 236 0
DWIDTH 2 0
BBX 2 4 1 6
BITMAP
6C
AC
C6
50
ENDCHAR
STARTCHAR quotesinglbase
ENCODING 8218
SWIDTH 257 0
DWIDTH 3 0
BBX 2 4 0 -2
BITMAP
25
8E
AA
B3
ENDCHAR
STARTCHAR quotedblleft
ENCODING 8220
SWIDTH 457 0
DWIDTH 5 0
BBX 4 4 1 6
BITMAP
3B1D
9A6D
E8AB
5243
ENDCHAR
STARTCHAR quotedblright
ENCODING 8221
SWIDTH 456 0
DWIDTH 5 0
BBX 5 4 1 6
BITMAP
6C3E10
AC7E00
C69900
504100
ENDCHAR
STARTCHAR quotedblbase
ENCODING 8222
SWIDTH 477 0
DWIDTH 5 0
BBX 5 4 0 -2
BITMAP
251600
8E5F20
AA7D00
B38500
ENDCHAR
STARTCHAR dagger
ENCODING 8224
SWIDTH 588 0
DWIDTH 6 0
BBX 5 8 1 2
BITMAP
00A400
00D300
8FFFA0
14F210
04D000
06B000
089000
042000
ENDCHAR
STARTCHAR daggerdbl
ENCODING 8225
SWIDTH 588 0
DWIDTH 6 0
BBX 5 8 1 2
BITMAP
00A400
00D300
8FFFA0
14E210
DFFF50
28A200
098000
032000
ENDCHAR
STARTCHAR bullet
ENCODING 8226
SWIDTH 512 0
DWIDTH 5 0
BBX 4 3 1 1
BITMAP
8EB0
EFF1
9E90
ENDCHAR
STARTCHAR ellipsis
ENCODING 8230
SWIDTH 777 0
DWIDTH 8 0
BBX 8 2 0 0
BITMAP
7D1C84D3
8D1D85E3
ENDCHAR
STARTCHAR perthousand
ENCODING 8240
SWIDTH 1277 0
DWIDTH 13 0
BBX 13 8 0 0
BITMAP
0AE401C0000000
5BAB2BA0000000
7B6FEF20000000
1CC4A800000000
0003E2BD42DC20
000C7796BA6980
006D0896AB6970
00A503DD25EC10
ENDCHAR
STARTCHAR guilsinglleft
ENCODING 8249
SWIDTH 350 0
DWIDTH 4 0
BBX 3 4 0 0
BITMAP
06D0
8E40
7E40
06C0
ENDCHAR
STARTCHAR guilsinglright
ENCODING 8250
SWIDTH 350 0
DWIDTH 4 0
BBX 4 4 0 0
BITMAP
5C10
0AD1
09E2
6B20
ENDCHAR
STARTCHAR fraction
ENCODING 8260
SWIDTH 200 0
DWIDTH 2 0
BBX 5 7 -1 1
BITMAP
000410
002E20
00A900
04E100
0D6000
7C0000
B40000
ENDCHAR
STARTCHAR uni2074
ENCODING 8308
SWIDTH 450 0
DWIDTH 5 0
BBX 5 4 0 4
BITMAP
02C410
0A6E20
1EFF80
003B00
ENDCHAR
STARTCHAR colonmonetary
ENCODING 8353
SWIDTH 517 0
DWIDTH 5 0
BBX 6 8 0 -1
BITMAP
004988
09EFF2
2F79F1
6CA970
7E8A00
4FB7A0
3DFD40
983000
ENDCHAR
STARTCHAR franc
ENCODING 8355
SWIDTH 750 0
DWIDTH 8 0
BBX 8 6 0 0
BITMAP
2EFFFD10
0F3008B0
2FFF9FD0
5D0CE6E3
7B0CC000
780A5000
ENDCHAR
STARTCHAR lira
ENCODING 8356
SWIDTH 525 0
DWIDTH 5 0
BBX 6 6 0 0
BITMAP
03CEA0
0CA3B2
8FFA00
AFF900
4F5320
BFFFE0
ENDCHAR
STARTCHAR uni20A6
ENCODING 8358
SWIDTH 672 0
DWIDTH 7 0
BBX 7 7 0 0
BITMAP
03300600
0AD11F20
0CE93F00
8FFFFF70
AFFFFF60
4F34FA00
3C009600
ENDCHAR
STARTCHAR peseta
ENCODING 8359
SWIDTH 1085 0
DWIDTH 11 0
BBX 11 7 0 0
BITMAP
3DE904A00000
3F6D68A00000
2F1AFFFE3D00
4E0D7D619C00
6ECB1E31DF40
8C300E7A6A90
880007E88E40
ENDCHAR
STARTCHAR uni20A9
ENCODING 8361
SWIDTH 775 0
DWIDTH 8 0
BBX 8 6 0 0
BITMAP
8FFFFFFE
1D5BC3F3
AFFFFFFD
1C7ED8A2
0BC9DD20
07D1D800
ENDCHAR
STARTCHAR dong
ENCODING 8363
SWIDTH 463 0
DWIDTH 5 0
BBX 6 10 0 -2
BITMAP
0005D0
1EFFF4
022B90
06EE60
4F6F30
9B3F10
AA9F00
4E9D00
DFFF50
222200
ENDCHAR
STARTCHAR Euro
ENCODING 8364
SWIDTH 552 0
DWIDTH 6 0
BBX 6 6 0 0
BITMAP
01AEC1
0BA3C6
9FF942
BFF700
1E9382
04DE90
ENDCHAR
STARTCHAR uni20AD
ENCODING 8365
SWIDTH 590 0
DWIDTH 6 0
BBX 6 6 0 0
BITMAP
097098
0D58B1
9FFFD8
3F4F20
5E0CA2
5B03ED
ENDCHAR
STARTCHAR uni20AE
ENCODING 8366
SWIDTH 513 0
DWIDTH 5 0
BBX 6 6 0 0
BITMAP
3DEFE2
03B820
06EA00
17FB20
08D000
04B000
ENDCHAR
STARTCHAR uni20B1
ENCODING 8369
SWIDTH 557 0
DWIDTH 6 0
BBX 6 7 0 0
BITMAP
037500
2FDD90
AFFFF9
DFFFF8
2FAE61
3F6200
3C0000
ENDCHAR
STARTCHAR uni20B2
ENCODING 8370
SWIDTH 599 0
DWIDTH 6 0
BBX 6 10 0 -2
BITMAP
000400
000B00
04DFB1
1E99D4
6D5640
7C75E9
4FC5D9
09FEC8
00B075
004000
ENDCHAR
STARTCHAR uni20B4
ENCODING 8372
SWIDTH 570 0
DWIDTH 6 0
BBX 6 6 0 0
BITMAP
07EE60
0A47D0
4FFFF5
9FFFF5
2F65B1
0AFD70
ENDCHAR
STARTCHAR uni20B5
ENCODING 8373
SWIDTH 517 0
DWIDTH 5 0
BBX 6 10 0 -2
BITMAP
000A00
005D20
09EEE0
3F68F1
6C6530
7C7300
4FC5A0
08FD40
00B000
004000
ENDCHAR
STARTCHAR uni20B8
ENCODING 8376
SWIDTH 522 0
DWIDTH 5 0
BBX 6 6 0 0
BITMAP
3EFFE2
6FFFE0
13D520
00F100
02E000
03B000
ENDCHAR
STARTCHAR uni20B9
ENCODING 8377
SWIDTH 511 0
DWIDTH 5 0
BBX 6 6 0 0
BITMAP
5DEED4
6DEFD2
01B800
9FA000
04E600
005EC0
ENDCHAR
STARTCHAR uni20BA
ENCODING 8378
SWIDTH 452 0
DWIDTH 5 0
BBX 5 7 0 0
BITMAP
043000
0C8400
0ED400
8FB600
6F4000
7F2A60
2ED700
ENDCHAR
STARTCHAR uni20BC
ENCODING 8380
SWIDTH 673 0
DWIDTH 7 0
BBX 7 8 0 0
BITMAP
00023000
00065000
009FD300
08ECBC00
1F5B2F10
6E0C0F30
AA1B1F30
B6291E10
ENDCHAR
STARTCHAR uni20BD
ENCODING 8381
SWIDTH 505 0
DWIDTH 5 0
BBX 5 6 0 0
BITMAP
1CEC40
0B76C0
0E6AB0
AFFB20
CFF700
4D2100
ENDCHAR
STARTCHAR uni2116
ENCODING 8470
SWIDTH 1198 0
DWIDTH 12 0
BBX 12 9 0 0
BITMAP
02E29ED21BE5
05EA94F76B7C
07EC00E7896B
0AF401F53FF4
0CE004F20110
0EA006F1EFF5
0F7009D02220
2F400BB00000
2E100A800000
ENDCHAR
STARTCHAR trademark
ENCODING 8482
SWIDTH 1150 0
DWIDTH 12 0
BBX 10 5 1 4
BITMAP
CFFAC8E6DC
0C30E77D3F
0E11F1882C
2D03C0A55A
1501505124
ENDCHAR
STARTCHAR partialdiff
ENCODING 8706
SWIDTH 451 0
DWIDTH 5 0
BBX 5 9 0 -1
BITMAP
1B7000
01B900
001E30
09DE70
6D3D80
A90D60
8B3F20
2DF700
001000
ENDCHAR
STARTCHAR product
ENCODING 8719
SWIDTH 700 0
DWIDTH 7 0
BBX 7 9 0 -1
BITMAP
04FFFFB0
07C229B0
09A00A80
0B800C60
0D500E40
0F301F20
2F104F00
4E006D00
37003600
ENDCHAR
STARTCHAR summation
ENCODING 8721
SWIDTH 700 0
DWIDTH 7 0
BBX 7 9 0 -1
BITMAP
06FFFFC0
02DA2210
003E7000
0004E500
0004E500
006E4000
08D30000
5FFFFD00
02222100
ENDCHAR
STARTCHAR minus
ENCODING 8722
SWIDTH 700 0
DWIDTH 7 0
BBX 7 2 0 1
BITMAP
1EFFFF30
02222200
ENDCHAR
STARTCHAR uni2215
ENCODING 8725
SWIDTH 700 0
DWIDTH 7 0
BBX 6 10 1 0
BITMAP
000032
0000D6
0007D0
001E60
007D00
01E500
08C000
2F4000
9B0000
C30000
ENDCHAR
STARTCHAR uni2219
ENCODING 8729
SWIDTH 700 0
DWIDTH 7 0
BBX 3 3 2 1
BITMAP
0100
4F50
1400
ENDCHAR
STARTCHAR radical
ENCODING 8730
SWIDTH 700 0
DWIDTH 7 0
BBX 8 9 0 0
BITMAP
000000A4
000002E1
00000980
00001E10
5F907900
02E1D200
00CAA000
006F3000
00150000
ENDCHAR
STARTCHAR infinity
ENCODING 8734
SWIDTH 700 0
DWIDTH 7 0
BBX 7 4 0 1
BITMAP
2CE7CE40
8A4F68B0
993F68A0
3DD7DD30
ENDCHAR
STARTCHAR integral
ENCODING 8747
SWIDTH 700 0
DWIDTH 7 0
BBX 7 13 0 -4
BITMAP
0000AE80
0006E310
0009B000
000B9000
000D7000
000F5000
002F3000
004F1000
005E0000
007C0000
00BA0000
5FE30000
01000000
ENDCHAR
STARTCHAR approxequal
ENCODING 8776
SWIDTH 700 0
DWIDTH 7 0
BBX 7 5 0 0
BITMAP
06EA2970
0D3AFF30
03505400
1EFB3D20
5B29E800
ENDCHAR
STARTCHAR notequal
ENCODING 8800
SWIDTH 700 0
DWIDTH 7 0
BBX 7 7 0 -1
BITMAP
00001000
0001E200
0DFFFF50
023E4200
3EFFFE10
03E32200
00300000
ENDCHAR
STARTCHAR lessequal
ENCODING 8804
SWIDTH 700 0
DWIDTH 7 0
BBX 7 7 0 -1
BITMAP
00000320
0159DD50
0EE82000
05BEC700
00015910
3FFFFE10
02222200
ENDCHAR
STARTCHAR greaterequal
ENCODING 8805
SWIDTH 700 0
DWIDTH 7 0
BBX 7 7 0 -1
BITMAP
08940000
04AED810
0004CF50
19DE9400
19400000
3FFFFE10
02222200
ENDCHAR
STARTCHAR lozenge
ENCODING 9674
SWIDTH 700 0
DWIDTH 7 0
BBX 6 10 1 0
BITMAP
001500
009F10
03EB60
0B75B0
4D11F1
9801E2
5B0890
1E3E10
0AE700
05C000
ENDCHAR
STARTCHAR fi
ENCODING 64257
SWIDTH 633 0
DWIDTH 6 0
BBX 8 14 0 -4
BITMAP
002D9000
00B8D000
03F4B000
07B97D70
0BDB0100
9FFFFC00
2F538C00
2F5AA903
3F3BA997
3F3A5E90
3F490000
1F860000
0BE20000
00100000
ENDCHAR
STARTCHAR fl
ENCODING 64258
SWIDTH 688 0
DWIDTH 7 0
BBX 9 14 0 -4
BITMAP
005E62D800
01E8AB8D00
06B6AE3D00
0B7A9B4A00
0F7B999500
3FC2BAD000
5F40CF4000
6CDFF80310
7CC2AA4D10
7CB03DD400
6CA2000000
5EA1000000
1EB0000000
0100000000
ENDCHAR
STARTCHAR .notdef
ENCODING -1
SWIDTH 265 0
DWIDTH 3 0
BBX 1 1 0 0
BITMAP
00
ENDCHAR
STARTCHAR Iacute_J.loclNLD
ENCODING -1
SWIDTH 776 0
DWIDTH 8 0
BBX 9 13 1 0
BITMAP
0006000420
01BE207F50
099104B300
0000000000
5D000C4000
8E001F5000
AC004F4000
CA009F2000
CC27EF1000
7FFD8E0000
0230AA0000
B537F40000
8DEC400000
ENDCHAR
STARTCHAR A.ss01
ENCODING -1
SWIDTH 780 0
DWIDTH 8 0
BBX 9 9 0 0
BITMAP
0005BEED20
00AE736300
07F301F500
0E8005F100
4F3008E000
6F100DB000
6F203F9000
2F83CF8000
06EE6D6000
ENDCHAR
STARTCHAR Aacute.ss01
ENCODING -1
SWIDTH 780 0
DWIDTH 8 0
BBX 9 13 0 0
BITMAP
0000000430
0000006F60
000003C400
0000000000
0005BEED20
00AE736300
07F301F500
0E8005F100
4F3008E000
6F100DB000
6F203F9000
2F83CF8000
06EE6D6000
ENDCHAR
STARTCHAR Abreve.ss01
ENCODING -1
SWIDTH 780 0
DWIDTH 8 0
BBX 9 12 0 0
BITMAP
0000A41A20
00007FFA00
0000011000
0005BEED20
00AE736300
07F301F500
0E8005F100
4F3008E000
6F100DB000
6F203F9000
2F83CF8000
06EE6D6000
ENDCHAR
STARTCHAR uni1EAE.ss01
ENCODING -1
SWIDTH 780 0
DWIDTH 8 0
BBX 9 13 0 0
BITMAP
0000008900
0000945A20
00008FFA00
0000011000
0005BEED20
00AE736300
07F301F500
0E8005F100
4F3008E000
6F100DB000
6F203F9000
2F83CF8000
06EE6D6000
ENDCHAR
STARTCHAR uni1EB6.ss01
ENCODING -1
SWIDTH 780 0
DWIDTH 8 0
BBX 9 15 0 -3
BITMAP
0000A41A20
00007FFA00
0000011000
0005BEED20
00AE736300
07F301F500
0E8005F100
4F3008E000
6F100DB000
6F203F9000
2F83CF8000
06EE6D6000
0000000000
002E600000
0001000000
ENDCHAR
STARTCHAR uni1EB0.ss01
ENCODING -1
SWIDTH 780 0
DWIDTH 8 0
BBX 9 13 0 0
BITMAP
00002D3000
0000954920
00007FFA00
0000001000
0005BEED20
00AE736300
07F301F500
0E8005F100
4F3008E000
6F100DB000
6F203F9000
2F83CF8000
06EE6D6000
ENDCHAR
STARTCHAR uni1EB2.ss01
ENCODING -1
SWIDTH 780 0
DWIDTH 8 0
BBX 9 14 0 0
BITMAP
00000AE200
000016E300
0000D63E20
00006FF900
0000011000
0005BEED20
00AE736300
07F301F500
0E8005F100
4F3008E000
6F100DB000
6F203F9000
2F83CF8000
06EE6D6000
ENDCHAR
STARTCHAR uni1EB4.ss01
ENCODING -1
SWIDTH 780 0
DWIDTH 8 0
BBX 9 14 0 0
BITMAP
00003C7830
0000536700
0000B31B20
00007FE900
0000000000
0005BEED20
00AE736300
07F301F500
0E8005F100
4F3008E000
6F100DB000
6F203F9000
2F83CF8000
06EE6D6000
ENDCHAR
STARTCHAR Acircumflex.ss01
ENCODING -1
SWIDTH 780 0
DWIDTH 8 0
BBX 9 13 0 0
BITMAP
000008D100
00003EB700
0000975900
0000000000
0005BEED20
00AE736300
07F301F500
0E8005F100
4F3008E000
6F100DB000
6F203F9000
2F83CF8000
06EE6D6000
ENDCHAR
STARTCHAR uni1EA4.ss01
ENCODING -1
SWIDTH 780 0
DWIDTH 8 0
BBX 9 14 0 0
BITMAP
0000000060
00000008A0
00000AD300
0000786800
0000000000
0005BEED20
00AE736300
07F301F500
0E8005F100
4F3008E000
6F100DB000
6F203F9000
2F83CF8000
06EE6D6000
ENDCHAR
STARTCHAR uni1EAC.ss01
ENCODING -1
SWIDTH 780 0
DWIDTH 8 0
BBX 9 16 0 -3
BITMAP
000008D100
00003EB700
0000975900
0000000000
0005BEED20
00AE736300
07F301F500
0E8005F100
4F3008E000
6F100DB000
6F203F9000
2F83CF8000
06EE6D6000
0000000000
002E600000
0001000000
ENDCHAR
STARTCHAR uni1EA6.ss01
ENCODING -1
SWIDTH 780 0
DWIDTH 8 0
BBX 9 14 0 0
BITMAP
0003300000
0004C20000
00000AD300
0000786800
0000000000
0005BEED20
00AE736300
07F301F500
0E8005F100
4F3008E000
6F100DB000
6F203F9000
2F83CF8000
06EE6D6000
ENDCHAR
STARTCHAR uni1EA8.ss01
ENCODING -1
SWIDTH 780 0
DWIDTH 8 0
BBX 10 13 0 0
BITMAP
0000000AD1
00000001B3
000009E9D1
00007CA910
0005CEFD20
00AE736300
07F301F500
0E8005F100
4F3008E000
6F100DB000
6F203F9000
2F83CF8000
06EE6D6000
ENDCHAR
STARTCHAR uni1EAA.ss01
ENCODING -1
SWIDTH 780 0
DWIDTH 8 0
BBX 9 14 0 0
BITMAP
00003D8A20
0000438600
00001CE400
0000886900
0000000000
0005BEED20
00AE736300
07F301F500
0E8005F100
4F3008E000
6F100DB000
6F203F9000
2F83CF8000
06EE6D6000
ENDCHAR
STARTCHAR uni0200.ss01
ENCODING -1
SWIDTH 780 0
DWIDTH 8 0
BBX 9 13 0 0
BITMAP
0000615000
0000E5F100
0000669400
0000000000
0005BEED20
00AE736300
07F301F500
0E8005F100
4F3008E000
6F100DB000
6F203F9000
2F83CF8000
06EE6D6000
ENDCHAR
STARTCHAR Adieresis.ss01
ENCODING -1
SWIDTH 780 0
DWIDTH 8 0
BBX 9 11 0 0
BITMAP
00008A7B00
0000111100
0005BEED20
00AE736300
07F301F500
0E8005F100
4F3008E000
6F100DB000
6F203F9000
2F83CF8000
06EE6D6000
ENDCHAR
STARTCHAR uni1EA0.ss01
ENCODING -1
SWIDTH 780 0
DWIDTH 8 0
BBX 9 12 0 -3
BITMAP
0005BEED20
00AE736300
07F301F500
0E8005F100
4F3008E000
6F100DB000
6F203F9000
2F83CF8000
06EE6D6000
0000000000
002E600000
0001000000
ENDCHAR
STARTCHAR Agrave.ss01
ENCODING -1
SWIDTH 780 0
DWIDTH 8 0
BBX 9 13 0 0
BITMAP
0004300000
0008E40000
00005C2000
0000000000
0005BEED20
00AE736300
07F301F500
0E8005F100
4F3008E000
6F100DB000
6F203F9000
2F83CF8000
06EE6D6000
ENDCHAR
STARTCHAR uni1EA2.ss01
ENCODING -1
SWIDTH 780 0
DWIDTH 8 0
BBX 9 13 0 0
BITMAP
00000BE300
000002A700
000006F300
0000011000
0005BEED20
00AE736300
07F301F500
0E8005F100
4F3008E000
6F100DB000
6F203F9000
2F83CF8000
06EE6D6000
ENDCHAR
STARTCHAR uni0202.ss01
ENCODING -1
SWIDTH 780 0
DWIDTH 8 0
BBX 9 12 0 0
BITMAP
00003DE800
0000D74E20
0000100100
0005BEED20
00AE736300
07F301F500
0E8005F100
4F3008E000
6F100DB000
6F203F9000
2F83CF8000
06EE6D6000
ENDCHAR
STARTCHAR Amacron.ss01
ENCODING -1
SWIDTH 780 0
DWIDTH 8 0
BBX 9 11 0 0
BITMAP
00007FF800
0000122100
0005BEED20
00AE736300
07F301F500
0E8005F100
4F3008E000
6F100DB000
6F203F9000
2F83CF8000
06EE6D6000
ENDCHAR
STARTCHAR Aogonek.ss01
ENCODING -1
SWIDTH 780 0
DWIDTH 8 0
BBX 9 13 0 -4
BITMAP
0005BEED20
00AE736300
07F301F500
0E8005F100
4F3008E000
6F100DB000
6F203F9000
2F83CF8000
06EE6F7000
00006A0000
0000A70000
00006FD000
0000011000
ENDCHAR
STARTCHAR Aring.ss01
ENCODING -1
SWIDTH 780 0
DWIDTH 8 0
BBX 9 13 0 0
BITMAP
00000AD300
00002D9700
00000DF300
0000011000
0005BEED20
00AE736300
07F301F500
0E8005F100
4F3008E000
6F100DB000
6F203F9000
2F83CF8000
06EE6D6000
ENDCHAR
STARTCHAR Aringacute.ss01
ENCODING -1
SWIDTH 780 0
DWIDTH 8 0
BBX 10 14 0 0
BITMAP
0000000089
00000AD6A2
00002D9700
00001DE300
0000011000
0005BEED20
00AE736300
07F301F500
0E8005F100
4F3008E000
6F100DB000
6F203F9000
2F83CF8000
06EE6D6000
ENDCHAR
STARTCHAR Atilde.ss01
ENCODING -1
SWIDTH 780 0
DWIDTH 8 0
BBX 9 12 0 0
BITMAP
00007D4A40
0000D5CB00
0000000000
0005BEED20
00AE736300
07F301F500
0E8005F100
4F3008E000
6F100DB000
6F203F9000
2F83CF8000
06EE6D6000
ENDCHAR
STARTCHAR AE.ss01
ENCODING -1
SWIDTH 1057 0
DWIDTH 11 0
BBX 11 9 0 0
BITMAP
0006CD5EFFA0
00AF83BA2210
07F301F60000
0E8004F30000
4F3008FFFE00
6F100CD22100
6F103FC00000
2F94DBF73430
06DE808DFD40
ENDCHAR
STARTCHAR AEacute.ss01
ENCODING -1
SWIDTH 1057 0
DWIDTH 11 0
BBX 11 13 0 0
BITMAP
000000003400
00000005E800
0000002C5000
000000000000
0006CD5EFFA0
00AF83BA2210
07F301F60000
0E8004F30000
4F3008FFFE00
6F100CD22100
6F103FC00000
2F94DBF73430
06DE808DFD40
ENDCHAR
STARTCHAR B.ss01
ENCODING -1
SWIDTH 826 0
DWIDTH 8 0
BBX 9 9 0 0
BITMAP
02AEFEA200
027435DD00
02C2007F10
06F014DA00
09C2FF8000
0C9038F300
0E7002F500
1F735CE100
1DEFDA2000
ENDCHAR
STARTCHAR C.ss01
ENCODING -1
SWIDTH 704 0
DWIDTH 7 0
BBX 7 9 0 0
BITMAP
003BED40
03E93AD0
0BB005E0
2F500260
4F300000
5F200000
3F500030
0CD438D0
01AEE910
ENDCHAR
STARTCHAR Cacute.ss01
ENCODING -1
SWIDTH 704 0
DWIDTH 7 0
BBX 8 13 0 0
BITMAP
00000042
000007F5
00005B30
00000000
003BED40
03E93AD0
0BB005E0
2F500260
4F300000
5F200000
3F500030
0CD438D0
01AEE910
ENDCHAR
STARTCHAR Ccaron.ss01
ENCODING -1
SWIDTH 704 0
DWIDTH 7 0
BBX 7 13 0 0
BITMAP
00033150
0005B980
0000BB00
00000000
003BED40
03E93AD0
0BB005E0
2F500260
4F300000
5F200000
3F500030
0CD438D0
01AEE910
ENDCHAR
STARTCHAR Ccedilla.ss01
ENCODING -1
SWIDTH 704 0
DWIDTH 7 0
BBX 7 13 0 -4
BITMAP
003BED40
03EA39D0
0BB005F0
2F500370
4F300000
5F200000
2F400020
0BC216C0
01AFE810
0006D000
0003D000
00DF6000
00110000
ENDCHAR
STARTCHAR Ccircumflex.ss01
ENCODING -1
SWIDTH 704 0
DWIDTH 7 0
BBX 7 13 0 0
BITMAP
00009D10
0005EC50
000B5780
00000000
003BED40
03E93AD0
0BB005E0
2F500260
4F300000
5F200000
3F500030
0CD438D0
01AEE910
ENDCHAR
STARTCHAR Cdotaccent.ss01
ENCODING -1
SWIDTH 704 0
DWIDTH 7 0
BBX 7 11 0 0
BITMAP
0000BB00
00001100
003BED40
03E93AD0
0BB005E0
2F500260
4F300000
5F200000
3F500030
0CD438D0
01AEE910
ENDCHAR
STARTCHAR D.ss01
ENCODING -1
SWIDTH 810 0
DWIDTH 8 0
BBX 8 9 0 0
BITMAP
02BEEC40
03634AF4
02C200DA
06F0009D
09C000AD
0C9000DA
0F7005F4
2F737E80
1DFEB500
ENDCHAR
STARTCHAR uni01C4.ss01
ENCODING -1
SWIDTH 1455 0
DWIDTH 15 0
BBX 15 13 0 0
BITMAP
0000000000150610
00000000001E6C00
000000000007D200
0000000000000000
02BEEC402DFFFF90
03634AF402225F80
02C200DA0001DD10
06F0009D0009F300
09C000AD004F8000
0C9000DA02EC0000
0F7005F40CE20000
2F737E808F722100
1DFEB500EFFFFF30
ENDCHAR
STARTCHAR Eth.ss01
ENCODING -1
SWIDTH 821 0
DWIDTH 8 0
BBX 8 9 0 0
BITMAP
006EFC50
00B939F5
01F500BC
04F2007F
AFFFD07E
1CB210BC
0D8003F6
0F737EA0
1DFEC600
ENDCHAR
STARTCHAR Dcaron.ss01
ENCODING -1
SWIDTH 810 0
DWIDTH 8 0
BBX 8 13 0 0
BITMAP
00051330
00097D30
0002E700
00000000
02BEEC40
03634AF4
02C200DA
06F0009D
09C000AD
0C9000DA
0F7005F4
2F737E80
1DFEB500
ENDCHAR
STARTCHAR Dcroat.ss01
ENCODING -1
SWIDTH 821 0
DWIDTH 8 0
BBX 8 9 0 0
BITMAP
006EFC50
00B939F5
01F500BC
04F2007F
AFFFD07E
1CB210BC
0D8003F6
0F737EA0
1DFEC600
ENDCHAR
STARTCHAR E.ss01
ENCODING -1
SWIDTH 720 0
DWIDTH 7 0
BBX 8 9 0 0
BITMAP
007DFD50
08F638E0
0DA004F1
0AD20280
02DFA000
2E931000
8F000030
6F7348D0
08DFE920
ENDCHAR
STARTCHAR Eacute.ss01
ENCODING -1
SWIDTH 720 0
DWIDTH 7 0
BBX 8 13 0 0
BITMAP
00000061
00000AE2
00008910
00000000
007DFD50
08F638E0
0DA004F1
0AD20280
02DFA000
2E931000
8F000030
6F7348D0
08DFE920
ENDCHAR
STARTCHAR Ebreve.ss01
ENCODING -1
SWIDTH 720 0
DWIDTH 7 0
BBX 8 12 0 0
BITMAP
002B14A0
001CFE50
00001000
007DFD50
08F638E0
0DA004F1
0AD20280
02DFA000
2E931000
8F000030
6F7348D0
08DFE920
ENDCHAR
STARTCHAR Ecaron.ss01
ENCODING -1
SWIDTH 720 0
DWIDTH 7 0
BBX 8 13 0 0
BITMAP
00051240
00088C40
0001D800
00000000
007DFD50
08F638E0
0DA004F1
0AD20280
02DFA000
2E931000
8F000030
6F7348D0
08DFE920
ENDCHAR
STARTCHAR Ecircumflex.ss01
ENCODING -1
SWIDTH 720 0
DWIDTH 7 0
BBX 8 13 0 0
BITMAP
0001CA00
0008BE20
000D2A40
00000000
007DFD50
08F638E0
0DA004F1
0AD20280
02DFA000
2E931000
8F000030
6F7348D0
08DFE920
ENDCHAR
STARTCHAR uni1EBE.ss01
ENCODING -1
SWIDTH 720 0
DWIDTH 7 0
BBX 8 14 0 0
BITMAP
00000024
000000C6
0002CB00
000C4B30
00000000
007DFD50
08F638E0
0DA004F1
0AD20280
02DFA000
2E931000
8F000030
6F7348D0
08DFE920
ENDCHAR
STARTCHAR uni1EC6.ss01
ENCODING -1
SWIDTH 720 0
DWIDTH 7 0
BBX 8 16 0 -3
BITMAP
0001CA00
0008BE20
000D2A40
00000000
007DFD50
08F638E0
0DA004F1
0AD20280
02DFA000
2E931000
8F000030
6F7348D0
08DFE920
00000000
006E1000
00010000
ENDCHAR
STARTCHAR uni1EC0.ss01
ENCODING -1
SWIDTH 720 0
DWIDTH 7 0
BBX 8 14 0 0
BITMAP
00510000
008A0000
0002CB00
000C4B30
00000000
007DFD50
08F638E0
0DA004F1
0AD20280
02DFA000
2E931000
8F000030
6F7348D0
08DFE920
ENDCHAR
STARTCHAR uni1EC2.ss01
ENCODING -1
SWIDTH 720 0
DWIDTH 7 0
BBX 8 13 0 0
BITMAP
000001E9
0000003C
0002CBC9
000C8D50
007EFE50
08F638E0
0DA004F1
0AD20280
02DFA000
2E931000
8F000030
6F7348D0
08DFE920
ENDCHAR
STARTCHAR uni1EC4.ss01
ENCODING -1
SWIDTH 720 0
DWIDTH 7 0
BBX 8 14 0 0
BITMAP
0007D6B0
00063930
0004DD00
000D4B40
00000000
007DFD50
08F638E0
0DA004F1
0AD20280
02DFA000
2E931000
8F000030
6F7348D0
08DFE920
ENDCHAR
STARTCHAR uni0204.ss01
ENCODING -1
SWIDTH 720 0
DWIDTH 7 0
BBX 8 13 0 0
BITMAP
00143300
004D7A00
000B2C00
00000000
007DFD50
08F638E0
0DA004F1
0AD20280
02DFA000
2E931000
8F000030
6F7348D0
08DFE920
ENDCHAR
STARTCHAR Edieresis.ss01
ENCODING -1
SWIDTH 720 0
DWIDTH 7 0
BBX 8 11 0 0
BITMAP
000D5C60
00010100
007DFD50
08F638E0
0DA004F1
0AD20280
02DFA000
2E931000
8F000030
6F7348D0
08DFE920
ENDCHAR
STARTCHAR Edotaccent.ss01
ENCODING -1
SWIDTH 720 0
DWIDTH 7 0
BBX 8 11 0 0
BITMAP
0001D700
00001000
007DFD50
08F638E0
0DA004F1
0AD20280
02DFA000
2E931000
8F000030
6F7348D0
08DFE920
ENDCHAR
STARTCHAR uni1EB8.ss01
ENCODING -1
SWIDTH 720 0
DWIDTH 7 0
BBX 8 12 0 -3
BITMAP
007DFD50
08F638E0
0DA004F1
0AD20280
02DFA000
2E931000
8F000030
6F7348D0
08DFE920
00000000
006E1000
00010000
ENDCHAR
STARTCHAR Egrave.ss01
ENCODING -1
SWIDTH 720 0
DWIDTH 7 0
BBX 8 13 0 0
BITMAP
00610000
00DC1000
0018B000
00000000
007DFD50
08F638E0
0DA004F1
0AD20280
02DFA000
2E931000
8F000030
6F7348D0
08DFE920
ENDCHAR
STARTCHAR uni1EBA.ss01
ENCODING -1
SWIDTH 720 0
DWIDTH 7 0
BBX 8 13 0 0
BITMAP
0002EC00
00003E20
0000CC00
00001000
007DFD50
08F638E0
0DA004F1
0AD20280
02DFA000
2E931000
8F000030
6F7348D0
08DFE920
ENDCHAR
STARTCHAR uni0206.ss01
ENCODING -1
SWIDTH 720 0
DWIDTH 7 0
BBX 8 12 0 0
BITMAP
0007ED40
003D47C0
00010010
007DFD50
08F638E0
0DA004F1
0AD20280
02DFA000
2E931000
8F000030
6F7348D0
08DFE920
ENDCHAR
STARTCHAR Emacron.ss01
ENCODING -1
SWIDTH 720 0
DWIDTH 7 0
BBX 8 11 0 0
BITMAP
000CFF30
00022200
007DFD50
08F638E0
0DA004F1
0AD20280
02DFA000
2E931000
8F000030
6F7348D0
08DFE920
ENDCHAR
STARTCHAR Eogonek.ss01
ENCODING -1
SWIDTH 720 0
DWIDTH 7 0
BBX 8 13 0 -4
BITMAP
007DFD50
08F638E0
0DA004F1
0AD20280
02DFA000
2E931000
8F000020
6F7348E0
08DFFD30
000A9000
000D4000
0008FA00
00002000
ENDCHAR
STARTCHAR uni1EBC.ss01
ENCODING -1
SWIDTH 720 0
DWIDTH 7 0
BBX 8 12 0 0
BITMAP
001CB3C0
005A7E70
00000000
007DFD50
08F638E0
0DA004F1
0AD20280
02DFA000
2E931000
8F000030
6F7348D0
08DFE920
ENDCHAR
STARTCHAR F.ss01
ENCODING -1
SWIDTH 671 0
DWIDTH 7 0
BBX 8 10 0 0
BITMAP
00000110
0EFFFFF4
01BB2200
00D80000
00F60000
4FFFFE00
07F32100
08E00000
0AC00000
09900000
ENDCHAR
STARTCHAR G.ss01
ENCODING -1
SWIDTH 811 0
DWIDTH 8 0
BBX 8 12 0 -3
BITMAP
002AEE70
03EA36F3
0BB001F3
2F500070
4F300000
5F303FF7
2F6002C8
0AE634E6
008DEDF4
000002F2
000004E0
00000150
ENDCHAR
STARTCHAR Gbreve.ss01
ENCODING -1
SWIDTH 811 0
DWIDTH 8 0
BBX 8 15 0 -3
BITMAP
000A41A2
0007FFA0
00001100
002AEE70
03EA36F3
0BB001F3
2F500070
4F300000
5F303FF7
2F6002C8
0AE634E6
008DEDF4
000002F2
000004E0
00000150
ENDCHAR
STARTCHAR Gcaron.ss01
ENCODING -1
SWIDTH 811 0
DWIDTH 8 0
BBX 8 16 0 -3
BITMAP
00024060
0003D7A0
00009C10
00000000
002AEE70
03EA36F3
0BB001F3
2F500070
4F300000
5F303FF7
2F6002C8
0AE634E6
008DEDF4
000002F2
000004E0
00000150
ENDCHAR
STARTCHAR Gcircumflex.ss01
ENCODING -1
SWIDTH 811 0
DWIDTH 8 0
BBX 8 16 0 -3
BITMAP
00007E20
0003EB70
000975A0
00000000
002AEE70
03EA36F3
0BB001F3
2F500070
4F300000
5F303FF7
2F6002C8
0AE634E6
008DEDF4
000002F2
000004E0
00000150
ENDCHAR
STARTCHAR uni0122.ss01
ENCODING -1
SWIDTH 811 0
DWIDTH 8 0
BBX 8 12 0 -3
BITMAP
002AEE70
03EA36F3
0BB001F3
2F500070
4F300000
5F303FF7
2F6002C8
0AE634E6
008DEDF4
000102F2
000984E0
00094150
ENDCHAR
STARTCHAR Gdotaccent.ss01
ENCODING -1
SWIDTH 811 0
DWIDTH 8 0
BBX 8 14 0 -3
BITMAP
00009D00
00001100
002AEE70
03EA36F3
0BB001F3
2F500070
4F300000
5F303FF7
2F6002C8
0AE634E6
008DEDF4
000002F2
000004E0
00000150
ENDCHAR
STARTCHAR H.ss01
ENCODING -1
SWIDTH 846 0
DWIDTH 8 0
BBX 9 9 0 0
BITMAP
00D4005C00
02F5008D00
03F300AB00
06F100C900
5FFFFFFF50
0BB224F500
0D8004F200
0F7007F000
0E4006C000
ENDCHAR
STARTCHAR Hbar.ss01
ENCODING -1
SWIDTH 856 0
DWIDTH 9 0
BBX 9 9 0 0
BITMAP
00D5005E00
1EFFFFFFA0
05F422BB10
05F100C900
5FFFFFFF50
0BC223F600
0C9003F300
0E7006F100
0D4005C000
ENDCHAR
STARTCHAR Hcircumflex.ss01
ENCODING -1
SWIDTH 846 0
DWIDTH 8 0
BBX 9 13 0 0
BITMAP
00006E3000
0002EB9000
000793B000
0000000000
00D4005C00
02F5008D00
03F300AB00
06F100C900
5FFFFFFF50
0BB224F500
0D8004F200
0F7007F000
0E4006C000
ENDCHAR
STARTCHAR I.ss01
ENCODING -1
SWIDTH 357 0
DWIDTH 4 0
BBX 4 9 0 0
BITMAP
01E3
04F2
06F0
08D0
0AB0
0D80
0F60
2F40
2E20
ENDCHAR
STARTCHAR Iacute.ss01
ENCODING -1
SWIDTH 357 0
DWIDTH 4 0
BBX 6 13 0 0
BITMAP
000051
000AE2
008A20
000000
01E300
04F200
06F000
08D000
0AB000
0D8000
0F6000
2F4000
2E2000
ENDCHAR
STARTCHAR Iacute_J.loclNLD.ss01
ENCODING -1
SWIDTH 776 0
DWIDTH 8 0
BBX 9 13 1 0
BITMAP
0006000420
01BE207F50
099104B300
0000000000
5D000C4000
8E001F5000
AC004F4000
CA009F2000
CC27EF1000
7FFD8E0000
0230AA0000
B537F40000
8DEC400000
ENDCHAR
STARTCHAR Ibreve.ss01
ENCODING -1
SWIDTH 357 0
DWIDTH 4 0
BBX 5 12 0 0
BITMAP
2B13A0
0BFF60
001000
01E300
04F200
06F000
08D000
0AB000
0D8000
0F6000
2F4000
2E2000
ENDCHAR
STARTCHAR Icircumflex.ss01
ENCODING -1
SWIDTH 357 0
DWIDTH 4 0
BBX 5 13 0 0
BITMAP
00BB00
08CE20
0D3A50
000000
01E300
04F200
06F000
08D000
0AB000
0D8000
0F6000
2F4000
2E2000
ENDCHAR
STARTCHAR uni0208.ss01
ENCODING -1
SWIDTH 357 0
DWIDTH 4 0
BBX 4 13 0 0
BITMAP
1523
3E6B
0A3C
0000
01E3
04F2
06F0
08D0
0AB0
0D80
0F60
2F40
2E20
ENDCHAR
STARTCHAR Idieresis.ss01
ENCODING -1
SWIDTH 357 0
DWIDTH 4 0
BBX 5 11 0 0
BITMAP
0C6B70
010100
01E300
04F200
06F000
08D000
0AB000
0D8000
0F6000
2F4000
2E2000
ENDCHAR
STARTCHAR Idotaccent.ss01
ENCODING -1
SWIDTH 357 0
DWIDTH 4 0
BBX 4 11 0 0
BITMAP
01D8
0010
01E3
04F2
06F0
08D0
0AB0
0D80
0F60
2F40
2E20
ENDCHAR
STARTCHAR uni1ECA.ss01
ENCODING -1
SWIDTH 357 0
DWIDTH 4 0
BBX 4 12 0 -3
BITMAP
01E3
04F2
06F0
08D0
0AB0
0D80
0F60
2F40
2E20
0000
7E10
0100
ENDCHAR
STARTCHAR Igrave.ss01
ENCODING -1
SWIDTH 357 0
DWIDTH 4 0
BBX 4 13 0 0
BITMAP
5100
DD20
17B0
0000
01E3
04F2
06F0
08D0
0AB0
0D80
0F60
2F40
2E20
ENDCHAR
STARTCHAR uni1EC8.ss01
ENCODING -1
SWIDTH 357 0
DWIDTH 4 0
BBX 5 13 0 0
BITMAP
01EC10
003D30
00BD00
001000
01E300
04F200
06F000
08D000
0AB000
0D8000
0F6000
2F4000
2E2000
ENDCHAR
STARTCHAR uni020A.ss01
ENCODING -1
SWIDTH 357 0
DWIDTH 4 0
BBX 5 12 0 0
BITMAP
07ED50
2E47D0
010010
01E300
04F200
06F000
08D000
0AB000
0D8000
0F6000
2F4000
2E2000
ENDCHAR
STARTCHAR Imacron.ss01
ENCODING -1
SWIDTH 357 0
DWIDTH 4 0
BBX 5 11 0 0
BITMAP
0CFF30
012200
01E300
04F200
06F000
08D000
0AB000
0D8000
0F6000
2F4000
2E2000
ENDCHAR
STARTCHAR Iogonek.ss01
ENCODING -1
SWIDTH 357 0
DWIDTH 4 0
BBX 4 13 0 -4
BITMAP
01E2
04F3
05F1
07D0
0AB0
0C90
0E70
1F50
3F30
5B00
B600
7FC0
0210
ENDCHAR
STARTCHAR Itilde.ss01
ENCODING -1
SWIDTH 357 0
DWIDTH 4 0
BBX 5 12 0 0
BITMAP
0BC3D0
4A6E70
000000
01E300
04F200
06F000
08D000
0AB000
0D8000
0F6000
2F4000
2E2000
ENDCHAR
STARTCHAR J.ss01
ENCODING -1
SWIDTH 716 0
DWIDTH 7 0
BBX 8 9 0 0
BITMAP
03ADFDB2
1E832CB0
3F100D80
1B100F60
00002F40
00004F10
15007C00
2F64E600
06EE8000
ENDCHAR
STARTCHAR Jcircumflex.ss01
ENCODING -1
SWIDTH 716 0
DWIDTH 7 0
BBX 8 13 0 0
BITMAP
0001D800
000ABE10
001D1C30
00000000
03ADFDB2
1E832CB0
3F100D80
1B100F60
00002F40
00004F10
15007C00
2F64E600
06EE8000
ENDCHAR
STARTCHAR K.ss01
ENCODING -1
SWIDTH 779 0
DWIDTH 8 0
BBX 8 9 0 0
BITMAP
01E300A8
03F302F5
05F10AC0
07E19D20
3FFFA100
0DA8F300
0E70DA00
1F507F41
1E300BF9
ENDCHAR
STARTCHAR uni0136.ss01
ENCODING -1
SWIDTH 779 0
DWIDTH 8 0
BBX 8 12 0 -3
BITMAP
01E300A8
03F302F5
05F10AC0
07E19D20
3FFFA100
0DA8F300
0E70DA00
1F507F41
1E300BF9
00010000
001F1000
001C0000
ENDCHAR
STARTCHAR L.ss01
ENCODING -1
SWIDTH 625 0
DWIDTH 6 0
BBX 7 9 0 0
BITMAP
02E20000
05F20000
07F00000
09D00000
0BA00000
0D800000
0F600000
2F855400
2FFFFE10
ENDCHAR
STARTCHAR uni01C7.ss01
ENCODING -1
SWIDTH 1291 0
DWIDTH 13 0
BBX 13 9 0 0
BITMAP
02E20005BEFDA0
05F2004E633F80
07F0007C002F40
09D0003A004F20
0BA00000006F00
0D800000008D00
0F60002300B900
2F85546E46F300
2FFFFE19ED5000
ENDCHAR
STARTCHAR Lacute.ss01
ENCODING -1
SWIDTH 625 0
DWIDTH 6 0
BBX 7 13 0 0
BITMAP
00006100
000AE200
00892000
00000000
02E20000
05F20000
07F00000
09D00000
0BA00000
0D800000
0F600000
2F855400
2FFFFE10
ENDCHAR
STARTCHAR Lcaron.ss01
ENCODING -1
SWIDTH 625 0
DWIDTH 6 0
BBX 7 9 0 0
BITMAP
02E20300
05F22E00
07F03A00
09D00000
0BA00000
0D800000
0F600000
2F855400
2FFFFE10
ENDCHAR
STARTCHAR uni013B.ss01
ENCODING -1
SWIDTH 625 0
DWIDTH 6 0
BBX 7 12 0 -3
BITMAP
02E20000
05F20000
07F00000
09D00000
0BA00000
0D800000
0F600000
2F855400
2FFFFE10
00010000
004D0000
00490000
ENDCHAR
STARTCHAR Ldot.ss01
ENCODING -1
SWIDTH 625 0
DWIDTH 6 0
BBX 7 9 0 0
BITMAP
02E20000
05F20000
07F00000
09D00000
0BA0C900
0D801000
0F600000
2F855400
2FFFFE10
ENDCHAR
STARTCHAR uni01C8.ss01
ENCODING -1
SWIDTH 854 0
DWIDTH 9 0
BBX 9 14 0 -5
BITMAP
02E2000000
05F2000000
07F0000C90
09D0000100
0BA0000C40
0D80000F40
0F60002F20
2F85543E00
2FFFFE6C00
000002DA00
00001CD700
0000A5E200
0000E7C000
0000BD3000
ENDCHAR
STARTCHAR Lslash.ss01
ENCODING -1
SWIDTH 625 0
DWIDTH 6 0
BBX 7 9 0 0
BITMAP
02E20000
05F21000
07F7E000
09FC3000
8FB00000
4E800000
0F600000
2F855400
2FFFFE10
ENDCHAR
STARTCHAR M.ss01
ENCODING -1
SWIDTH 1139 0
DWIDTH 11 0
BBX 11 9 0 0
BITMAP
02E2BE61BE70
05EB69CB6AD0
07E906E909D0
09F308F30AB0
0BD00AD00D90
0D900DA00F60
0F700F703F40
2F402F505F20
2E102E204D00
ENDCHAR
STARTCHAR N.ss01
ENCODING -1
SWIDTH 799 0
DWIDTH 8 0
BBX 8 9 0 0
BITMAP
02E19ED2
05EA94F7
07EC00E7
0AF401F5
0CE004F2
0EA006F0
0F7009D0
2F400BB0
2E100A80
ENDCHAR
STARTCHAR uni01CA.ss01
ENCODING -1
SWIDTH 1515 0
DWIDTH 15 0
BBX 16 9 0 0
BITMAP
02E19ED203AEFDB1
05EA94F71E832CB0
07EC00E73F000D80
0AF401F51B100F60
0CE004F200002F40
0EA006F000004F10
0F7009D014008C00
2F400BB03F64E600
2E100A8006EE8000
ENDCHAR
STARTCHAR Nacute.ss01
ENCODING -1
SWIDTH 799 0
DWIDTH 8 0
BBX 8 13 0 0
BITMAP
00000052
000008F4
00005B30
00000000
02E19ED2
05EA94F7
07EC00E7
0AF401F5
0CE004F2
0EA006F0
0F7009D0
2F400BB0
2E100A80
ENDCHAR
STARTCHAR Ncaron.ss01
ENCODING -1
SWIDTH 799 0
DWIDTH 8 0
BBX 8 13 0 0
BITMAP
00033150
0005BA70
0000CA00
00000000
02E19ED2
05EA94F7
07EC00E7
0AF401F5
0CE004F2
0EA006F0
0F7009D0
2F400BB0
2E100A80
ENDCHAR
STARTCHAR uni0145.ss01
ENCODING -1
SWIDTH 799 0
DWIDTH 8 0
BBX 8 12 0 -3
BITMAP
02E19ED2
05EA94F7
07EC00E7
0AF401F5
0CE004F2
0EA006F0
0F7009D0
2F400BB0
2E100A80
00010000
001F1000
001C0000
ENDCHAR
STARTCHAR Eng.ss01
ENCODING -1
SWIDTH 792 0
DWIDTH 8 0
BBX 8 14 0 -5
BITMAP
02E29EC1
05EA94F6
07EC01F6
09F403F4
0BE006F1
0DA009D0
0F700CA0
2F500E70
2E103F30
00006E00
0100A900
1F52E300
07FF7000
00110000
ENDCHAR
STARTCHAR uni01CB.ss01
ENCODING -1
SWIDTH 1008 0
DWIDTH 10 0
BBX 11 14 0 -5
BITMAP
02E19ED20000
05EA94F70000
07EC00E74E30
0AF401F50100
0CE004F24C00
0EA006F07C00
0F7009D09A00
2F400BB0A800
2E100A80C500
00000007F300
0000006CE000
000002C6B000
0000069C5000
000003EA0000
ENDCHAR
STARTCHAR Ntilde.ss01
ENCODING -1
SWIDTH 799 0
DWIDTH 8 0
BBX 8 12 0 0
BITMAP
0009D3C2
002C5D90
00000000
02E19ED2
05EA94F7
07EC00E7
0AF401F5
0CE004F2
0EA006F0
0F7009D0
2F400BB0
2E100A80
ENDCHAR
STARTCHAR OE.ss01
ENCODING -1
SWIDTH 1166 0
DWIDTH 12 0
BBX 12 9 0 0
BITMAP
003BEE74EFFC
03E936FEB221
0BB000AF7000
2F50008F4000
4F20008FFFF1
5F2000BE2210
3F5002FE0000
0CD44CDF8344
02BEE817DFD5
ENDCHAR
STARTCHAR P.ss01
ENCODING -1
SWIDTH 662 0
DWIDTH 7 0
BBX 7 9 0 0
BITMAP
07DFD700
08F86F60
02F40CA0
05F20E80
07E18E20
6FFFC400
0CA10000
0E800000
0D500000
ENDCHAR
STARTCHAR Thorn.ss01
ENCODING -1
SWIDTH 658 0
DWIDTH 7 0
BBX 7 9 0 0
BITMAP
00D60000
05FFD500
1BF5AF30
05F11F70
07E02F50
09B2AD10
7FFFB200
0E910000
0D500000
ENDCHAR
STARTCHAR Q.ss01
ENCODING -1
SWIDTH 816 0
DWIDTH 8 0
BBX 8 12 0 -3
BITMAP
003BED70
03E936F7
0CB000AD
2F50008E
4F20008E
5F2000CB
3F6004F5
0BE88EA0
018EF700
0002EA00
00006F40
00000830
ENDCHAR
STARTCHAR R.ss01
ENCODING -1
SWIDTH 744 0
DWIDTH 7 0
BBX 8 9 0 0
BITMAP
08DFD800
17F76F60
03F30E80
05F29E20
1FFFA200
0BBBD000
0D93F600
0E70BD31
0D402DE5
ENDCHAR
STARTCHAR Racute.ss01
ENCODING -1
SWIDTH 744 0
DWIDTH 7 0
BBX 8 13 0 0
BITMAP
00000250
00003EA0
0000C600
00000000
08DFD800
17F76F60
03F30E80
05F29E20
1FFFA200
0BBBD000
0D93F600
0E70BD31
0D402DE5
ENDCHAR
STARTCHAR Rcaron.ss01
ENCODING -1
SWIDTH 744 0
DWIDTH 7 0
BBX 8 13 0 0
BITMAP
00150510
000E6D10
0006D300
00000000
08DFD800
17F76F60
03F30E80
05F29E20
1FFFA200
0BBBD000
0D93F600
0E70BD31
0D402DE5
ENDCHAR
STARTCHAR uni0156.ss01
ENCODING -1
SWIDTH 744 0
DWIDTH 7 0
BBX 8 12 0 -3
BITMAP
08DFD800
17F76F60
03F30E80
05F29E20
1FFFA200
0BBBD000
0D93F600
0E70BD31
0D402DE5
00010000
002F0000
002B0000
ENDCHAR
STARTCHAR uni0210.ss01
ENCODING -1
SWIDTH 744 0
DWIDTH 7 0
BBX 8 13 0 0
BITMAP
00425000
00A7D500
003A5700
00000000
08DFD800
17F76F60
03F30E80
05F29E20
1FFFA200
0BBBD000
0D93F600
0E70BD31
0D402DE5
ENDCHAR
STARTCHAR uni0212.ss01
ENCODING -1
SWIDTH 744 0
DWIDTH 7 0
BBX 8 12 0 0
BITMAP
001BEB10
009A3C60
00100100
08DFD800
17F76F60
03F30E80
05F29E20
1FFFA200
0BBBD000
0D93F600
0E70BD31
0D402DE5
ENDCHAR
STARTCHAR T.ss01
ENCODING -1
SWIDTH 631 0
DWIDTH 6 0
BBX 8 9 0 0
BITMAP
3DEFFFE4
033DA220
000F6000
002F4000
005F1000
007E0000
009C0000
00BA0000
00B70000
ENDCHAR
STARTCHAR Tbar.ss01
ENCODING -1
SWIDTH 631 0
DWIDTH 6 0
BBX 8 9 0 0
BITMAP
3DEFFFE4
033DA220
000F6000
002F4000
0DFFFA00
028E2100
009C0000
00BA0000
00B70000
ENDCHAR
STARTCHAR Tcaron.ss01
ENCODING -1
SWIDTH 631 0
DWIDTH 6 0
BBX 8 13 0 0
BITMAP
00150610
001E6C00
0007D200
00000000
3DEFFFE4
033DA220
000F6000
002F4000
005F1000
007E0000
009C0000
00BA0000
00B70000
ENDCHAR
STARTCHAR uni0162.ss01
ENCODING -1
SWIDTH 631 0
DWIDTH 6 0
BBX 8 12 0 -3
BITMAP
3DEFFFE4
033DA220
000F6000
003F3000
005F1000
008D0000
00AB0000
00C90000
03FA0000
005F0000
0CF90000
01100000
ENDCHAR
STARTCHAR uni021A.ss01
ENCODING -1
SWIDTH 631 0
DWIDTH 6 0
BBX 8 12 0 -3
BITMAP
3DEFFFE4
033DA220
000F6000
002F4000
005F1000
007E0000
009C0000
00BA0000
00B70000
00100000
00C50000
00C10000
ENDCHAR
STARTCHAR U.ss01
ENCODING -1
SWIDTH 800 0
DWIDTH 8 0
BBX 7 9 1 0
BITMAP
2E300990
4F300D90
6F000F70
8D004F50
BA008F30
D800DF10
F607EE00
FB8E9C00
8EC39800
ENDCHAR
STARTCHAR Uacute.ss01
ENCODING -1
SWIDTH 800 0
DWIDTH 8 0
BBX 7 13 1 0
BITMAP
00000420
00007F50
0005B300
00000000
2E300990
4F300D90
6F000F70
8D004F50
BA008F30
D800DF10
F607EE00
FB8E9C00
8EC39800
ENDCHAR
STARTCHAR Ubreve.ss01
ENCODING -1
SWIDTH 800 0
DWIDTH 8 0
BBX 7 12 1 0
BITMAP
00B32B10
009FF800
00011000
2E300990
4F300D90
6F000F70
8D004F50
BA008F30
D800DF10
F607EE00
FB8E9C00
8EC39800
ENDCHAR
STARTCHAR Ucircumflex.ss01
ENCODING -1
SWIDTH 800 0
DWIDTH 8 0
BBX 7 13 1 0
BITMAP
0009D100
005EC500
00B57800
00000000
2E300990
4F300D90
6F000F70
8D004F50
BA008F30
D800DF10
F607EE00
FB8E9C00
8EC39800
ENDCHAR
STARTCHAR uni0214.ss01
ENCODING -1
SWIDTH 800 0
DWIDTH 8 0
BBX 7 13 1 0
BITMAP
00615000
01F5E000
0085A200
00000000
2E300990
4F300D90
6F000F70
8D004F50
BA008F30
D800DF10
F607EE00
FB8E9C00
8EC39800
ENDCHAR
STARTCHAR Udieresis.ss01
ENCODING -1
SWIDTH 800 0
DWIDTH 8 0
BBX 7 11 1 0
BITMAP
00988A00
00101100
2E300990
4F300D90
6F000F70
8D004F50
BA008F30
D800DF10
F607EE00
FB8E9C00
8EC39800
ENDCHAR
STARTCHAR uni1EE4.ss01
ENCODING -1
SWIDTH 800 0
DWIDTH 8 0
BBX 7 12 1 -3
BITMAP
2E300990
4F300D90
6F000F70
8D004F50
BA008F30
D800DF10
F607EE00
FB8E9C00
8EC39800
00000000
02E60000
00100000
ENDCHAR
STARTCHAR Ugrave.ss01
ENCODING -1
SWIDTH 800 0
DWIDTH 8 0
BBX 7 13 1 0
BITMAP
04200000
0AE30000
006C1000
00000000
2E300990
4F300D90
6F000F70
8D004F50
BA008F30
D800DF10
F607EE00
FB8E9C00
8EC39800
ENDCHAR
STARTCHAR uni1EE6.ss01
ENCODING -1
SWIDTH 800 0
DWIDTH 8 0
BBX 7 13 1 0
BITMAP
000CD200
0002B600
0008E200
00011000
2E300990
4F300D90
6F000F70
8D004F50
BA008F30
D800DF10
F607EE00
FB8E9C00
8EC39800
ENDCHAR
STARTCHAR Uhorn.ss01
ENCODING -1
SWIDTH 800 0
DWIDTH 8 0
BBX 9 11 1 0
BITMAP
0000000500
0000002F20
2E3009FB00
4F300DA000
6F000F7000
8D004F5000
BA008F3000
D800DF1000
F607EE0000
FB8E9C0000
8EC3980000
ENDCHAR
STARTCHAR uni1EE8.ss01
ENCODING -1
SWIDTH 800 0
DWIDTH 8 0
BBX 9 13 1 0
BITMAP
0000042000
00007F5000
0005B30500
0000002F20
2E3009FB00
4F300DA000
6F000F7000
8D004F5000
BA008F3000
D800DF1000
F607EE0000
FB8E9C0000
8EC3980000
ENDCHAR
STARTCHAR uni1EF0.ss01
ENCODING -1
SWIDTH 800 0
DWIDTH 8 0
BBX 9 14 1 -3
BITMAP
0000000500
0000002F20
2E3009FB00
4F300DA000
6F000F7000
8D004F5000
BA008F3000
D800DF1000
F607EE0000
FB8E9C0000
8EC3980000
0000000000
02E6000000
0010000000
ENDCHAR
STARTCHAR uni1EEA.ss01
ENCODING -1
SWIDTH 800 0
DWIDTH 8 0
BBX 9 13 1 0
BITMAP
0420000000
0AE3000000
006C100500
0000002F20
2E3009FB00
4F300DA000
6F000F7000
8D004F5000
BA008F3000
D800DF1000
F607EE0000
FB8E9C0000
8EC3980000
ENDCHAR
STARTCHAR uni1EEC.ss01
ENCODING -1
SWIDTH 800 0
DWIDTH 8 0
BBX 9 13 1 0
BITMAP
000CD20000
0002B60000
0008E20500
0001102F20
2E3009FB00
4F300DA000
6F000F7000
8D004F5000
BA008F3000
D800DF1000
F607EE0000
FB8E9C0000
8EC3980000
ENDCHAR
STARTCHAR uni1EEE.ss01
ENCODING -1
SWIDTH 800 0
DWIDTH 8 0
BBX 9 12 1 0
BITMAP
009D3B2000
01D5DA0500
0000002F20
2E3009FB00
4F300DA000
6F000F7000
8D004F5000
BA008F3000
D800DF1000
F607EE0000
FB8E9C0000
8EC3980000
ENDCHAR
STARTCHAR Uhungarumlaut.ss01
ENCODING -1
SWIDTH 800 0
DWIDTH 8 0
BBX 7 13 1 0
BITMAP
00051500
001F6D00
00487500
00000000
2E300990
4F300D90
6F000F70
8D004F50
BA008F30
D800DF10
F607EE00
FB8E9C00
8EC39800
ENDCHAR
STARTCHAR uni0216.ss01
ENCODING -1
SWIDTH 800 0
DWIDTH 8 0
BBX 7 12 1 0
BITMAP
004DE700
00E65F10
00100100
2E300990
4F300D90
6F000F70
8D004F50
BA008F30
D800DF10
F607EE00
FB8E9C00
8EC39800
ENDCHAR
STARTCHAR Umacron.ss01
ENCODING -1
SWIDTH 800 0
DWIDTH 8 0
BBX 7 11 1 0
BITMAP
009FF600
00122000
2E300990
4F300D90
6F000F70
8D004F50
BA008F30
D800DF10
F607EE00
FB8E9C00
8EC39800
ENDCHAR
STARTCHAR Uogonek.ss01
ENCODING -1
SWIDTH 800 0
DWIDTH 8 0
BBX 7 13 1 -4
BITMAP
2E300990
4F300D90
6F000F80
8D004F60
BA008F40
D800DF20
F607EF00
FB8E9D00
8EC39A00
0001D300
0004D000
0001EF40
00000200
ENDCHAR
STARTCHAR Uring.ss01
ENCODING -1
SWIDTH 800 0
DWIDTH 8 0
BBX 7 13 1 0
BITMAP
000BD200
003CA600
001EE200
00011000
2E300990
4F300D90
6F000F70
8D004F50
BA008F30
D800DF10
F607EE00
FB8E9C00
8EC39800
ENDCHAR
STARTCHAR Utilde.ss01
ENCODING -1
SWIDTH 800 0
DWIDTH 8 0
BBX 7 12 1 0
BITMAP
009D3B20
01D5DA00
00000000
2E300990
4F300D90
6F000F70
8D004F50
BA008F30
D800DF10
F607EE00
FB8E9C00
8EC39800
ENDCHAR
STARTCHAR V.ss01
ENCODING -1
SWIDTH 797 0
DWIDTH 8 0
BBX 8 9 1 0
BITMAP
5C0004E1
9D0008E0
AC000BB0
BB000E70
BA004F20
AB00AB00
8E03F400
4F9D9000
0AE90000
ENDCHAR
STARTCHAR W.ss01
ENCODING -1
SWIDTH 1236 0
DWIDTH 12 0
BBX 12 9 1 0
BITMAP
5C000A8000C6
9D000F8002F5
AB003F7005F1
BA007F6009D0
BA00BF500D80
BA01EE603F20
9C08AB70AA00
5F9E38D9E200
0BE501DD4000
ENDCHAR
STARTCHAR Wacute.ss01
ENCODING -1
SWIDTH 1236 0
DWIDTH 12 0
BBX 12 13 1 0
BITMAP
000000033000
0000005F7000
000002C40000
000000000000
5C000A8000C6
9D000F8002F5
AB003F7005F1
BA007F6009D0
BA00BF500D80
BA01EE603F20
9C08AB70AA00
5F9E38D9E200
0BE501DD4000
ENDCHAR
STARTCHAR Wcircumflex.ss01
ENCODING -1
SWIDTH 1236 0
DWIDTH 12 0
BBX 12 13 1 0
BITMAP
000007E20000
00002EB80000
0000884A0000
000000000000
5C000A8000C6
9D000F8002F5
AB003F7005F1
BA007F6009D0
BA00BF500D80
BA01EE603F20
9C08AB70AA00
5F9E38D9E200
0BE501DD4000
ENDCHAR
STARTCHAR Wdieresis.ss01
ENCODING -1
SWIDTH 1236 0
DWIDTH 12 0
BBX 12 11 1 0
BITMAP
00007B5C0000
000011010000
5C000A8000C6
9D000F8002F5
AB003F7005F1
BA007F6009D0
BA00BF500D80
BA01EE603F20
9C08AB70AA00
5F9E38D9E200
0BE501DD4000
ENDCHAR
STARTCHAR Wgrave.ss01
ENCODING -1
SWIDTH 1236 0
DWIDTH 12 0
BBX 12 13 1 0
BITMAP
000330000000
0007F5000000
00004C300000
000000000000
5C000A8000C6
9D000F8002F5
AB003F7005F1
BA007F6009D0
BA00BF500D80
BA01EE603F20
9C08AB70AA00
5F9E38D9E200
0BE501DD4000
ENDCHAR
STARTCHAR X.ss01
ENCODING -1
SWIDTH 677 0
DWIDTH 7 0
BBX 9 9 -1 0
BITMAP
008B002D50
004F41CB00
000CA9D100
0006FE3000
0004F90000
002EDE1000
01DB1F6000
0BD10AD000
5E3003E200
ENDCHAR
STARTCHAR Y.ss01
ENCODING -1
SWIDTH 776 0
DWIDTH 8 0
BBX 7 9 1 0
BITMAP
5D000C40
8E001F50
AC004F40
CA009F20
CC27EF10
7FFD8E00
0230AA00
B537F400
8DEC4000
ENDCHAR
STARTCHAR Yacute.ss01
ENCODING -1
SWIDTH 776 0
DWIDTH 8 0
BBX 7 13 1 0
BITMAP
00000600
0001BE20
00099100
00000000
5D000C40
8E001F50
AC004F40
CA009F20
CC27EF10
7FFD8E00
0230AA00
B537F400
8DEC4000
ENDCHAR
STARTCHAR Ycircumflex.ss01
ENCODING -1
SWIDTH 776 0
DWIDTH 8 0
BBX 7 13 1 0
BITMAP
001C9000
009BF100
00D2B400
00000000
5D000C40
8E001F50
AC004F40
CA009F20
CC27EF10
7FFD8E00
0230AA00
B537F400
8DEC4000
ENDCHAR
STARTCHAR Ydieresis.ss01
ENCODING -1
SWIDTH 776 0
DWIDTH 8 0
BBX 7 11 1 0
BITMAP
00D5C600
00101000
5D000C40
8E001F50
AC004F40
CA009F20
CC27EF10
7FFD8E00
0230AA00
B537F400
8DEC4000
ENDCHAR
STARTCHAR uni1EF4.ss01
ENCODING -1
SWIDTH 776 0
DWIDTH 8 0
BBX 7 12 1 -3
BITMAP
5D000C40
8E001F50
AC004F40
CA009F20
CC27EF10
7FFD8E00
0230AA00
B537F400
8DEC4000
00000000
07E10000
00100000
ENDCHAR
STARTCHAR Ygrave.ss01
ENCODING -1
SWIDTH 776 0
DWIDTH 8 0
BBX 7 13 1 0
BITMAP
06100000
0DC10000
018A0000
00000000
5D000C40
8E001F50
AC004F40
CA009F20
CC27EF10
7FFD8E00
0230AA00
B537F400
8DEC4000
ENDCHAR
STARTCHAR uni1EF6.ss01
ENCODING -1
SWIDTH 776 0
DWIDTH 8 0
BBX 7 13 1 0
BITMAP
002EB000
0003E200
000CC000
00010000
5D000C40
8E001F50
AC004F40
CA009F20
CC27EF10
7FFD8E00
0230AA00
B537F400
8DEC4000
ENDCHAR
STARTCHAR uni0232.ss01
ENCODING -1
SWIDTH 776 0
DWIDTH 8 0
BBX 7 11 1 0
BITMAP
00DFF200
00222000
5D000C40
8E001F50
AC004F40
CA009F20
CC27EF10
7FFD8E00
0230AA00
B537F400
8DEC4000
ENDCHAR
STARTCHAR uni1EF8.ss01
ENCODING -1
SWIDTH 776 0
DWIDTH 8 0
BBX 7 12 1 0
BITMAP
01CB3C00
0597E600
00000000
5D000C40
8E001F50
AC004F40
CA009F20
CC27EF10
7FFD8E00
0230AA00
B537F400
8DEC4000
ENDCHAR
STARTCHAR Z.ss01
ENCODING -1
SWIDTH 665 0
DWIDTH 7 0
BBX 7 9 0 0
BITMAP
1DFFFFA0
02224F90
0000CE10
0007F500
003F9000
01DD1000
0AF30000
7F922100
CFFFFF40
ENDCHAR
STARTCHAR Zacute.ss01
ENCODING -1
SWIDTH 665 0
DWIDTH 7 0
BBX 7 13 0 0
BITMAP
00000250
00003DB0
0000C600
00000000
1DFFFFA0
02224F90
0000CE10
0007F500
003F9000
01DD1000
0AF30000
7F922100
CFFFFF40
ENDCHAR
STARTCHAR Zcaron.ss01
ENCODING -1
SWIDTH 665 0
DWIDTH 7 0
BBX 7 13 0 0
BITMAP
00060510
000D5D10
0006E300
00000000
1DFFFFA0
02224F90
0000CE10
0007F500
003F9000
01DD1000
0AF30000
7F922100
CFFFFF40
ENDCHAR
STARTCHAR Zdotaccent.ss01
ENCODING -1
SWIDTH 665 0
DWIDTH 7 0
BBX 7 11 0 0
BITMAP
0005E200
00001000
1DFFFFA0
02224F90
0000CE10
0007F500
003F9000
01DD1000
0AF30000
7F922100
CFFFFF40
ENDCHAR
STARTCHAR i.loclTRK
ENCODING -1
SWIDTH 246 0
DWIDTH 2 0
BBX 4 7 0 0
BITMAP
1D70
0100
1E10
5E00
7C03
7C79
3EB1
ENDCHAR
STARTCHAR a.fina
ENCODING -1
SWIDTH 458 0
DWIDTH 5 0
BBX 5 5 0 0
BITMAP
05DF40
3F6E40
8B2F20
9B9F10
4E9D00
ENDCHAR
STARTCHAR aacute.fina
ENCODING -1
SWIDTH 458 0
DWIDTH 5 0
BBX 5 10 0 0
BITMAP
000150
0007C0
000D40
002900
000000
05DF40
3F6E40
8B2F20
9B9F10
4E9D00
ENDCHAR
STARTCHAR abreve.fina
ENCODING -1
SWIDTH 458 0
DWIDTH 5 0
BBX 6 9 0 0
BITMAP
030021
0B82E2
05FF90
001100
05DF40
3F6E40
8B2F20
9B9F10
4E9D00
ENDCHAR
STARTCHAR uni1EAF.fina
ENCODING -1
SWIDTH 458 0
DWIDTH 5 0
BBX 6 9 0 0
BITMAP
0007A0
094593
06FFB1
001100
05DF40
3F6E40
8B2F20
9B9F10
4E9D00
ENDCHAR
STARTCHAR uni1EB7.fina
ENCODING -1
SWIDTH 458 0
DWIDTH 5 0
BBX 6 12 0 -3
BITMAP
030021
0B82E2
05FF90
001100
05DF40
3F6E40
8B2F20
9B9F10
4E9D00
000000
0C9000
010000
ENDCHAR
STARTCHAR uni1EB1.fina
ENCODING -1
SWIDTH 458 0
DWIDTH 5 0
BBX 6 9 0 0
BITMAP
01D300
085492
06FFA1
000100
05DF40
3F6E40
8B2F20
9B9F10
4E9D00
ENDCHAR
STARTCHAR uni1EB3.fina
ENCODING -1
SWIDTH 458 0
DWIDTH 5 0
BBX 6 10 0 0
BITMAP
009E30
015F40
0C73D3
05FFA0
000200
05DF40
3F6E40
8B2F20
9B9F10
4E9D00
ENDCHAR
STARTCHAR uni1EB5.fina
ENCODING -1
SWIDTH 458 0
DWIDTH 5 0
BBX 6 10 0 0
BITMAP
02C874
043570
0A41A3
06EFA0
000100
05DF40
3F6E40
8B2F20
9B9F10
4E9D00
ENDCHAR
STARTCHAR acircumflex.fina
ENCODING -1
SWIDTH 458 0
DWIDTH 5 0
BBX 5 10 0 0
BITMAP
001600
008E50
02E890
0874A0
000000
05DF40
3F6E40
8B2F20
9B9F10
4E9D00
ENDCHAR
STARTCHAR uni1EA5.fina
ENCODING -1
SWIDTH 458 0
DWIDTH 5 0
BBX 7 10 0 0
BITMAP
00000510
00007B10
009D4000
06A5A000
00000000
05DF4000
3F6E4000
8B2F2000
9B9F1000
4E9D0000
ENDCHAR
STARTCHAR uni1EAD.fina
ENCODING -1
SWIDTH 458 0
DWIDTH 5 0
BBX 5 13 0 -3
BITMAP
001600
008E50
02E890
0874A0
000000
05DF40
3F6E40
8B2F20
9B9F10
4E9D00
000000
0C9000
010000
ENDCHAR
STARTCHAR uni1EA7.fina
ENCODING -1
SWIDTH 458 0
DWIDTH 5 0
BBX 5 10 0 0
BITMAP
240000
3C3000
009D40
06A5A0
000000
05DF40
3F6E40
8B2F20
9B9F10
4E9D00
ENDCHAR
STARTCHAR uni1EA9.fina
ENCODING -1
SWIDTH 458 0
DWIDTH 5 0
BBX 7 9 0 0
BITMAP
00009D10
00001A40
008E8E10
06D9A100
06EF5000
3F6E4000
8B2F2000
9B9F1000
4E9D0000
ENDCHAR
STARTCHAR uni1EAB.fina
ENCODING -1
SWIDTH 458 0
DWIDTH 5 0
BBX 6 10 0 0
BITMAP
02D993
034870
00BE50
0795A0
000000
05DF40
3F6E40
8B2F20
9B9F10
4E9D00
ENDCHAR
STARTCHAR uni0201.fina
ENCODING -1
SWIDTH 458 0
DWIDTH 5 0
BBX 5 10 0 0
BITMAP
152400
3F7D00
0C5E20
047740
000000
05DF40
3F6E40
8B2F20
9B9F10
4E9D00
ENDCHAR
STARTCHAR adieresis.fina
ENCODING -1
SWIDTH 458 0
DWIDTH 5 0
BBX 5 7 0 0
BITMAP
06B5C0
011010
05DF40
3F6E40
8B2F20
9B9F10
4E9D00
ENDCHAR
STARTCHAR uni1EA1.fina
ENCODING -1
SWIDTH 458 0
DWIDTH 5 0
BBX 5 8 0 -3
BITMAP
05DF40
3F6E40
8B2F20
9B9F10
4E9D00
000000
0C9000
010000
ENDCHAR
STARTCHAR agrave.fina
ENCODING -1
SWIDTH 458 0
DWIDTH 5 0
BBX 5 10 0 0
BITMAP
042000
09A000
02E100
006500
000000
05DF40
3F6E40
8B2F20
9B9F10
4E9D00
ENDCHAR
STARTCHAR uni1EA3.fina
ENCODING -1
SWIDTH 458 0
DWIDTH 5 0
BBX 5 9 0 0
BITMAP
00AE40
002880
005F30
001100
05DF40
3F6E40
8B2F20
9B9F10
4E9D00
ENDCHAR
STARTCHAR uni0203.fina
ENCODING -1
SWIDTH 458 0
DWIDTH 5 0
BBX 6 8 0 0
BITMAP
02CE70
0A94F2
071071
05DF40
3F6E40
8B2F20
9B9F10
4E9D00
ENDCHAR
STARTCHAR amacron.fina
ENCODING -1
SWIDTH 458 0
DWIDTH 5 0
BBX 5 7 0 0
BITMAP
06FF90
012210
05DF40
3F6E40
8B2F20
9B9F10
4E9D00
ENDCHAR
STARTCHAR aogonek.fina
ENCODING -1
SWIDTH 458 0
DWIDTH 5 0
BBX 5 8 0 -3
BITMAP
05DA20
3F6E40
8B2F20
9B9F10
4EAF00
00A800
00C400
006E90
ENDCHAR
STARTCHAR aring.fina
ENCODING -1
SWIDTH 458 0
DWIDTH 5 0
BBX 5 9 0 0
BITMAP
009E40
01E880
00CF40
000100
05DF40
3F6E40
8B2F20
9B9F10
4E9D00
ENDCHAR
STARTCHAR aringacute.fina
ENCODING -1
SWIDTH 458 0
DWIDTH 5 0
BBX 7 10 0 0
BITMAP
00000330
009E5A30
01E88000
00CF4000
00010000
05DF4000
3F6E4000
8B2F2000
9B9F1000
4E9D0000
ENDCHAR
STARTCHAR atilde.fina
ENCODING -1
SWIDTH 458 0
DWIDTH 5 0
BBX 6 8 0 0
BITMAP
06E594
0C4CB0
000000
05DF40
3F6E40
8B2F20
9B9F10
4E9D00
ENDCHAR
STARTCHAR ae.fina
ENCODING -1
SWIDTH 671 0
DWIDTH 7 0
BBX 7 5 0 0
BITMAP
05DCCE30
3F6C8B60
8A1FAD20
9B8FB5C0
3EB5DD50
ENDCHAR
STARTCHAR aeacute.fina
ENCODING -1
SWIDTH 671 0
DWIDTH 7 0
BBX 7 10 0 0
BITMAP
00000600
00003F10
00009800
0000B100
00000000
05DCCE30
3F6C8B60
8A1FAD20
9B8FB5C0
3EB5DD50
ENDCHAR
STARTCHAR b.fina
ENCODING -1
SWIDTH 475 0
DWIDTH 5 0
BBX 5 10 0 0
BITMAP
00AD10
05BC40
0C6C30
1F4D00
4F8500
6EEB00
7F4D60
6C0B80
3E4E50
0AE900
ENDCHAR
STARTCHAR c.fina
ENCODING -1
SWIDTH 404 0
DWIDTH 4 0
BBX 5 5 0 0
BITMAP
09E600
6E7900
AA1200
9C3B20
2CE800
ENDCHAR
STARTCHAR cacute.fina
ENCODING -1
SWIDTH 404 0
DWIDTH 4 0
BBX 5 10 0 0
BITMAP
000410
000E50
005C00
009200
000000
09E600
6E7900
AA1200
9C3B20
2CE800
ENDCHAR
STARTCHAR ccaron.fina
ENCODING -1
SWIDTH 404 0
DWIDTH 4 0
BBX 5 10 0 0
BITMAP
042150
088970
05BD10
01E500
000000
09E600
6E7900
AA1200
9C3B20
2CE800
ENDCHAR
STARTCHAR ccedilla.fina
ENCODING -1
SWIDTH 404 0
DWIDTH 4 0
BBX 5 9 0 -4
BITMAP
09E600
5E7A00
AA2300
9B0720
4FDD10
09E400
00A600
5FD100
020000
ENDCHAR
STARTCHAR ccircumflex.fina
ENCODING -1
SWIDTH 404 0
DWIDTH 4 0
BBX 5 10 0 0
BITMAP
003400
01DD00
098E10
0D1B30
000000
09E600
6E7900
AA1200
9C3B20
2CE800
ENDCHAR
STARTCHAR cdotaccent.fina
ENCODING -1
SWIDTH 404 0
DWIDTH 4 0
BBX 5 7 0 0
BITMAP
01E600
001000
09E600
6E7900
AA1200
9C3B20
2CE800
ENDCHAR
STARTCHAR d.fina
ENCODING -1
SWIDTH 493 0
DWIDTH 5 0
BBX 7 10 0 0
BITMAP
0000BC00
0005BD10
00097C00
000D6C00
000F8700
05EFC200
3F7FA000
8B1F3000
9B6F4000
4EBA6000
ENDCHAR
STARTCHAR dcaron.fina
ENCODING -1
SWIDTH 458 0
DWIDTH 5 0
BBX 7 10 0 0
BITMAP
00000680
0002EA80
0005F730
0007C000
00099000
05DF7000
3F7E4000
8B2F2000
9B9F1000
4E9D0000
ENDCHAR
STARTCHAR dcroat.fina
ENCODING -1
SWIDTH 458 0
DWIDTH 5 0
BBX 6 9 0 0
BITMAP
0002E1
0005F0
05FFF5
002AA0
05DE70
3F7E40
8B2F20
9B9F10
4E9D00
ENDCHAR
STARTCHAR uni01C6.fina
ENCODING -1
SWIDTH 876 0
DWIDTH 9 0
BBX 10 14 0 -5
BITMAP
0002E1D2A4
0005E0B8D0
0007C07F40
0009934430
05DF6BFFF2
3F6E417E50
8B2F14E300
9B8F5ED300
4E9AD3BC00
000005EE00
00003C7C00
000096D600
00008FA000
0000020000
ENDCHAR
STARTCHAR e.fina
ENCODING -1
SWIDTH 411 0
DWIDTH 4 0
BBX 5 5 0 0
BITMAP
09E800
6D6C00
ACC600
8E5A40
2CE900
ENDCHAR
STARTCHAR eacute.fina
ENCODING -1
SWIDTH 411 0
DWIDTH 4 0
BBX 5 10 0 0
BITMAP
000420
000D60
004D00
008300
000000
09E800
6D6C00
ACC600
8E5A40
2CE900
ENDCHAR
STARTCHAR ebreve.fina
ENCODING -1
SWIDTH 411 0
DWIDTH 4 0
BBX 5 9 0 0
BITMAP
030030
3E27B0
0AFE40
002100
09E800
6D6C00
ACC600
8E5A40
2CE900
ENDCHAR
STARTCHAR ecaron.fina
ENCODING -1
SWIDTH 411 0
DWIDTH 4 0
BBX 5 10 0 0
BITMAP
033150
079880
04CD10
01D600
000000
09E800
6D6C00
ACC600
8E5A40
2CE900
ENDCHAR
STARTCHAR ecircumflex.fina
ENCODING -1
SWIDTH 411 0
DWIDTH 4 0
BBX 5 10 0 0
BITMAP
003400
01DD00
088D20
0D2A40
000000
09E800
6D6C00
ACC600
8E5A40
2CE900
ENDCHAR
STARTCHAR uni1EBF.fina
ENCODING -1
SWIDTH 411 0
DWIDTH 4 0
BBX 6 10 0 0
BITMAP
000025
0000C6
02CC00
0C4B40
000000
09E800
6D6C00
ACC600
8E5A40
2CE900
ENDCHAR
STARTCHAR uni1EC7.fina
ENCODING -1
SWIDTH 411 0
DWIDTH 4 0
BBX 5 13 0 -3
BITMAP
003400
01DD00
088D20
0D2A40
000000
09E800
6D6C00
ACC600
8E5A40
2CE900
000000
08D000
011000
ENDCHAR
STARTCHAR uni1EC1.fina
ENCODING -1
SWIDTH 411 0
DWIDTH 4 0
BBX 5 10 0 0
BITMAP
510000
8B0000
02CC00
0C4B40
000000
09E800
6D6C00
ACC600
8E5A40
2CE900
ENDCHAR
STARTCHAR uni1EC3.fina
ENCODING -1
SWIDTH 411 0
DWIDTH 4 0
BBX 6 9 0 0
BITMAP
0001E9
00003D
02CBB9
0C8D50
0AE900
6D6C00
ACC600
8E5A40
2CE900
ENDCHAR
STARTCHAR uni1EC5.fina
ENCODING -1
SWIDTH 411 0
DWIDTH 4 0
BBX 5 10 0 0
BITMAP
07D6B0
063930
03DD00
0C4B40
000000
09E800
6D6C00
ACC600
8E5A40
2CE900
ENDCHAR
STARTCHAR uni0205.fina
ENCODING -1
SWIDTH 411 0
DWIDTH 4 0
BBX 5 10 0 0
BITMAP
425100
A9C600
3D6A00
0A2B00
000000
09E800
6D6C00
ACC600
8E5A40
2CE900
ENDCHAR
STARTCHAR edieresis.fina
ENCODING -1
SWIDTH 411 0
DWIDTH 4 0
BBX 5 7 0 0
BITMAP
0C5B60
010100
09E800
6D6C00
ACC600
8E5A40
2CE900
ENDCHAR
STARTCHAR edotaccent.fina
ENCODING -1
SWIDTH 411 0
DWIDTH 4 0
BBX 5 7 0 0
BITMAP
01D700
001000
09E800
6D6C00
ACC600
8E5A40
2CE900
ENDCHAR
STARTCHAR uni1EB9.fina
ENCODING -1
SWIDTH 411 0
DWIDTH 4 0
BBX 5 8 0 -3
BITMAP
09E800
6D6C00
ACC600
8E5A40
2CE900
000000
08D000
011000
ENDCHAR
STARTCHAR egrave.fina
ENCODING -1
SWIDTH 411 0
DWIDTH 4 0
BBX 5 10 0 0
BITMAP
060000
1F4000
08A000
00B000
000000
09E800
6D6C00
ACC600
8E5A40
2CE900
ENDCHAR
STARTCHAR uni1EBB.fina
ENCODING -1
SWIDTH 411 0
DWIDTH 4 0
BBX 5 9 0 0
BITMAP
02EB00
003D20
00BB00
001000
09E800
6D6C00
ACC600
8E5A40
2CE900
ENDCHAR
STARTCHAR uni0207.fina
ENCODING -1
SWIDTH 411 0
DWIDTH 4 0
BBX 5 8 0 0
BITMAP
06ED30
1F49B0
260170
09E800
6D6C00
ACC600
8E5A40
2CE900
ENDCHAR
STARTCHAR emacron.fina
ENCODING -1
SWIDTH 411 0
DWIDTH 4 0
BBX 5 7 0 0
BITMAP
0CFF30
022200
09E800
6D6C00
ACC600
8E5A40
2CE900
ENDCHAR
STARTCHAR eogonek.fina
ENCODING -1
SWIDTH 411 0
DWIDTH 4 0
BBX 5 9 0 -4
BITMAP
09E800
5D6D00
9BB900
9E6530
4FCD10
05D200
06A000
03EE10
001100
ENDCHAR
STARTCHAR uni1EBD.fina
ENCODING -1
SWIDTH 411 0
DWIDTH 4 0
BBX 5 8 0 0
BITMAP
0BB3C0
4A6E60
000000
09E800
6D6C00
ACC600
8E5A40
2CE900
ENDCHAR
STARTCHAR g.fina
ENCODING -1
SWIDTH 449 0
DWIDTH 4 0
BBX 5 10 0 -5
BITMAP
05DA20
3F6E40
8B2F20
9B8E00
4EDC00
03E900
2CC600
A5E200
E7C000
BD3000
ENDCHAR
STARTCHAR gbreve.fina
ENCODING -1
SWIDTH 449 0
DWIDTH 4 0
BBX 6 14 0 -5
BITMAP
030021
0B82E2
05FF90
001100
05DA20
3F6E40
8B2F20
9B8E00
4EDC00
03E900
2CC600
A5E200
E7C000
BD3000
ENDCHAR
STARTCHAR gcaron.fina
ENCODING -1
SWIDTH 449 0
DWIDTH 4 0
BBX 6 15 0 -5
BITMAP
005051
01F3E1
00DB60
008C00
000000
05DA20
3F6E40
8B2F20
9B8E00
4EDC00
03E900
2CC600
A5E200
E7C000
BD3000
ENDCHAR
STARTCHAR gcircumflex.fina
ENCODING -1
SWIDTH 449 0
DWIDTH 4 0
BBX 5 15 0 -5
BITMAP
001600
008E50
02E890
0874A0
000000
05DA20
3F6E40
8B2F20
9B8E00
4EDC00
03E900
2CC600
A5E200
E7C000
BD3000
ENDCHAR
STARTCHAR uni0123.fina
ENCODING -1
SWIDTH 449 0
DWIDTH 4 0
BBX 5 14 0 -5
BITMAP
001B00
004D00
003800
000000
05DA20
3F6E40
8B2F20
9B8E00
4EDC00
03E900
2CC600
A5E200
E7C000
BD3000
ENDCHAR
STARTCHAR gdotaccent.fina
ENCODING -1
SWIDTH 449 0
DWIDTH 4 0
BBX 5 12 0 -5
BITMAP
008D00
001100
05DA20
3F6E40
8B2F20
9B8E00
4EDC00
03E900
2CC600
A5E200
E7C000
BD3000
ENDCHAR
STARTCHAR h.fina
ENCODING -1
SWIDTH 490 0
DWIDTH 5 0
BBX 5 10 0 0
BITMAP
00AD10
05CC40
0B6C20
0E5C00
3FB300
5F9C80
6DBE90
7E8B70
7F2D60
4C0C40
ENDCHAR
STARTCHAR hbar.fina
ENCODING -1
SWIDTH 490 0
DWIDTH 5 0
BBX 5 9 0 0
BITMAP
04D000
08C000
5FFF50
0E7200
2F4C80
4EBE90
6F8B70
6F2D60
4C0C40
ENDCHAR
STARTCHAR hcircumflex.fina
ENCODING -1
SWIDTH 490 0
DWIDTH 5 0
BBX 5 14 0 0
BITMAP
003E60
00CBC0
04C1D0
000000
00AD10
05CC40
0B6C20
0E5C00
3FB300
5F9C80
6DBE90
7E8B70
7F2D60
4C0C40
ENDCHAR
STARTCHAR i.fina
ENCODING -1
SWIDTH 222 0
DWIDTH 2 0
BBX 3 7 0 0
BITMAP
0CA0
0100
1E20
4F00
7C00
9B00
9800
ENDCHAR
STARTCHAR dotlessi.fina
ENCODING -1
SWIDTH 222 0
DWIDTH 2 0
BBX 3 5 0 0
BITMAP
1E20
4F00
7C00
9B00
9800
ENDCHAR
STARTCHAR iacute.fina
ENCODING -1
SWIDTH 222 0
DWIDTH 2 0
BBX 4 10 0 0
BITMAP
0032
00D7
03D1
0740
0000
1E20
4F00
7C00
9B00
9800
ENDCHAR
STARTCHAR iacute_j.loclNLD.fina
ENCODING -1
SWIDTH 479 0
DWIDTH 5 0
BBX 6 15 0 -5
BITMAP
003314
00B98C
02E2D4
065380
000000
1D1A50
5E1F30
7B6F10
7DDE00
3EAC00
03D900
2CC600
B4E200
E7B000
BD3000
ENDCHAR
STARTCHAR ibreve.fina
ENCODING -1
SWIDTH 222 0
DWIDTH 2 0
BBX 5 9 -1 0
BITMAP
030030
2F36C0
09FE40
002100
01E200
04F000
07C000
09B000
098000
ENDCHAR
STARTCHAR icircumflex.fina
ENCODING -1
SWIDTH 222 0
DWIDTH 2 0
BBX 4 10 0 0
BITMAP
0350
0DE0
79C3
C295
0000
1E20
4F00
7C00
9B00
9800
ENDCHAR
STARTCHAR uni0209.fina
ENCODING -1
SWIDTH 222 0
DWIDTH 2 0
BBX 4 10 -1 0
BITMAP
3341
9AC7
2E5B
092B
0000
01E2
04F0
07C0
09B0
0980
ENDCHAR
STARTCHAR idieresis.fina
ENCODING -1
SWIDTH 222 0
DWIDTH 2 0
BBX 4 7 0 0
BITMAP
B6A7
1010
1E20
4F00
7C00
9B00
9800
ENDCHAR
STARTCHAR i.loclTRK.fina
ENCODING -1
SWIDTH 222 0
DWIDTH 2 0
BBX 3 7 0 0
BITMAP
0D80
0100
1E20
4F00
7C00
9B00
9800
ENDCHAR
STARTCHAR uni1ECB.fina
ENCODING -1
SWIDTH 222 0
DWIDTH 2 0
BBX 4 10 -1 -3
BITMAP
00CA
0010
01E2
04F0
07C0
09B0
0980
0000
1E70
0100
ENDCHAR
STARTCHAR igrave.fina
ENCODING -1
SWIDTH 222 0
DWIDTH 2 0
BBX 3 10 0 0
BITMAP
5000
E500
7B00
0B00
0000
1E20
4F00
7C00
9B00
9800
ENDCHAR
STARTCHAR uni1EC9.fina
ENCODING -1
SWIDTH 222 0
DWIDTH 2 0
BBX 4 9 0 0
BITMAP
1EC0
03D2
0BC0
0100
1E20
4F00
7C00
9B00
9800
ENDCHAR
STARTCHAR uni020B.fina
ENCODING -1
SWIDTH 222 0
DWIDTH 2 0
BBX 5 8 -1 0
BITMAP
05ED30
1F59C0
170170
01E200
04F000
07C000
09B000
098000
ENDCHAR
STARTCHAR imacron.fina
ENCODING -1
SWIDTH 222 0
DWIDTH 2 0
BBX 4 7 0 0
BITMAP
BFF4
1220
1E20
4F00
7C00
9B00
9800
ENDCHAR
STARTCHAR iogonek.fina
ENCODING -1
SWIDTH 222 0
DWIDTH 2 0
BBX 4 10 -1 -3
BITMAP
00D8
0010
01E2
05F0
07C0
09A0
0B50
3D00
1EF4
0010
ENDCHAR
STARTCHAR itilde.fina
ENCODING -1
SWIDTH 222 0
DWIDTH 2 0
BBX 5 8 -1 0
BITMAP
0BC3C0
3A6D70
000000
01E200
04F000
07C000
09B000
098000
ENDCHAR
STARTCHAR j.fina
ENCODING -1
SWIDTH 229 0
DWIDTH 2 0
BBX 6 12 -3 -5
BITMAP
0002E6
000010
0002E1
0004F0
0006D0
0007B0
000990
004E60
04CF30
0C4E00
3CA800
1DC100
ENDCHAR
STARTCHAR uni0237.fina
ENCODING -1
SWIDTH 229 0
DWIDTH 2 0
BBX 6 10 -3 -5
BITMAP
0002E1
0004F0
0006D0
0007B0
000990
004E60
04CF30
0C4E00
3CA800
1DC100
ENDCHAR
STARTCHAR jcircumflex.fina
ENCODING -1
SWIDTH 229 0
DWIDTH 2 0
BBX 7 15 -3 -5
BITMAP
00003400
0001DD00
00088D20
000D2A40
00000000
0002E100
0004F000
0006D000
0007B000
00099000
004E6000
04CF3000
0C4E0000
3CA80000
1DC10000
ENDCHAR
STARTCHAR k.fina
ENCODING -1
SWIDTH 521 0
DWIDTH 5 0
BBX 6 10 0 0
BITMAP
00AD10
05CC40
0B6C20
0E5B00
3FB300
5F8CC0
6CB6F1
7E9B90
7F7F40
4C0BD1
ENDCHAR
STARTCHAR uni0137.fina
ENCODING -1
SWIDTH 521 0
DWIDTH 5 0
BBX 6 13 0 -3
BITMAP
00AD10
05CC40
0B6C20
0E5B00
3FB300
5F8CC0
6CB6F1
7E9B90
7F7F40
4C0BD1
029000
05B000
057000
ENDCHAR
STARTCHAR kgreenlandic.fina
ENCODING -1
SWIDTH 541 0
DWIDTH 5 0
BBX 6 5 0 0
BITMAP
1E4DB0
5DD6E0
7EF030
7FE578
5B6EC2
ENDCHAR
STARTCHAR l.fina
ENCODING -1
SWIDTH 368 0
DWIDTH 4 0
BBX 5 10 0 0
BITMAP
00AD10
05BC40
0B6B30
0F2D10
3F4B00
5DA400
6EC000
6F3000
4E4600
0AE700
ENDCHAR
STARTCHAR lacute.fina
ENCODING -1
SWIDTH 368 0
DWIDTH 4 0
BBX 6 14 0 0
BITMAP
000025
0002DB
000C60
000000
00AD10
05BC40
0B6B30
0F2D10
3F4B00
5DA400
6EC000
6F3000
4E4600
0AE700
ENDCHAR
STARTCHAR lcaron.fina
ENCODING -1
SWIDTH 368 0
DWIDTH 4 0
BBX 6 10 0 0
BITMAP
00AD12
05BCAB
0B6BA6
0F2D10
3F4B00
5DA400
6EC000
6F3000
4E4600
0AE700
ENDCHAR
STARTCHAR uni013C.fina
ENCODING -1
SWIDTH 368 0
DWIDTH 4 0
BBX 5 13 0 -3
BITMAP
00AD10
05BC40
0B6B30
0F2D10
3F4B00
5DA400
6EC000
6F3000
4E4600
0AE700
093000
0D3000
0B0000
ENDCHAR
STARTCHAR ldot.fina
ENCODING -1
SWIDTH 466 0
DWIDTH 5 0
BBX 5 10 0 0
BITMAP
02E100
06E000
0AA000
0D7000
1F7800
3F7C00
6D0000
7C0030
6E37B0
1BEB10
ENDCHAR
STARTCHAR uni01C9.fina
ENCODING -1
SWIDTH 555 0
DWIDTH 6 0
BBX 6 15 0 -5
BITMAP
00AD10
05BC40
0B6B30
0F2EDA
3F4B10
5DA5C4
6EB0F4
6F32F2
4E4AF0
0AECC0
002DA0
02CC70
0A5E30
0E7C00
0BD300
ENDCHAR
STARTCHAR lslash.fina
ENCODING -1
SWIDTH 368 0
DWIDTH 4 0
BBX 6 11 0 0
BITMAP
019DE6
09B421
01AD10
07BC40
0D4B30
3F1D00
5D7700
6DC100
6F4000
3E4600
0AE700
ENDCHAR
STARTCHAR m.fina
ENCODING -1
SWIDTH 732 0
DWIDTH 7 0
BBX 8 5 0 0
BITMAP
1E3D68E1
5DCEBDF0
7E7DD6D0
7F1F97C0
5B0C46A0
ENDCHAR
STARTCHAR n.fina
ENCODING -1
SWIDTH 484 0
DWIDTH 5 0
BBX 5 5 0 0
BITMAP
1E3C70
5DCE80
7E8C60
7F2E50
5B0D30
ENDCHAR
STARTCHAR nacute.fina
ENCODING -1
SWIDTH 484 0
DWIDTH 5 0
BBX 5 10 0 0
BITMAP
000150
0006D0
000C50
002A00
000000
1E3C70
5DCE80
7E8C60
7F2E50
5B0D30
ENDCHAR
STARTCHAR napostrophe.fina
ENCODING -1
SWIDTH 484 0
DWIDTH 5 0
BBX 5 9 0 0
BITMAP
A20000
F10000
B00000
000000
1E3C70
5DCE80
7E8C60
7F2E50
5B0D30
ENDCHAR
STARTCHAR ncaron.fina
ENCODING -1
SWIDTH 484 0
DWIDTH 5 0
BBX 6 10 0 0
BITMAP
006051
01F2E1
00CB70
007C10
000000
1E3C70
5DCE80
7E8C60
7F2E50
5B0D30
ENDCHAR
STARTCHAR uni0146.fina
ENCODING -1
SWIDTH 484 0
DWIDTH 5 0
BBX 5 8 0 -3
BITMAP
1E3C70
5DCE80
7E8C60
7F2E50
5B0D30
029000
05B000
057000
ENDCHAR
STARTCHAR eng.fina
ENCODING -1
SWIDTH 484 0
DWIDTH 5 0
BBX 5 8 0 -3
BITMAP
1E3C70
5DCE70
7E7D40
7F2F10
5B4C00
008800
95D200
5E6000
ENDCHAR
STARTCHAR uni01CC.fina
ENCODING -1
SWIDTH 725 0
DWIDTH 7 0
BBX 8 12 0 -5
BITMAP
000002E5
00000010
1E3C72E0
5DCE85E0
7E8D56C0
7F2F6DA0
5B0CDD80
00005F50
0005BF20
001D5D00
004BA800
002DB100
ENDCHAR
STARTCHAR ntilde.fina
ENCODING -1
SWIDTH 484 0
DWIDTH 5 0
BBX 6 8 0 0
BITMAP
05E685
0B5BC1
000000
1E3C70
5DCE80
7E8C60
7F2E50
5B0D30
ENDCHAR
STARTCHAR o.fina
ENCODING -1
SWIDTH 453 0
DWIDTH 5 0
BBX 5 5 0 0
BITMAP
0AE900
6D4F30
A90E50
8C5F20
1CE600
ENDCHAR
STARTCHAR oacute.fina
ENCODING -1
SWIDTH 453 0
DWIDTH 5 0
BBX 5 10 0 0
BITMAP
000420
000E50
005C00
009300
000000
0AE900
6D4F30
A90E50
8C5F20
1CE600
ENDCHAR
STARTCHAR obreve.fina
ENCODING -1
SWIDTH 453 0
DWIDTH 5 0
BBX 5 9 0 0
BITMAP
030030
3E27B0
0BFE30
002100
0AE900
6D4F30
A90E50
8C5F20
1CE600
ENDCHAR
STARTCHAR ocircumflex.fina
ENCODING -1
SWIDTH 453 0
DWIDTH 5 0
BBX 5 10 0 0
BITMAP
003400
01DD00
098E10
0D1B30
000000
0AE900
6D4F30
A90E50
8C5F20
1CE600
ENDCHAR
STARTCHAR uni1ED1.fina
ENCODING -1
SWIDTH 453 0
DWIDTH 5 0
BBX 6 10 0 0
BITMAP
000024
0000C6
03CB00
0C3C30
000000
0AE900
6D4F30
A90E50
8C5F20
1CE600
ENDCHAR
STARTCHAR uni1ED9.fina
ENCODING -1
SWIDTH 453 0
DWIDTH 5 0
BBX 5 13 0 -3
BITMAP
003400
01DD00
098E10
0D1B30
000000
0AE900
6D4F30
A90E50
8C5F20
1CE600
000000
0AB000
011000
ENDCHAR
STARTCHAR uni1ED3.fina
ENCODING -1
SWIDTH 453 0
DWIDTH 5 0
BBX 5 10 0 0
BITMAP
510000
8A0000
03CB00
0C3C30
000000
0AE900
6D4F30
A90E50
8C5F20
1CE600
ENDCHAR
STARTCHAR uni1ED5.fina
ENCODING -1
SWIDTH 453 0
DWIDTH 5 0
BBX 6 9 0 0
BITMAP
0002E8
00003C
02DBC8
0D8E40
0BEA00
6D4F30
A90E50
8C5F20
1CE600
ENDCHAR
STARTCHAR uni1ED7.fina
ENCODING -1
SWIDTH 453 0
DWIDTH 5 0
BBX 5 10 0 0
BITMAP
07D6A0
063930
04DD00
0D3C30
000000
0AE900
6D4F30
A90E50
8C5F20
1CE600
ENDCHAR
STARTCHAR uni020D.fina
ENCODING -1
SWIDTH 453 0
DWIDTH 5 0
BBX 5 10 0 0
BITMAP
425100
A9D600
4D7A00
0A1B00
000000
0AE900
6D4F30
A90E50
8C5F20
1CE600
ENDCHAR
STARTCHAR odieresis.fina
ENCODING -1
SWIDTH 453 0
DWIDTH 5 0
BBX 5 7 0 0
BITMAP
0D4C60
010100
0AE900
6D4F30
A90E50
8C5F20
1CE600
ENDCHAR
STARTCHAR uni022B.fina
ENCODING -1
SWIDTH 453 0
DWIDTH 5 0
BBX 5 9 0 0
BITMAP
09FF60
012200
0D4C60
010100
0AE900
6D4F30
A90E50
8C5F20
1CE600
ENDCHAR
STARTCHAR uni0231.fina
ENCODING -1
SWIDTH 453 0
DWIDTH 5 0
BBX 5 9 0 0
BITMAP
09FF60
012200
01E700
001000
0AE900
6D4F30
A90E50
8C5F20
1CE600
ENDCHAR
STARTCHAR uni1ECD.fina
ENCODING -1
SWIDTH 453 0
DWIDTH 5 0
BBX 5 8 0 -3
BITMAP
0AE900
6D4F30
A90E50
8C5F20
1CE600
000000
0AB000
011000
ENDCHAR
STARTCHAR ograve.fina
ENCODING -1
SWIDTH 453 0
DWIDTH 5 0
BBX 5 10 0 0
BITMAP
050000
1F3000
089000
00B000
000000
0AE900
6D4F30
A90E50
8C5F20
1CE600
ENDCHAR
STARTCHAR uni1ECF.fina
ENCODING -1
SWIDTH 453 0
DWIDTH 5 0
BBX 5 9 0 0
BITMAP
02EB00
003E10
00CB00
001000
0AE900
6D4F30
A90E50
8C5F20
1CE600
ENDCHAR
STARTCHAR ohorn.fina
ENCODING -1
SWIDTH 453 0
DWIDTH 5 0
BBX 5 7 0 0
BITMAP
000050
0003D0
0AFF60
6D4F30
A90E50
8C5F20
1CE600
ENDCHAR
STARTCHAR uni1EDB.fina
ENCODING -1
SWIDTH 453 0
DWIDTH 5 0
BBX 5 10 0 0
BITMAP
000500
002F20
008900
00A150
0003D0
0AFF60
6D4F30
A90E50
8C5F20
1CE600
ENDCHAR
STARTCHAR uni1EE3.fina
ENCODING -1
SWIDTH 453 0
DWIDTH 5 0
BBX 5 10 0 -3
BITMAP
000050
0003D0
0AFF60
6D4F30
A90E50
8C5F20
1CE600
000000
0AB000
011000
ENDCHAR
STARTCHAR uni1EDD.fina
ENCODING -1
SWIDTH 453 0
DWIDTH 5 0
BBX 5 10 0 0
BITMAP
140000
4E1000
0B6000
029050
0003D0
0AFF60
6D4F30
A90E50
8C5F20
1CE600
ENDCHAR
STARTCHAR uni1EDF.fina
ENCODING -1
SWIDTH 453 0
DWIDTH 5 0
BBX 5 9 0 0
BITMAP
05E800
014D00
01E850
0013D0
0AFF60
6D4F30
A90E50
8C5F20
1CE600
ENDCHAR
STARTCHAR uni1EE1.fina
ENCODING -1
SWIDTH 453 0
DWIDTH 5 0
BBX 5 8 0 0
BITMAP
0C8740
399C60
0003D0
0AFF60
6D4F30
A90E50
8C4F20
1CE600
ENDCHAR
STARTCHAR ohungarumlaut.fina
ENCODING -1
SWIDTH 453 0
DWIDTH 5 0
BBX 5 10 0 0
BITMAP
005160
01F7E0
05B880
083A10
000000
0AE900
6D4F30
A90E50
8C5F20
1CE600
ENDCHAR
STARTCHAR uni020F.fina
ENCODING -1
SWIDTH 453 0
DWIDTH 5 0
BBX 5 8 0 0
BITMAP
06ED20
2E4AA0
260260
0AE900
6D4F30
A90E50
8C5F20
1CE600
ENDCHAR
STARTCHAR omacron.fina
ENCODING -1
SWIDTH 453 0
DWIDTH 5 0
BBX 5 7 0 0
BITMAP
0DFF20
022200
0AE900
6D4F30
A90E50
8C5F20
1CE600
ENDCHAR
STARTCHAR uni01EB.fina
ENCODING -1
SWIDTH 453 0
DWIDTH 5 0
BBX 5 8 0 -3
BITMAP
09E900
6D4F30
990E50
9B2F20
3FF900
07A000
0B6000
05EA00
ENDCHAR
STARTCHAR oslash.fina
ENCODING -1
SWIDTH 463 0
DWIDTH 5 0
BBX 5 9 0 -2
BITMAP
002200
007400
0AFA00
6DCE50
A9AB60
8CBE30
2DE700
074000
041000
ENDCHAR
STARTCHAR oslashacute.fina
ENCODING -1
SWIDTH 463 0
DWIDTH 5 0
BBX 5 12 0 -2
BITMAP
004200
00D700
04D100
086200
007400
0AFA00
6DCE50
A9AB60
8CBE30
2DE700
074000
041000
ENDCHAR
STARTCHAR otilde.fina
ENCODING -1
SWIDTH 453 0
DWIDTH 5 0
BBX 5 8 0 0
BITMAP
1CB3C0
597E60
000000
0AE900
6D4F30
A90E50
8C5F20
1CE600
ENDCHAR
STARTCHAR uni022D.fina
ENCODING -1
SWIDTH 453 0
DWIDTH 5 0
BBX 5 10 0 0
BITMAP
08FF70
012210
1CB3C0
597E60
000000
0AE900
6D4F30
A90E50
8C5F20
1CE600
ENDCHAR
STARTCHAR oe.fina
ENCODING -1
SWIDTH 686 0
DWIDTH 7 0
BBX 8 5 0 0
BITMAP
0AE8AE50
6D4FA990
A90EBD30
8C5FC4C1
1CE7DE60
ENDCHAR
STARTCHAR p.fina
ENCODING -1
SWIDTH 457 0
DWIDTH 5 0
BBX 7 10 -2 -5
BITMAP
004CBD20
005F5E60
005D0E50
00AD7D10
03EFC300
09BB0000
0D8A0000
1C970000
2CC30000
0DA00000
ENDCHAR
STARTCHAR thorn.fina
ENCODING -1
SWIDTH 483 0
DWIDTH 5 0
BBX 5 13 0 -4
BITMAP
077000
0D7000
0F4000
3F1000
5E6E60
7EAAA0
8F2B80
9D9E10
AD8200
B70000
B70000
B70000
100000
ENDCHAR
STARTCHAR q.fina
ENCODING -1
SWIDTH 449 0
DWIDTH 4 0
BBX 5 10 0 -4
BITMAP
000240
05DF80
3F7E50
8B2F10
9B8D00
4EDB00
00A800
00C700
00E500
005100
ENDCHAR
STARTCHAR r.fina
ENCODING -1
SWIDTH 495 0
DWIDTH 5 0
BBX 5 5 0 0
BITMAP
1E3D70
5DCDC0
7F79A0
7F1000
5B0000
ENDCHAR
STARTCHAR racute.fina
ENCODING -1
SWIDTH 495 0
DWIDTH 5 0
BBX 5 10 0 0
BITMAP
000240
000AA0
001E20
005600
000000
1E3D70
5DCDC0
7F79A0
7F1000
5B0000
ENDCHAR
STARTCHAR rcaron.fina
ENCODING -1
SWIDTH 495 0
DWIDTH 5 0
BBX 5 10 0 0
BITMAP
014060
04D5C0
01EC40
00AA00
000000
1E3D70
5DCDC0
7F79A0
7F1000
5B0000
ENDCHAR
STARTCHAR uni0157.fina
ENCODING -1
SWIDTH 495 0
DWIDTH 5 0
BBX 5 8 0 -3
BITMAP
1E3D70
5DCDC0
7F79A0
7F1000
5B0000
570000
980000
830000
ENDCHAR
STARTCHAR uni0211.fina
ENCODING -1
SWIDTH 495 0
DWIDTH 5 0
BBX 5 10 0 0
BITMAP
243300
6D9A00
1E5E00
065920
000000
1E3D70
5DCDC0
7F79A0
7F1000
5B0000
ENDCHAR
STARTCHAR uni0213.fina
ENCODING -1
SWIDTH 495 0
DWIDTH 5 0
BBX 5 8 0 0
BITMAP
03DE50
0D76E0
070080
1E3D70
5DCDC0
7F79A0
7F1000
5B0000
ENDCHAR
STARTCHAR s.fina
ENCODING -1
SWIDTH 394 0
DWIDTH 4 0
BBX 4 5 0 0
BITMAP
03E1
0AE0
4CD8
D6BC
18E6
ENDCHAR
STARTCHAR sacute.fina
ENCODING -1
SWIDTH 394 0
DWIDTH 4 0
BBX 5 10 0 0
BITMAP
000420
000E60
005C00
008300
000000
03E100
0AE000
4CD800
D6BC00
18E600
ENDCHAR
STARTCHAR scaron.fina
ENCODING -1
SWIDTH 394 0
DWIDTH 4 0
BBX 5 10 0 0
BITMAP
032150
088980
05CD10
01D600
000000
03E100
0AE000
4CD800
D6BC00
18E600
ENDCHAR
STARTCHAR scedilla.fina
ENCODING -1
SWIDTH 394 0
DWIDTH 4 0
BBX 4 9 0 -4
BITMAP
02E1
09D0
2EF7
C59C
5AF7
02B5
00A5
5EC1
0100
ENDCHAR
STARTCHAR scircumflex.fina
ENCODING -1
SWIDTH 394 0
DWIDTH 4 0
BBX 5 10 0 0
BITMAP
003400
01DD00
088E20
0D1B40
000000
03E100
0AE000
4CD800
D6BC00
18E600
ENDCHAR
STARTCHAR uni0219.fina
ENCODING -1
SWIDTH 394 0
DWIDTH 4 0
BBX 4 8 0 -3
BITMAP
03E1
0AE0
4CD8
D6BC
18E6
0390
06A0
0660
ENDCHAR
STARTCHAR germandbls.fina
ENCODING -1
SWIDTH 580 0
DWIDTH 6 0
BBX 6 11 0 -2
BITMAP
008EC3
07D4BA
0E40A9
3F19D2
5D4F20
7C3F90
7B26F8
8BD39B
8B8ED4
8B0000
790000
ENDCHAR
STARTCHAR uni01C9.ss01.fina
ENCODING -1
SWIDTH 466 0
DWIDTH 5 0
BBX 5 14 0 -5
BITMAP
06B000
0AA000
0D7AB0
1F4110
4F1A60
6D0E50
8B0F30
8B9F10
4EDE00
02CC00
1CC800
86C400
D7D000
9E4000
ENDCHAR
STARTCHAR eng.ss01.fina
ENCODING -1
SWIDTH 484 0
DWIDTH 5 0
BBX 5 10 0 -5
BITMAP
1E3C70
5DCE80
7E8C60
7F2E40
5B1F10
00AD00
0ACA00
69A600
A7E100
7E6000
ENDCHAR
STARTCHAR p.ss01.fina
ENCODING -1
SWIDTH 488 0
DWIDTH 5 0
BBX 7 10 -2 -5
BITMAP
000D4C80
001FDE90
002F5C70
004F0E50
00AE0D30
03DC0000
0A8A0000
1A970000
3AD30000
1DA00000
ENDCHAR
STARTCHAR z.ss01.fina
ENCODING -1
SWIDTH 406 0
DWIDTH 4 0
BBX 6 10 -1 -4
BITMAP
036232
05DFF5
004E50
03E400
04F900
006F20
03DF40
1D4F10
599900
3EB100
ENDCHAR
STARTCHAR zacute.ss01.fina
ENCODING -1
SWIDTH 406 0
DWIDTH 4 0
BBX 6 14 -1 -4
BITMAP
000041
0001E5
0006C0
000920
036232
05DFF5
004E50
03E400
04F900
006F20
03DF40
1D4F10
599900
3EB100
ENDCHAR
STARTCHAR zcaron.ss01.fina
ENCODING -1
SWIDTH 406 0
DWIDTH 4 0
BBX 6 14 -1 -4
BITMAP
004224
0097A7
005BD1
001E50
036232
05DFF5
004E50
03E400
04F900
006F20
03DF40
1D4F10
599900
3EB100
ENDCHAR
STARTCHAR zdotaccent.ss01.fina
ENCODING -1
SWIDTH 406 0
DWIDTH 4 0
BBX 6 11 -1 -4
BITMAP
002E60
036332
05DFF5
004E50
03E400
04F900
006F20
03DF40
1D4F10
599900
3EB100
ENDCHAR
STARTCHAR t.fina
ENCODING -1
SWIDTH 413 0
DWIDTH 4 0
BBX 5 9 0 0
BITMAP
007E20
03DB50
098C20
0DB800
EFFF60
3F4200
1F2000
0E7610
06EB10
ENDCHAR
STARTCHAR tbar.fina
ENCODING -1
SWIDTH 387 0
DWIDTH 4 0
BBX 4 8 0 0
BITMAP
05C0
09B0
0C80
BFFC
EFF7
5F20
2F48
09E8
ENDCHAR
STARTCHAR tcaron.fina
ENCODING -1
SWIDTH 413 0
DWIDTH 4 0
BBX 7 10 0 0
BITMAP
00000300
007E2E30
03DB5C00
098C2000
0DB80000
EFFF6000
3F420000
1F200000
0E761000
06EB1000
ENDCHAR
STARTCHAR uni0163.fina
ENCODING -1
SWIDTH 413 0
DWIDTH 4 0
BBX 5 13 0 -4
BITMAP
007E20
03DB50
098C20
0DB800
EFFF60
3F4200
1F2000
0F4200
0AEE10
08E600
009700
4FE200
020000
ENDCHAR
STARTCHAR uni021B.fina
ENCODING -1
SWIDTH 413 0
DWIDTH 4 0
BBX 5 12 0 -3
BITMAP
007E20
03DB50
098C20
0DB800
EFFF60
3F4200
1F2000
0E7610
06EB10
02A000
05C000
047000
ENDCHAR
STARTCHAR u.fina
ENCODING -1
SWIDTH 460 0
DWIDTH 5 0
BBX 5 5 0 0
BITMAP
1D1A50
5E1F40
7B6F20
7DDF10
4E7D00
ENDCHAR
STARTCHAR uacute.fina
ENCODING -1
SWIDTH 460 0
DWIDTH 5 0
BBX 5 10 0 0
BITMAP
000240
0009A0
001E30
004700
000000
1D1A50
5E1F40
7B6F20
7DDF10
4E7D00
ENDCHAR
STARTCHAR ubreve.fina
ENCODING -1
SWIDTH 460 0
DWIDTH 5 0
BBX 6 9 0 0
BITMAP
030030
0D63E1
06FF70
001100
1D1A50
5E1F40
7B6F20
7DDF10
4E7D00
ENDCHAR
STARTCHAR ucircumflex.fina
ENCODING -1
SWIDTH 460 0
DWIDTH 5 0
BBX 5 10 0 0
BITMAP
001600
00BE30
04D960
0A5680
000000
1D1A50
5E1F40
7B6F20
7DDF10
4E7D00
ENDCHAR
STARTCHAR uni0215.fina
ENCODING -1
SWIDTH 460 0
DWIDTH 5 0
BBX 5 10 0 0
BITMAP
243300
5D8B00
0D5E00
065930
000000
1D1A50
5E1F40
7B6F20
7DDF10
4E7D00
ENDCHAR
STARTCHAR udieresis.fina
ENCODING -1
SWIDTH 460 0
DWIDTH 5 0
BBX 5 7 0 0
BITMAP
0897A0
011110
1D1A50
5E1F40
7B6F20
7DDF10
4E7D00
ENDCHAR
STARTCHAR uni1EE5.fina
ENCODING -1
SWIDTH 460 0
DWIDTH 5 0
BBX 5 8 0 -3
BITMAP
1D1A50
5E1F40
7B6F20
7DDF10
4E7D00
000000
09C000
011000
ENDCHAR
STARTCHAR ugrave.fina
ENCODING -1
SWIDTH 460 0
DWIDTH 5 0
BBX 5 10 0 0
BITMAP
041000
0B8000
03E000
008300
000000
1D1A50
5E1F40
7B6F20
7DDF10
4E7D00
ENDCHAR
STARTCHAR uni1EE7.fina
ENCODING -1
SWIDTH 460 0
DWIDTH 5 0
BBX 5 9 0 0
BITMAP
00CD20
002A60
007E20
001100
1D1A50
5E1F40
7B6F20
7DDF10
4E7D00
ENDCHAR
STARTCHAR uhorn.fina
ENCODING -1
SWIDTH 472 0
DWIDTH 5 0
BBX 6 7 0 0
BITMAP
000014
000079
1D1AD2
5E1F40
7B6F20
7DDF10
4E7D00
ENDCHAR
STARTCHAR uni1EE9.fina
ENCODING -1
SWIDTH 472 0
DWIDTH 5 0
BBX 6 10 0 0
BITMAP
000240
0009A0
001E30
004714
000079
1D1AD2
5E1F40
7B6F20
7DDF10
4E7D00
ENDCHAR
STARTCHAR uni1EF1.fina
ENCODING -1
SWIDTH 472 0
DWIDTH 5 0
BBX 6 10 0 -3
BITMAP
000014
000079
1D1AD2
5E1F40
7B6F20
7DDF10
4E7D00
000000
09C000
011000
ENDCHAR
STARTCHAR uni1EEB.fina
ENCODING -1
SWIDTH 472 0
DWIDTH 5 0
BBX 6 10 0 0
BITMAP
041000
0B8000
03E000
008314
000079
1D1AD2
5E1F40
7B6F20
7DDF10
4E7D00
ENDCHAR
STARTCHAR uni1EED.fina
ENCODING -1
SWIDTH 472 0
DWIDTH 5 0
BBX 6 9 0 0
BITMAP
00CD20
002A60
007E34
001179
1D1AD2
5E1F40
7B6F20
7DDF10
4E7D00
ENDCHAR
STARTCHAR uni1EEF.fina
ENCODING -1
SWIDTH 472 0
DWIDTH 5 0
BBX 6 8 0 0
BITMAP
05D3B0
0A5D74
000079
1D1AD2
5E1F40
7B6F20
7DDF10
4E7D00
ENDCHAR
STARTCHAR uhungarumlaut.fina
ENCODING -1
SWIDTH 460 0
DWIDTH 5 0
BBX 6 10 0 0
BITMAP
003251
00C8E5
01E5D0
038650
000000
1D1A50
5E1F40
7B6F20
7DDF10
4E7D00
ENDCHAR
STARTCHAR uni0217.fina
ENCODING -1
SWIDTH 460 0
DWIDTH 5 0
BBX 6 8 0 0
BITMAP
03DE60
0C86F1
070070
1D1A50
5E1F40
7B6F20
7DDF10
4E7D00
ENDCHAR
STARTCHAR umacron.fina
ENCODING -1
SWIDTH 460 0
DWIDTH 5 0
BBX 5 7 0 0
BITMAP
08FF70
012200
1D1A50
5E1F40
7B6F20
7DDF10
4E7D00
ENDCHAR
ENDFONT
